<?xml version="1.0" encoding="UTF-8" standalone="no"?>
<!DOCTYPE svg PUBLIC "-//W3C//DTD SVG 1.1//EN"
 "http://www.w3.org/Graphics/SVG/1.1/DTD/svg11.dtd">
<!-- Generated by graphviz version 2.40.1 (20161225.0304)
 -->
<!-- Title: G Pages: 1 -->
<svg width="1690pt" height="603pt"
 viewBox="0.00 0.00 1690.00 603.00" xmlns="http://www.w3.org/2000/svg" xmlns:xlink="http://www.w3.org/1999/xlink">
<g id="graph0" class="graph" transform="scale(1 1) rotate(0) translate(4 599)">
<title>G</title>
<polygon fill="#ffffff" stroke="transparent" points="-4,4 -4,-599 1686,-599 1686,4 -4,4"/>
<g id="clust1" class="cluster">
<title>cluster_0</title>
<polygon fill="#66cdaa" stroke="#66cdaa" points="8,-80 8,-587 248,-587 248,-80 8,-80"/>
<text text-anchor="middle" x="128" y="-571.8" font-family="Times,serif" font-size="14.00" fill="#000000">process #0</text>
</g>
<g id="clust2" class="cluster">
<title>cluster_1</title>
<polygon fill="#66cdaa" stroke="#66cdaa" points="256,-80 256,-587 496,-587 496,-80 256,-80"/>
<text text-anchor="middle" x="376" y="-571.8" font-family="Times,serif" font-size="14.00" fill="#000000">process #1</text>
</g>
<g id="clust3" class="cluster">
<title>cluster_2</title>
<polygon fill="#66cdaa" stroke="#66cdaa" points="504,-80 504,-587 744,-587 744,-80 504,-80"/>
<text text-anchor="middle" x="624" y="-571.8" font-family="Times,serif" font-size="14.00" fill="#000000">process #2</text>
</g>
<g id="clust4" class="cluster">
<title>cluster_3</title>
<polygon fill="#66cdaa" stroke="#66cdaa" points="752,-80 752,-587 992,-587 992,-80 752,-80"/>
<text text-anchor="middle" x="872" y="-571.8" font-family="Times,serif" font-size="14.00" fill="#000000">process #3</text>
</g>
<g id="clust5" class="cluster">
<title>cluster_4</title>
<polygon fill="#66cdaa" stroke="#66cdaa" points="1000,-8 1000,-587 1240,-587 1240,-8 1000,-8"/>
<text text-anchor="middle" x="1120" y="-571.8" font-family="Times,serif" font-size="14.00" fill="#000000">process #4</text>
</g>
<g id="clust6" class="cluster">
<title>cluster_5</title>
<polygon fill="#cd5c5c" stroke="#cd5c5c" points="1248,-296 1248,-587 1432,-587 1432,-296 1248,-296"/>
<text text-anchor="middle" x="1340" y="-571.8" font-family="Times,serif" font-size="14.00" fill="#000000">process #5</text>
</g>
<g id="clust7" class="cluster">
<title>cluster_6</title>
<polygon fill="#cd5c5c" stroke="#cd5c5c" points="1440,-224 1440,-587 1674,-587 1674,-224 1440,-224"/>
<text text-anchor="middle" x="1557" y="-571.8" font-family="Times,serif" font-size="14.00" fill="#000000">process #6</text>
</g>
<!-- a0 -->
<g id="node1" class="node">
<title>a0</title>
<ellipse fill="#ffffff" stroke="#ffffff" cx="128" cy="-538" rx="41.5911" ry="18"/>
<text text-anchor="middle" x="128" y="-535.5" font-family="Courier,monospace" font-size="10.00" fill="#000000">xclOpen()</text>
</g>
<!-- a1 -->
<g id="node2" class="node">
<title>a1</title>
<ellipse fill="#ffffff" stroke="#ffffff" cx="128" cy="-466" rx="84.358" ry="18"/>
<text text-anchor="middle" x="128" y="-463.5" font-family="Courier,monospace" font-size="10.00" fill="#000000">xclLoadXclBin(UUID_X)</text>
</g>
<!-- a0&#45;&gt;a1 -->
<g id="edge1" class="edge">
<title>a0&#45;&gt;a1</title>
<path fill="none" stroke="#000000" d="M128,-519.8314C128,-512.131 128,-502.9743 128,-494.4166"/>
<polygon fill="#000000" stroke="#000000" points="131.5001,-494.4132 128,-484.4133 124.5001,-494.4133 131.5001,-494.4132"/>
</g>
<!-- a2 -->
<g id="node3" class="node">
<title>a2</title>
<ellipse fill="#ffffff" stroke="#ffffff" cx="128" cy="-394" rx="108.8054" ry="18"/>
<text text-anchor="middle" x="128" y="-391.5" font-family="Courier,monospace" font-size="10.00" fill="#000000">xclOpenContext(UUID_X, CU_0)</text>
</g>
<!-- a1&#45;&gt;a2 -->
<g id="edge2" class="edge">
<title>a1&#45;&gt;a2</title>
<path fill="none" stroke="#000000" d="M128,-447.8314C128,-440.131 128,-430.9743 128,-422.4166"/>
<polygon fill="#000000" stroke="#000000" points="131.5001,-422.4132 128,-412.4133 124.5001,-422.4133 131.5001,-422.4132"/>
</g>
<!-- a3 -->
<g id="node4" class="node">
<title>a3</title>
<ellipse fill="#ffffff" stroke="#ffffff" cx="128" cy="-322" rx="66.5378" ry="18"/>
<text text-anchor="middle" x="128" y="-319.5" font-family="Courier,monospace" font-size="10.00" fill="#000000">xclExecBuf(CU_0)</text>
</g>
<!-- a2&#45;&gt;a3 -->
<g id="edge3" class="edge">
<title>a2&#45;&gt;a3</title>
<path fill="none" stroke="#000000" d="M128,-375.8314C128,-368.131 128,-358.9743 128,-350.4166"/>
<polygon fill="#000000" stroke="#000000" points="131.5001,-350.4132 128,-340.4133 124.5001,-350.4133 131.5001,-350.4132"/>
</g>
<!-- a4 -->
<g id="node5" class="node">
<title>a4</title>
<ellipse fill="#ffffff" stroke="#ffffff" cx="128" cy="-250" rx="55.8461" ry="18"/>
<text text-anchor="middle" x="128" y="-247.5" font-family="Courier,monospace" font-size="10.00" fill="#000000">xclExecWait()</text>
</g>
<!-- a3&#45;&gt;a4 -->
<g id="edge4" class="edge">
<title>a3&#45;&gt;a4</title>
<path fill="none" stroke="#000000" d="M128,-303.8314C128,-296.131 128,-286.9743 128,-278.4166"/>
<polygon fill="#000000" stroke="#000000" points="131.5001,-278.4132 128,-268.4133 124.5001,-278.4133 131.5001,-278.4132"/>
</g>
<!-- a5 -->
<g id="node6" class="node">
<title>a5</title>
<ellipse fill="#ffffff" stroke="#ffffff" cx="128" cy="-178" rx="112.3693" ry="18"/>
<text text-anchor="middle" x="128" y="-175.5" font-family="Courier,monospace" font-size="10.00" fill="#000000">xclCloseContext(UUID_X, CU_0)</text>
</g>
<!-- a4&#45;&gt;a5 -->
<g id="edge5" class="edge">
<title>a4&#45;&gt;a5</title>
<path fill="none" stroke="#000000" d="M128,-231.8314C128,-224.131 128,-214.9743 128,-206.4166"/>
<polygon fill="#000000" stroke="#000000" points="131.5001,-206.4132 128,-196.4133 124.5001,-206.4133 131.5001,-206.4132"/>
</g>
<!-- a6 -->
<g id="node7" class="node">
<title>a6</title>
<ellipse fill="#ffffff" stroke="#ffffff" cx="128" cy="-106" rx="45.1548" ry="18"/>
<text text-anchor="middle" x="128" y="-103.5" font-family="Courier,monospace" font-size="10.00" fill="#000000">xclclose()</text>
</g>
<!-- a5&#45;&gt;a6 -->
<g id="edge6" class="edge">
<title>a5&#45;&gt;a6</title>
<path fill="none" stroke="#000000" d="M128,-159.8314C128,-152.131 128,-142.9743 128,-134.4166"/>
<polygon fill="#000000" stroke="#000000" points="131.5001,-134.4132 128,-124.4133 124.5001,-134.4133 131.5001,-134.4132"/>
</g>
<!-- b0 -->
<g id="node8" class="node">
<title>b0</title>
<ellipse fill="#ffffff" stroke="#ffffff" cx="376" cy="-538" rx="41.5911" ry="18"/>
<text text-anchor="middle" x="376" y="-535.5" font-family="Courier,monospace" font-size="10.00" fill="#000000">xclOpen()</text>
</g>
<!-- b7 -->
<g id="node14" class="node">
<title>b7</title>
<ellipse fill="#ffffff" stroke="#ffffff" cx="376" cy="-466" rx="27" ry="18"/>
<text text-anchor="middle" x="376" y="-463.5" font-family="Courier,monospace" font-size="10.00" fill="#000000">NOP</text>
</g>
<!-- b0&#45;&gt;b7 -->
<g id="edge7" class="edge">
<title>b0&#45;&gt;b7</title>
<path fill="none" stroke="#000000" d="M376,-519.8314C376,-512.131 376,-502.9743 376,-494.4166"/>
<polygon fill="#000000" stroke="#000000" points="379.5001,-494.4132 376,-484.4133 372.5001,-494.4133 379.5001,-494.4132"/>
</g>
<!-- b2 -->
<g id="node9" class="node">
<title>b2</title>
<ellipse fill="#ffffff" stroke="#ffffff" cx="376" cy="-394" rx="108.8054" ry="18"/>
<text text-anchor="middle" x="376" y="-391.5" font-family="Courier,monospace" font-size="10.00" fill="#000000">xclOpenContext(UUID_X, CU_0)</text>
</g>
<!-- b3 -->
<g id="node10" class="node">
<title>b3</title>
<ellipse fill="#ffffff" stroke="#ffffff" cx="376" cy="-322" rx="66.5378" ry="18"/>
<text text-anchor="middle" x="376" y="-319.5" font-family="Courier,monospace" font-size="10.00" fill="#000000">xclExecBuf(CU_0)</text>
</g>
<!-- b2&#45;&gt;b3 -->
<g id="edge9" class="edge">
<title>b2&#45;&gt;b3</title>
<path fill="none" stroke="#000000" d="M376,-375.8314C376,-368.131 376,-358.9743 376,-350.4166"/>
<polygon fill="#000000" stroke="#000000" points="379.5001,-350.4132 376,-340.4133 372.5001,-350.4133 379.5001,-350.4132"/>
</g>
<!-- b4 -->
<g id="node11" class="node">
<title>b4</title>
<ellipse fill="#ffffff" stroke="#ffffff" cx="376" cy="-250" rx="55.8461" ry="18"/>
<text text-anchor="middle" x="376" y="-247.5" font-family="Courier,monospace" font-size="10.00" fill="#000000">xclExecWait()</text>
</g>
<!-- b3&#45;&gt;b4 -->
<g id="edge10" class="edge">
<title>b3&#45;&gt;b4</title>
<path fill="none" stroke="#000000" d="M376,-303.8314C376,-296.131 376,-286.9743 376,-278.4166"/>
<polygon fill="#000000" stroke="#000000" points="379.5001,-278.4132 376,-268.4133 372.5001,-278.4133 379.5001,-278.4132"/>
</g>
<!-- b5 -->
<g id="node12" class="node">
<title>b5</title>
<ellipse fill="#ffffff" stroke="#ffffff" cx="376" cy="-178" rx="112.3693" ry="18"/>
<text text-anchor="middle" x="376" y="-175.5" font-family="Courier,monospace" font-size="10.00" fill="#000000">xclCloseContext(UUID_X, CU_0)</text>
</g>
<!-- b4&#45;&gt;b5 -->
<g id="edge11" class="edge">
<title>b4&#45;&gt;b5</title>
<path fill="none" stroke="#000000" d="M376,-231.8314C376,-224.131 376,-214.9743 376,-206.4166"/>
<polygon fill="#000000" stroke="#000000" points="379.5001,-206.4132 376,-196.4133 372.5001,-206.4133 379.5001,-206.4132"/>
</g>
<!-- b6 -->
<g id="node13" class="node">
<title>b6</title>
<ellipse fill="#ffffff" stroke="#ffffff" cx="376" cy="-106" rx="45.1548" ry="18"/>
<text text-anchor="middle" x="376" y="-103.5" font-family="Courier,monospace" font-size="10.00" fill="#000000">xclclose()</text>
</g>
<!-- b5&#45;&gt;b6 -->
<g id="edge12" class="edge">
<title>b5&#45;&gt;b6</title>
<path fill="none" stroke="#000000" d="M376,-159.8314C376,-152.131 376,-142.9743 376,-134.4166"/>
<polygon fill="#000000" stroke="#000000" points="379.5001,-134.4132 376,-124.4133 372.5001,-134.4133 379.5001,-134.4132"/>
</g>
<!-- b7&#45;&gt;b2 -->
<g id="edge8" class="edge">
<title>b7&#45;&gt;b2</title>
<path fill="none" stroke="#000000" d="M376,-447.8314C376,-440.131 376,-430.9743 376,-422.4166"/>
<polygon fill="#000000" stroke="#000000" points="379.5001,-422.4132 376,-412.4133 372.5001,-422.4133 379.5001,-422.4132"/>
</g>
<!-- c0 -->
<g id="node15" class="node">
<title>c0</title>
<ellipse fill="#ffffff" stroke="#ffffff" cx="624" cy="-538" rx="41.5911" ry="18"/>
<text text-anchor="middle" x="624" y="-535.5" font-family="Courier,monospace" font-size="10.00" fill="#000000">xclOpen()</text>
</g>
<!-- c7 -->
<g id="node21" class="node">
<title>c7</title>
<ellipse fill="#ffffff" stroke="#ffffff" cx="624" cy="-466" rx="27" ry="18"/>
<text text-anchor="middle" x="624" y="-463.5" font-family="Courier,monospace" font-size="10.00" fill="#000000">NOP</text>
</g>
<!-- c0&#45;&gt;c7 -->
<g id="edge13" class="edge">
<title>c0&#45;&gt;c7</title>
<path fill="none" stroke="#000000" d="M624,-519.8314C624,-512.131 624,-502.9743 624,-494.4166"/>
<polygon fill="#000000" stroke="#000000" points="627.5001,-494.4132 624,-484.4133 620.5001,-494.4133 627.5001,-494.4132"/>
</g>
<!-- c2 -->
<g id="node16" class="node">
<title>c2</title>
<ellipse fill="#ffffff" stroke="#ffffff" cx="624" cy="-394" rx="108.8054" ry="18"/>
<text text-anchor="middle" x="624" y="-391.5" font-family="Courier,monospace" font-size="10.00" fill="#000000">xclOpenContext(UUID_X, CU_1)</text>
</g>
<!-- c3 -->
<g id="node17" class="node">
<title>c3</title>
<ellipse fill="#ffffff" stroke="#ffffff" cx="624" cy="-322" rx="66.5378" ry="18"/>
<text text-anchor="middle" x="624" y="-319.5" font-family="Courier,monospace" font-size="10.00" fill="#000000">xclExecBuf(CU_1)</text>
</g>
<!-- c2&#45;&gt;c3 -->
<g id="edge15" class="edge">
<title>c2&#45;&gt;c3</title>
<path fill="none" stroke="#000000" d="M624,-375.8314C624,-368.131 624,-358.9743 624,-350.4166"/>
<polygon fill="#000000" stroke="#000000" points="627.5001,-350.4132 624,-340.4133 620.5001,-350.4133 627.5001,-350.4132"/>
</g>
<!-- c4 -->
<g id="node18" class="node">
<title>c4</title>
<ellipse fill="#ffffff" stroke="#ffffff" cx="624" cy="-250" rx="55.8461" ry="18"/>
<text text-anchor="middle" x="624" y="-247.5" font-family="Courier,monospace" font-size="10.00" fill="#000000">xclExecWait()</text>
</g>
<!-- c3&#45;&gt;c4 -->
<g id="edge16" class="edge">
<title>c3&#45;&gt;c4</title>
<path fill="none" stroke="#000000" d="M624,-303.8314C624,-296.131 624,-286.9743 624,-278.4166"/>
<polygon fill="#000000" stroke="#000000" points="627.5001,-278.4132 624,-268.4133 620.5001,-278.4133 627.5001,-278.4132"/>
</g>
<!-- c5 -->
<g id="node19" class="node">
<title>c5</title>
<ellipse fill="#ffffff" stroke="#ffffff" cx="624" cy="-178" rx="112.3693" ry="18"/>
<text text-anchor="middle" x="624" y="-175.5" font-family="Courier,monospace" font-size="10.00" fill="#000000">xclCloseContext(UUID_X, CU_1)</text>
</g>
<!-- c4&#45;&gt;c5 -->
<g id="edge17" class="edge">
<title>c4&#45;&gt;c5</title>
<path fill="none" stroke="#000000" d="M624,-231.8314C624,-224.131 624,-214.9743 624,-206.4166"/>
<polygon fill="#000000" stroke="#000000" points="627.5001,-206.4132 624,-196.4133 620.5001,-206.4133 627.5001,-206.4132"/>
</g>
<!-- c6 -->
<g id="node20" class="node">
<title>c6</title>
<ellipse fill="#ffffff" stroke="#ffffff" cx="624" cy="-106" rx="45.1548" ry="18"/>
<text text-anchor="middle" x="624" y="-103.5" font-family="Courier,monospace" font-size="10.00" fill="#000000">xclclose()</text>
</g>
<!-- c5&#45;&gt;c6 -->
<g id="edge18" class="edge">
<title>c5&#45;&gt;c6</title>
<path fill="none" stroke="#000000" d="M624,-159.8314C624,-152.131 624,-142.9743 624,-134.4166"/>
<polygon fill="#000000" stroke="#000000" points="627.5001,-134.4132 624,-124.4133 620.5001,-134.4133 627.5001,-134.4132"/>
</g>
<!-- c7&#45;&gt;c2 -->
<g id="edge14" class="edge">
<title>c7&#45;&gt;c2</title>
<path fill="none" stroke="#000000" d="M624,-447.8314C624,-440.131 624,-430.9743 624,-422.4166"/>
<polygon fill="#000000" stroke="#000000" points="627.5001,-422.4132 624,-412.4133 620.5001,-422.4133 627.5001,-422.4132"/>
</g>
<!-- d0 -->
<g id="node22" class="node">
<title>d0</title>
<ellipse fill="#ffffff" stroke="#ffffff" cx="872" cy="-538" rx="41.5911" ry="18"/>
<text text-anchor="middle" x="872" y="-535.5" font-family="Courier,monospace" font-size="10.00" fill="#000000">xclOpen()</text>
</g>
<!-- d1 -->
<g id="node23" class="node">
<title>d1</title>
<ellipse fill="#ffffff" stroke="#ffffff" cx="872" cy="-466" rx="84.358" ry="18"/>
<text text-anchor="middle" x="872" y="-463.5" font-family="Courier,monospace" font-size="10.00" fill="#000000">xclLoadXclBin(UUID_X)</text>
</g>
<!-- d0&#45;&gt;d1 -->
<g id="edge19" class="edge">
<title>d0&#45;&gt;d1</title>
<path fill="none" stroke="#000000" d="M872,-519.8314C872,-512.131 872,-502.9743 872,-494.4166"/>
<polygon fill="#000000" stroke="#000000" points="875.5001,-494.4132 872,-484.4133 868.5001,-494.4133 875.5001,-494.4132"/>
</g>
<!-- d2 -->
<g id="node24" class="node">
<title>d2</title>
<ellipse fill="#ffffff" stroke="#ffffff" cx="872" cy="-394" rx="108.8054" ry="18"/>
<text text-anchor="middle" x="872" y="-391.5" font-family="Courier,monospace" font-size="10.00" fill="#000000">xclOpenContext(UUID_X, CU_0)</text>
</g>
<!-- d1&#45;&gt;d2 -->
<g id="edge20" class="edge">
<title>d1&#45;&gt;d2</title>
<path fill="none" stroke="#000000" d="M872,-447.8314C872,-440.131 872,-430.9743 872,-422.4166"/>
<polygon fill="#000000" stroke="#000000" points="875.5001,-422.4132 872,-412.4133 868.5001,-422.4133 875.5001,-422.4132"/>
</g>
<!-- d3 -->
<g id="node25" class="node">
<title>d3</title>
<ellipse fill="#ffffff" stroke="#ffffff" cx="872" cy="-322" rx="66.5378" ry="18"/>
<text text-anchor="middle" x="872" y="-319.5" font-family="Courier,monospace" font-size="10.00" fill="#000000">xclExecBuf(CU_0)</text>
</g>
<!-- d2&#45;&gt;d3 -->
<g id="edge21" class="edge">
<title>d2&#45;&gt;d3</title>
<path fill="none" stroke="#000000" d="M872,-375.8314C872,-368.131 872,-358.9743 872,-350.4166"/>
<polygon fill="#000000" stroke="#000000" points="875.5001,-350.4132 872,-340.4133 868.5001,-350.4133 875.5001,-350.4132"/>
</g>
<!-- d4 -->
<g id="node26" class="node">
<title>d4</title>
<ellipse fill="#ffffff" stroke="#ffffff" cx="872" cy="-250" rx="55.8461" ry="18"/>
<text text-anchor="middle" x="872" y="-247.5" font-family="Courier,monospace" font-size="10.00" fill="#000000">xclExecWait()</text>
</g>
<!-- d3&#45;&gt;d4 -->
<g id="edge22" class="edge">
<title>d3&#45;&gt;d4</title>
<path fill="none" stroke="#000000" d="M872,-303.8314C872,-296.131 872,-286.9743 872,-278.4166"/>
<polygon fill="#000000" stroke="#000000" points="875.5001,-278.4132 872,-268.4133 868.5001,-278.4133 875.5001,-278.4132"/>
</g>
<!-- d5 -->
<g id="node27" class="node">
<title>d5</title>
<ellipse fill="#ffffff" stroke="#ffffff" cx="872" cy="-178" rx="112.3693" ry="18"/>
<text text-anchor="middle" x="872" y="-175.5" font-family="Courier,monospace" font-size="10.00" fill="#000000">xclCloseContext(UUID_X, CU_0)</text>
</g>
<!-- d4&#45;&gt;d5 -->
<g id="edge23" class="edge">
<title>d4&#45;&gt;d5</title>
<path fill="none" stroke="#000000" d="M872,-231.8314C872,-224.131 872,-214.9743 872,-206.4166"/>
<polygon fill="#000000" stroke="#000000" points="875.5001,-206.4132 872,-196.4133 868.5001,-206.4133 875.5001,-206.4132"/>
</g>
<!-- d6 -->
<g id="node28" class="node">
<title>d6</title>
<ellipse fill="#ffffff" stroke="#ffffff" cx="872" cy="-106" rx="45.1548" ry="18"/>
<text text-anchor="middle" x="872" y="-103.5" font-family="Courier,monospace" font-size="10.00" fill="#000000">xclclose()</text>
</g>
<!-- d5&#45;&gt;d6 -->
<g id="edge24" class="edge">
<title>d5&#45;&gt;d6</title>
<path fill="none" stroke="#000000" d="M872,-159.8314C872,-152.131 872,-142.9743 872,-134.4166"/>
<polygon fill="#000000" stroke="#000000" points="875.5001,-134.4132 872,-124.4133 868.5001,-134.4133 875.5001,-134.4132"/>
</g>
<!-- e0 -->
<g id="node29" class="node">
<title>e0</title>
<ellipse fill="#ffffff" stroke="#ffffff" cx="1120" cy="-538" rx="41.5911" ry="18"/>
<text text-anchor="middle" x="1120" y="-535.5" font-family="Courier,monospace" font-size="10.00" fill="#000000">xclOpen()</text>
</g>
<!-- e7 -->
<g id="node36" class="node">
<title>e7</title>
<ellipse fill="#ffffff" stroke="#ffffff" cx="1120" cy="-466" rx="27" ry="18"/>
<text text-anchor="middle" x="1120" y="-463.5" font-family="Courier,monospace" font-size="10.00" fill="#000000">NOP</text>
</g>
<!-- e0&#45;&gt;e7 -->
<g id="edge25" class="edge">
<title>e0&#45;&gt;e7</title>
<path fill="none" stroke="#000000" d="M1120,-519.8314C1120,-512.131 1120,-502.9743 1120,-494.4166"/>
<polygon fill="#000000" stroke="#000000" points="1123.5001,-494.4132 1120,-484.4133 1116.5001,-494.4133 1123.5001,-494.4132"/>
</g>
<!-- e1 -->
<g id="node30" class="node">
<title>e1</title>
<ellipse fill="#ffffff" stroke="#ffffff" cx="1120" cy="-394" rx="84.358" ry="18"/>
<text text-anchor="middle" x="1120" y="-391.5" font-family="Courier,monospace" font-size="10.00" fill="#000000">xclLoadXclBin(UUID_X)</text>
</g>
<!-- e2 -->
<g id="node31" class="node">
<title>e2</title>
<ellipse fill="#ffffff" stroke="#ffffff" cx="1120" cy="-322" rx="108.8054" ry="18"/>
<text text-anchor="middle" x="1120" y="-319.5" font-family="Courier,monospace" font-size="10.00" fill="#000000">xclOpenContext(UUID_X, CU_1)</text>
</g>
<!-- e1&#45;&gt;e2 -->
<g id="edge27" class="edge">
<title>e1&#45;&gt;e2</title>
<path fill="none" stroke="#000000" d="M1120,-375.8314C1120,-368.131 1120,-358.9743 1120,-350.4166"/>
<polygon fill="#000000" stroke="#000000" points="1123.5001,-350.4132 1120,-340.4133 1116.5001,-350.4133 1123.5001,-350.4132"/>
</g>
<!-- e3 -->
<g id="node32" class="node">
<title>e3</title>
<ellipse fill="#ffffff" stroke="#ffffff" cx="1120" cy="-250" rx="66.5378" ry="18"/>
<text text-anchor="middle" x="1120" y="-247.5" font-family="Courier,monospace" font-size="10.00" fill="#000000">xclExecBuf(CU_1)</text>
</g>
<!-- e2&#45;&gt;e3 -->
<g id="edge28" class="edge">
<title>e2&#45;&gt;e3</title>
<path fill="none" stroke="#000000" d="M1120,-303.8314C1120,-296.131 1120,-286.9743 1120,-278.4166"/>
<polygon fill="#000000" stroke="#000000" points="1123.5001,-278.4132 1120,-268.4133 1116.5001,-278.4133 1123.5001,-278.4132"/>
</g>
<!-- e4 -->
<g id="node33" class="node">
<title>e4</title>
<ellipse fill="#ffffff" stroke="#ffffff" cx="1120" cy="-178" rx="55.8461" ry="18"/>
<text text-anchor="middle" x="1120" y="-175.5" font-family="Courier,monospace" font-size="10.00" fill="#000000">xclExecWait()</text>
</g>
<!-- e3&#45;&gt;e4 -->
<g id="edge29" class="edge">
<title>e3&#45;&gt;e4</title>
<path fill="none" stroke="#000000" d="M1120,-231.8314C1120,-224.131 1120,-214.9743 1120,-206.4166"/>
<polygon fill="#000000" stroke="#000000" points="1123.5001,-206.4132 1120,-196.4133 1116.5001,-206.4133 1123.5001,-206.4132"/>
</g>
<!-- e5 -->
<g id="node34" class="node">
<title>e5</title>
<ellipse fill="#ffffff" stroke="#ffffff" cx="1120" cy="-106" rx="112.3693" ry="18"/>
<text text-anchor="middle" x="1120" y="-103.5" font-family="Courier,monospace" font-size="10.00" fill="#000000">xclCloseContext(UUID_X, CU_1)</text>
</g>
<!-- e4&#45;&gt;e5 -->
<g id="edge30" class="edge">
<title>e4&#45;&gt;e5</title>
<path fill="none" stroke="#000000" d="M1120,-159.8314C1120,-152.131 1120,-142.9743 1120,-134.4166"/>
<polygon fill="#000000" stroke="#000000" points="1123.5001,-134.4132 1120,-124.4133 1116.5001,-134.4133 1123.5001,-134.4132"/>
</g>
<!-- e6 -->
<g id="node35" class="node">
<title>e6</title>
<ellipse fill="#ffffff" stroke="#ffffff" cx="1120" cy="-34" rx="45.1548" ry="18"/>
<text text-anchor="middle" x="1120" y="-31.5" font-family="Courier,monospace" font-size="10.00" fill="#000000">xclclose()</text>
</g>
<!-- e5&#45;&gt;e6 -->
<g id="edge31" class="edge">
<title>e5&#45;&gt;e6</title>
<path fill="none" stroke="#000000" d="M1120,-87.8314C1120,-80.131 1120,-70.9743 1120,-62.4166"/>
<polygon fill="#000000" stroke="#000000" points="1123.5001,-62.4132 1120,-52.4133 1116.5001,-62.4133 1123.5001,-62.4132"/>
</g>
<!-- e7&#45;&gt;e1 -->
<g id="edge26" class="edge">
<title>e7&#45;&gt;e1</title>
<path fill="none" stroke="#000000" d="M1120,-447.8314C1120,-440.131 1120,-430.9743 1120,-422.4166"/>
<polygon fill="#000000" stroke="#000000" points="1123.5001,-422.4132 1120,-412.4133 1116.5001,-422.4133 1123.5001,-422.4132"/>
</g>
<!-- f0 -->
<g id="node37" class="node">
<title>f0</title>
<ellipse fill="#ffffff" stroke="#ffffff" cx="1340" cy="-538" rx="41.5911" ry="18"/>
<text text-anchor="middle" x="1340" y="-535.5" font-family="Courier,monospace" font-size="10.00" fill="#000000">xclOpen()</text>
</g>
<!-- f7 -->
<g id="node39" class="node">
<title>f7</title>
<ellipse fill="#ffffff" stroke="#ffffff" cx="1340" cy="-466" rx="27" ry="18"/>
<text text-anchor="middle" x="1340" y="-463.5" font-family="Courier,monospace" font-size="10.00" fill="#000000">NOP</text>
</g>
<!-- f0&#45;&gt;f7 -->
<g id="edge32" class="edge">
<title>f0&#45;&gt;f7</title>
<path fill="none" stroke="#000000" d="M1340,-519.8314C1340,-512.131 1340,-502.9743 1340,-494.4166"/>
<polygon fill="#000000" stroke="#000000" points="1343.5001,-494.4132 1340,-484.4133 1336.5001,-494.4133 1343.5001,-494.4132"/>
</g>
<!-- f1 -->
<g id="node38" class="node">
<title>f1</title>
<ellipse fill="#ffffff" stroke="#ffffff" cx="1340" cy="-394" rx="84.358" ry="18"/>
<text text-anchor="middle" x="1340" y="-391.5" font-family="Courier,monospace" font-size="10.00" fill="#000000">xclLoadXclBin(UUID_Y)</text>
</g>
<!-- f3 -->
<g id="node40" class="node">
<title>f3</title>
<ellipse fill="#ffffff" stroke="#ffffff" cx="1340" cy="-322" rx="45.1548" ry="18"/>
<text text-anchor="middle" x="1340" y="-319.5" font-family="Courier,monospace" font-size="10.00" fill="#000000">xclclose()</text>
</g>
<!-- f1&#45;&gt;f3 -->
<g id="edge34" class="edge">
<title>f1&#45;&gt;f3</title>
<path fill="none" stroke="#000000" d="M1340,-375.8314C1340,-368.131 1340,-358.9743 1340,-350.4166"/>
<polygon fill="#000000" stroke="#000000" points="1343.5001,-350.4132 1340,-340.4133 1336.5001,-350.4133 1343.5001,-350.4132"/>
</g>
<!-- f7&#45;&gt;f1 -->
<g id="edge33" class="edge">
<title>f7&#45;&gt;f1</title>
<path fill="none" stroke="#000000" d="M1340,-447.8314C1340,-440.131 1340,-430.9743 1340,-422.4166"/>
<polygon fill="#000000" stroke="#000000" points="1343.5001,-422.4132 1340,-412.4133 1336.5001,-422.4133 1343.5001,-422.4132"/>
</g>
<!-- g0 -->
<g id="node41" class="node">
<title>g0</title>
<ellipse fill="#ffffff" stroke="#ffffff" cx="1557" cy="-538" rx="41.5911" ry="18"/>
<text text-anchor="middle" x="1557" y="-535.5" font-family="Courier,monospace" font-size="10.00" fill="#000000">xclOpen()</text>
</g>
<!-- g7 -->
<g id="node44" class="node">
<title>g7</title>
<ellipse fill="#ffffff" stroke="#ffffff" cx="1557" cy="-466" rx="27" ry="18"/>
<text text-anchor="middle" x="1557" y="-463.5" font-family="Courier,monospace" font-size="10.00" fill="#000000">NOP</text>
</g>
<!-- g0&#45;&gt;g7 -->
<g id="edge35" class="edge">
<title>g0&#45;&gt;g7</title>
<path fill="none" stroke="#000000" d="M1557,-519.8314C1557,-512.131 1557,-502.9743 1557,-494.4166"/>
<polygon fill="#000000" stroke="#000000" points="1560.5001,-494.4132 1557,-484.4133 1553.5001,-494.4133 1560.5001,-494.4132"/>
</g>
<!-- g1 -->
<g id="node42" class="node">
<title>g1</title>
<ellipse fill="#ffffff" stroke="#ffffff" cx="1557" cy="-394" rx="84.358" ry="18"/>
<text text-anchor="middle" x="1557" y="-391.5" font-family="Courier,monospace" font-size="10.00" fill="#000000">xclLoadXclBin(UUID_X)</text>
</g>
<!-- g2 -->
<g id="node43" class="node">
<title>g2</title>
<ellipse fill="#ffffff" stroke="#ffffff" cx="1557" cy="-322" rx="108.8054" ry="18"/>
<text text-anchor="middle" x="1557" y="-319.5" font-family="Courier,monospace" font-size="10.00" fill="#000000">xclOpenContext(UUID_Y, CU_0)</text>
</g>
<!-- g1&#45;&gt;g2 -->
<g id="edge37" class="edge">
<title>g1&#45;&gt;g2</title>
<path fill="none" stroke="#000000" d="M1557,-375.8314C1557,-368.131 1557,-358.9743 1557,-350.4166"/>
<polygon fill="#000000" stroke="#000000" points="1560.5001,-350.4132 1557,-340.4133 1553.5001,-350.4133 1560.5001,-350.4132"/>
</g>
<!-- g3 -->
<g id="node45" class="node">
<title>g3</title>
<ellipse fill="#ffffff" stroke="#ffffff" cx="1557" cy="-250" rx="45.1548" ry="18"/>
<text text-anchor="middle" x="1557" y="-247.5" font-family="Courier,monospace" font-size="10.00" fill="#000000">xclclose()</text>
</g>
<!-- g2&#45;&gt;g3 -->
<g id="edge38" class="edge">
<title>g2&#45;&gt;g3</title>
<path fill="none" stroke="#000000" d="M1557,-303.8314C1557,-296.131 1557,-286.9743 1557,-278.4166"/>
<polygon fill="#000000" stroke="#000000" points="1560.5001,-278.4132 1557,-268.4133 1553.5001,-278.4133 1560.5001,-278.4132"/>
</g>
<!-- g7&#45;&gt;g1 -->
<g id="edge36" class="edge">
<title>g7&#45;&gt;g1</title>
<path fill="none" stroke="#000000" d="M1557,-447.8314C1557,-440.131 1557,-430.9743 1557,-422.4166"/>
<polygon fill="#000000" stroke="#000000" points="1560.5001,-422.4132 1557,-412.4133 1553.5001,-422.4133 1560.5001,-422.4132"/>
</g>
</g>
</svg>
