<?xml version="1.0" encoding="UTF-8" standalone="no"?>
<!DOCTYPE svg PUBLIC "-//W3C//DTD SVG 1.1//EN"
 "http://www.w3.org/Graphics/SVG/1.1/DTD/svg11.dtd">
<!-- Generated by graphviz version 2.38.0 (20140413.2041)
 -->
<!-- Title: G Pages: 1 -->
<svg width="1690pt" height="603pt"
 viewBox="0.00 0.00 1690.00 603.00" xmlns="http://www.w3.org/2000/svg" xmlns:xlink="http://www.w3.org/1999/xlink">
<g id="graph0" class="graph" transform="scale(1 1) rotate(0) translate(4 599)">
<title>G</title>
<polygon fill="white" stroke="none" points="-4,4 -4,-599 1686,-599 1686,4 -4,4"/>
<g id="clust1" class="cluster"><title>cluster_0</title>
<polygon fill="#66cdaa" stroke="#66cdaa" points="8,-80 8,-587 248,-587 248,-80 8,-80"/>
<text text-anchor="middle" x="128" y="-571.8" font-family="Times,serif" font-size="14.00">process #0</text>
</g>
<g id="clust2" class="cluster"><title>cluster_1</title>
<polygon fill="#66cdaa" stroke="#66cdaa" points="256,-80 256,-587 496,-587 496,-80 256,-80"/>
<text text-anchor="middle" x="376" y="-571.8" font-family="Times,serif" font-size="14.00">process #1</text>
</g>
<g id="clust3" class="cluster"><title>cluster_2</title>
<polygon fill="#66cdaa" stroke="#66cdaa" points="504,-80 504,-587 744,-587 744,-80 504,-80"/>
<text text-anchor="middle" x="624" y="-571.8" font-family="Times,serif" font-size="14.00">process #2</text>
</g>
<g id="clust4" class="cluster"><title>cluster_3</title>
<polygon fill="#66cdaa" stroke="#66cdaa" points="752,-80 752,-587 992,-587 992,-80 752,-80"/>
<text text-anchor="middle" x="872" y="-571.8" font-family="Times,serif" font-size="14.00">process #3</text>
</g>
<g id="clust5" class="cluster"><title>cluster_4</title>
<polygon fill="#66cdaa" stroke="#66cdaa" points="1000,-8 1000,-587 1240,-587 1240,-8 1000,-8"/>
<text text-anchor="middle" x="1120" y="-571.8" font-family="Times,serif" font-size="14.00">process #4</text>
</g>
<g id="clust6" class="cluster"><title>cluster_5</title>
<polygon fill="indianred" stroke="indianred" points="1248,-296 1248,-587 1432,-587 1432,-296 1248,-296"/>
<text text-anchor="middle" x="1340" y="-571.8" font-family="Times,serif" font-size="14.00">process #5</text>
</g>
<g id="clust7" class="cluster"><title>cluster_6</title>
<polygon fill="indianred" stroke="indianred" points="1440,-224 1440,-587 1674,-587 1674,-224 1440,-224"/>
<text text-anchor="middle" x="1557" y="-571.8" font-family="Times,serif" font-size="14.00">process #6</text>
</g>
<!-- a0 -->
<g id="node1" class="node"><title>a0</title>
<ellipse fill="white" stroke="white" cx="128" cy="-538" rx="41.5911" ry="18"/>
<text text-anchor="middle" x="128" y="-535.5" font-family="Courier,monospace" font-size="10.00">xclOpen()</text>
</g>
<!-- a1 -->
<g id="node2" class="node"><title>a1</title>
<ellipse fill="white" stroke="white" cx="128" cy="-466" rx="84.358" ry="18"/>
<text text-anchor="middle" x="128" y="-463.5" font-family="Courier,monospace" font-size="10.00">xclLoadXclBin(UUID_X)</text>
</g>
<!-- a0&#45;&gt;a1 -->
<g id="edge1" class="edge"><title>a0&#45;&gt;a1</title>
<path fill="none" stroke="black" d="M128,-519.697C128,-511.983 128,-502.712 128,-494.112"/>
<polygon fill="black" stroke="black" points="131.5,-494.104 128,-484.104 124.5,-494.104 131.5,-494.104"/>
</g>
<!-- a2 -->
<g id="node3" class="node"><title>a2</title>
<ellipse fill="white" stroke="white" cx="128" cy="-394" rx="108.805" ry="18"/>
<text text-anchor="middle" x="128" y="-391.5" font-family="Courier,monospace" font-size="10.00">xclOpenContext(UUID_X, CU_0)</text>
</g>
<!-- a1&#45;&gt;a2 -->
<g id="edge2" class="edge"><title>a1&#45;&gt;a2</title>
<path fill="none" stroke="black" d="M128,-447.697C128,-439.983 128,-430.712 128,-422.112"/>
<polygon fill="black" stroke="black" points="131.5,-422.104 128,-412.104 124.5,-422.104 131.5,-422.104"/>
</g>
<!-- a3 -->
<g id="node4" class="node"><title>a3</title>
<ellipse fill="white" stroke="white" cx="128" cy="-322" rx="66.5378" ry="18"/>
<text text-anchor="middle" x="128" y="-319.5" font-family="Courier,monospace" font-size="10.00">xclExecBuf(CU_0)</text>
</g>
<!-- a2&#45;&gt;a3 -->
<g id="edge3" class="edge"><title>a2&#45;&gt;a3</title>
<path fill="none" stroke="black" d="M128,-375.697C128,-367.983 128,-358.712 128,-350.112"/>
<polygon fill="black" stroke="black" points="131.5,-350.104 128,-340.104 124.5,-350.104 131.5,-350.104"/>
</g>
<!-- a4 -->
<g id="node5" class="node"><title>a4</title>
<ellipse fill="white" stroke="white" cx="128" cy="-250" rx="55.8461" ry="18"/>
<text text-anchor="middle" x="128" y="-247.5" font-family="Courier,monospace" font-size="10.00">xclExecWait()</text>
</g>
<!-- a3&#45;&gt;a4 -->
<g id="edge4" class="edge"><title>a3&#45;&gt;a4</title>
<path fill="none" stroke="black" d="M128,-303.697C128,-295.983 128,-286.712 128,-278.112"/>
<polygon fill="black" stroke="black" points="131.5,-278.104 128,-268.104 124.5,-278.104 131.5,-278.104"/>
</g>
<!-- a5 -->
<g id="node6" class="node"><title>a5</title>
<ellipse fill="white" stroke="white" cx="128" cy="-178" rx="112.369" ry="18"/>
<text text-anchor="middle" x="128" y="-175.5" font-family="Courier,monospace" font-size="10.00">xclCloseContext(UUID_X, CU_0)</text>
</g>
<!-- a4&#45;&gt;a5 -->
<g id="edge5" class="edge"><title>a4&#45;&gt;a5</title>
<path fill="none" stroke="black" d="M128,-231.697C128,-223.983 128,-214.712 128,-206.112"/>
<polygon fill="black" stroke="black" points="131.5,-206.104 128,-196.104 124.5,-206.104 131.5,-206.104"/>
</g>
<!-- a6 -->
<g id="node7" class="node"><title>a6</title>
<ellipse fill="white" stroke="white" cx="128" cy="-106" rx="45.1548" ry="18"/>
<text text-anchor="middle" x="128" y="-103.5" font-family="Courier,monospace" font-size="10.00">xclclose()</text>
</g>
<!-- a5&#45;&gt;a6 -->
<g id="edge6" class="edge"><title>a5&#45;&gt;a6</title>
<path fill="none" stroke="black" d="M128,-159.697C128,-151.983 128,-142.712 128,-134.112"/>
<polygon fill="black" stroke="black" points="131.5,-134.104 128,-124.104 124.5,-134.104 131.5,-134.104"/>
</g>
<!-- b0 -->
<g id="node8" class="node"><title>b0</title>
<ellipse fill="white" stroke="white" cx="376" cy="-538" rx="41.5911" ry="18"/>
<text text-anchor="middle" x="376" y="-535.5" font-family="Courier,monospace" font-size="10.00">xclOpen()</text>
</g>
<!-- b7 -->
<g id="node14" class="node"><title>b7</title>
<ellipse fill="white" stroke="white" cx="376" cy="-466" rx="27" ry="18"/>
<text text-anchor="middle" x="376" y="-463.5" font-family="Courier,monospace" font-size="10.00">NOP</text>
</g>
<!-- b0&#45;&gt;b7 -->
<g id="edge7" class="edge"><title>b0&#45;&gt;b7</title>
<path fill="none" stroke="black" d="M376,-519.697C376,-511.983 376,-502.712 376,-494.112"/>
<polygon fill="black" stroke="black" points="379.5,-494.104 376,-484.104 372.5,-494.104 379.5,-494.104"/>
</g>
<!-- b2 -->
<g id="node9" class="node"><title>b2</title>
<ellipse fill="white" stroke="white" cx="376" cy="-394" rx="108.805" ry="18"/>
<text text-anchor="middle" x="376" y="-391.5" font-family="Courier,monospace" font-size="10.00">xclOpenContext(UUID_X, CU_0)</text>
</g>
<!-- b3 -->
<g id="node10" class="node"><title>b3</title>
<ellipse fill="white" stroke="white" cx="376" cy="-322" rx="66.5378" ry="18"/>
<text text-anchor="middle" x="376" y="-319.5" font-family="Courier,monospace" font-size="10.00">xclExecBuf(CU_0)</text>
</g>
<!-- b2&#45;&gt;b3 -->
<g id="edge9" class="edge"><title>b2&#45;&gt;b3</title>
<path fill="none" stroke="black" d="M376,-375.697C376,-367.983 376,-358.712 376,-350.112"/>
<polygon fill="black" stroke="black" points="379.5,-350.104 376,-340.104 372.5,-350.104 379.5,-350.104"/>
</g>
<!-- b4 -->
<g id="node11" class="node"><title>b4</title>
<ellipse fill="white" stroke="white" cx="376" cy="-250" rx="55.8461" ry="18"/>
<text text-anchor="middle" x="376" y="-247.5" font-family="Courier,monospace" font-size="10.00">xclExecWait()</text>
</g>
<!-- b3&#45;&gt;b4 -->
<g id="edge10" class="edge"><title>b3&#45;&gt;b4</title>
<path fill="none" stroke="black" d="M376,-303.697C376,-295.983 376,-286.712 376,-278.112"/>
<polygon fill="black" stroke="black" points="379.5,-278.104 376,-268.104 372.5,-278.104 379.5,-278.104"/>
</g>
<!-- b5 -->
<g id="node12" class="node"><title>b5</title>
<ellipse fill="white" stroke="white" cx="376" cy="-178" rx="112.369" ry="18"/>
<text text-anchor="middle" x="376" y="-175.5" font-family="Courier,monospace" font-size="10.00">xclCloseContext(UUID_X, CU_0)</text>
</g>
<!-- b4&#45;&gt;b5 -->
<g id="edge11" class="edge"><title>b4&#45;&gt;b5</title>
<path fill="none" stroke="black" d="M376,-231.697C376,-223.983 376,-214.712 376,-206.112"/>
<polygon fill="black" stroke="black" points="379.5,-206.104 376,-196.104 372.5,-206.104 379.5,-206.104"/>
</g>
<!-- b6 -->
<g id="node13" class="node"><title>b6</title>
<ellipse fill="white" stroke="white" cx="376" cy="-106" rx="45.1548" ry="18"/>
<text text-anchor="middle" x="376" y="-103.5" font-family="Courier,monospace" font-size="10.00">xclclose()</text>
</g>
<!-- b5&#45;&gt;b6 -->
<g id="edge12" class="edge"><title>b5&#45;&gt;b6</title>
<path fill="none" stroke="black" d="M376,-159.697C376,-151.983 376,-142.712 376,-134.112"/>
<polygon fill="black" stroke="black" points="379.5,-134.104 376,-124.104 372.5,-134.104 379.5,-134.104"/>
</g>
<!-- b7&#45;&gt;b2 -->
<g id="edge8" class="edge"><title>b7&#45;&gt;b2</title>
<path fill="none" stroke="black" d="M376,-447.697C376,-439.983 376,-430.712 376,-422.112"/>
<polygon fill="black" stroke="black" points="379.5,-422.104 376,-412.104 372.5,-422.104 379.5,-422.104"/>
</g>
<!-- c0 -->
<g id="node15" class="node"><title>c0</title>
<ellipse fill="white" stroke="white" cx="624" cy="-538" rx="41.5911" ry="18"/>
<text text-anchor="middle" x="624" y="-535.5" font-family="Courier,monospace" font-size="10.00">xclOpen()</text>
</g>
<!-- c7 -->
<g id="node21" class="node"><title>c7</title>
<ellipse fill="white" stroke="white" cx="624" cy="-466" rx="27" ry="18"/>
<text text-anchor="middle" x="624" y="-463.5" font-family="Courier,monospace" font-size="10.00">NOP</text>
</g>
<!-- c0&#45;&gt;c7 -->
<g id="edge13" class="edge"><title>c0&#45;&gt;c7</title>
<path fill="none" stroke="black" d="M624,-519.697C624,-511.983 624,-502.712 624,-494.112"/>
<polygon fill="black" stroke="black" points="627.5,-494.104 624,-484.104 620.5,-494.104 627.5,-494.104"/>
</g>
<!-- c2 -->
<g id="node16" class="node"><title>c2</title>
<ellipse fill="white" stroke="white" cx="624" cy="-394" rx="108.805" ry="18"/>
<text text-anchor="middle" x="624" y="-391.5" font-family="Courier,monospace" font-size="10.00">xclOpenContext(UUID_X, CU_1)</text>
</g>
<!-- c3 -->
<g id="node17" class="node"><title>c3</title>
<ellipse fill="white" stroke="white" cx="624" cy="-322" rx="66.5378" ry="18"/>
<text text-anchor="middle" x="624" y="-319.5" font-family="Courier,monospace" font-size="10.00">xclExecBuf(CU_1)</text>
</g>
<!-- c2&#45;&gt;c3 -->
<g id="edge15" class="edge"><title>c2&#45;&gt;c3</title>
<path fill="none" stroke="black" d="M624,-375.697C624,-367.983 624,-358.712 624,-350.112"/>
<polygon fill="black" stroke="black" points="627.5,-350.104 624,-340.104 620.5,-350.104 627.5,-350.104"/>
</g>
<!-- c4 -->
<g id="node18" class="node"><title>c4</title>
<ellipse fill="white" stroke="white" cx="624" cy="-250" rx="55.8461" ry="18"/>
<text text-anchor="middle" x="624" y="-247.5" font-family="Courier,monospace" font-size="10.00">xclExecWait()</text>
</g>
<!-- c3&#45;&gt;c4 -->
<g id="edge16" class="edge"><title>c3&#45;&gt;c4</title>
<path fill="none" stroke="black" d="M624,-303.697C624,-295.983 624,-286.712 624,-278.112"/>
<polygon fill="black" stroke="black" points="627.5,-278.104 624,-268.104 620.5,-278.104 627.5,-278.104"/>
</g>
<!-- c5 -->
<g id="node19" class="node"><title>c5</title>
<ellipse fill="white" stroke="white" cx="624" cy="-178" rx="112.369" ry="18"/>
<text text-anchor="middle" x="624" y="-175.5" font-family="Courier,monospace" font-size="10.00">xclCloseContext(UUID_X, CU_1)</text>
</g>
<!-- c4&#45;&gt;c5 -->
<g id="edge17" class="edge"><title>c4&#45;&gt;c5</title>
<path fill="none" stroke="black" d="M624,-231.697C624,-223.983 624,-214.712 624,-206.112"/>
<polygon fill="black" stroke="black" points="627.5,-206.104 624,-196.104 620.5,-206.104 627.5,-206.104"/>
</g>
<!-- c6 -->
<g id="node20" class="node"><title>c6</title>
<ellipse fill="white" stroke="white" cx="624" cy="-106" rx="45.1548" ry="18"/>
<text text-anchor="middle" x="624" y="-103.5" font-family="Courier,monospace" font-size="10.00">xclclose()</text>
</g>
<!-- c5&#45;&gt;c6 -->
<g id="edge18" class="edge"><title>c5&#45;&gt;c6</title>
<path fill="none" stroke="black" d="M624,-159.697C624,-151.983 624,-142.712 624,-134.112"/>
<polygon fill="black" stroke="black" points="627.5,-134.104 624,-124.104 620.5,-134.104 627.5,-134.104"/>
</g>
<!-- c7&#45;&gt;c2 -->
<g id="edge14" class="edge"><title>c7&#45;&gt;c2</title>
<path fill="none" stroke="black" d="M624,-447.697C624,-439.983 624,-430.712 624,-422.112"/>
<polygon fill="black" stroke="black" points="627.5,-422.104 624,-412.104 620.5,-422.104 627.5,-422.104"/>
</g>
<!-- d0 -->
<g id="node22" class="node"><title>d0</title>
<ellipse fill="white" stroke="white" cx="872" cy="-538" rx="41.5911" ry="18"/>
<text text-anchor="middle" x="872" y="-535.5" font-family="Courier,monospace" font-size="10.00">xclOpen()</text>
</g>
<!-- d1 -->
<g id="node23" class="node"><title>d1</title>
<ellipse fill="white" stroke="white" cx="872" cy="-466" rx="84.358" ry="18"/>
<text text-anchor="middle" x="872" y="-463.5" font-family="Courier,monospace" font-size="10.00">xclLoadXclBin(UUID_X)</text>
</g>
<!-- d0&#45;&gt;d1 -->
<g id="edge19" class="edge"><title>d0&#45;&gt;d1</title>
<path fill="none" stroke="black" d="M872,-519.697C872,-511.983 872,-502.712 872,-494.112"/>
<polygon fill="black" stroke="black" points="875.5,-494.104 872,-484.104 868.5,-494.104 875.5,-494.104"/>
</g>
<!-- d2 -->
<g id="node24" class="node"><title>d2</title>
<ellipse fill="white" stroke="white" cx="872" cy="-394" rx="108.805" ry="18"/>
<text text-anchor="middle" x="872" y="-391.5" font-family="Courier,monospace" font-size="10.00">xclOpenContext(UUID_X, CU_0)</text>
</g>
<!-- d1&#45;&gt;d2 -->
<g id="edge20" class="edge"><title>d1&#45;&gt;d2</title>
<path fill="none" stroke="black" d="M872,-447.697C872,-439.983 872,-430.712 872,-422.112"/>
<polygon fill="black" stroke="black" points="875.5,-422.104 872,-412.104 868.5,-422.104 875.5,-422.104"/>
</g>
<!-- d3 -->
<g id="node25" class="node"><title>d3</title>
<ellipse fill="white" stroke="white" cx="872" cy="-322" rx="66.5378" ry="18"/>
<text text-anchor="middle" x="872" y="-319.5" font-family="Courier,monospace" font-size="10.00">xclExecBuf(CU_0)</text>
</g>
<!-- d2&#45;&gt;d3 -->
<g id="edge21" class="edge"><title>d2&#45;&gt;d3</title>
<path fill="none" stroke="black" d="M872,-375.697C872,-367.983 872,-358.712 872,-350.112"/>
<polygon fill="black" stroke="black" points="875.5,-350.104 872,-340.104 868.5,-350.104 875.5,-350.104"/>
</g>
<!-- d4 -->
<g id="node26" class="node"><title>d4</title>
<ellipse fill="white" stroke="white" cx="872" cy="-250" rx="55.8461" ry="18"/>
<text text-anchor="middle" x="872" y="-247.5" font-family="Courier,monospace" font-size="10.00">xclExecWait()</text>
</g>
<!-- d3&#45;&gt;d4 -->
<g id="edge22" class="edge"><title>d3&#45;&gt;d4</title>
<path fill="none" stroke="black" d="M872,-303.697C872,-295.983 872,-286.712 872,-278.112"/>
<polygon fill="black" stroke="black" points="875.5,-278.104 872,-268.104 868.5,-278.104 875.5,-278.104"/>
</g>
<!-- d5 -->
<g id="node27" class="node"><title>d5</title>
<ellipse fill="white" stroke="white" cx="872" cy="-178" rx="112.369" ry="18"/>
<text text-anchor="middle" x="872" y="-175.5" font-family="Courier,monospace" font-size="10.00">xclCloseContext(UUID_X, CU_0)</text>
</g>
<!-- d4&#45;&gt;d5 -->
<g id="edge23" class="edge"><title>d4&#45;&gt;d5</title>
<path fill="none" stroke="black" d="M872,-231.697C872,-223.983 872,-214.712 872,-206.112"/>
<polygon fill="black" stroke="black" points="875.5,-206.104 872,-196.104 868.5,-206.104 875.5,-206.104"/>
</g>
<!-- d6 -->
<g id="node28" class="node"><title>d6</title>
<ellipse fill="white" stroke="white" cx="872" cy="-106" rx="45.1548" ry="18"/>
<text text-anchor="middle" x="872" y="-103.5" font-family="Courier,monospace" font-size="10.00">xclclose()</text>
</g>
<!-- d5&#45;&gt;d6 -->
<g id="edge24" class="edge"><title>d5&#45;&gt;d6</title>
<path fill="none" stroke="black" d="M872,-159.697C872,-151.983 872,-142.712 872,-134.112"/>
<polygon fill="black" stroke="black" points="875.5,-134.104 872,-124.104 868.5,-134.104 875.5,-134.104"/>
</g>
<!-- e0 -->
<g id="node29" class="node"><title>e0</title>
<ellipse fill="white" stroke="white" cx="1120" cy="-538" rx="41.5911" ry="18"/>
<text text-anchor="middle" x="1120" y="-535.5" font-family="Courier,monospace" font-size="10.00">xclOpen()</text>
</g>
<!-- e7 -->
<g id="node36" class="node"><title>e7</title>
<ellipse fill="white" stroke="white" cx="1120" cy="-466" rx="27" ry="18"/>
<text text-anchor="middle" x="1120" y="-463.5" font-family="Courier,monospace" font-size="10.00">NOP</text>
</g>
<!-- e0&#45;&gt;e7 -->
<g id="edge25" class="edge"><title>e0&#45;&gt;e7</title>
<path fill="none" stroke="black" d="M1120,-519.697C1120,-511.983 1120,-502.712 1120,-494.112"/>
<polygon fill="black" stroke="black" points="1123.5,-494.104 1120,-484.104 1116.5,-494.104 1123.5,-494.104"/>
</g>
<!-- e1 -->
<g id="node30" class="node"><title>e1</title>
<ellipse fill="white" stroke="white" cx="1120" cy="-394" rx="84.358" ry="18"/>
<text text-anchor="middle" x="1120" y="-391.5" font-family="Courier,monospace" font-size="10.00">xclLoadXclBin(UUID_X)</text>
</g>
<!-- e2 -->
<g id="node31" class="node"><title>e2</title>
<ellipse fill="white" stroke="white" cx="1120" cy="-322" rx="108.805" ry="18"/>
<text text-anchor="middle" x="1120" y="-319.5" font-family="Courier,monospace" font-size="10.00">xclOpenContext(UUID_X, CU_1)</text>
</g>
<!-- e1&#45;&gt;e2 -->
<g id="edge27" class="edge"><title>e1&#45;&gt;e2</title>
<path fill="none" stroke="black" d="M1120,-375.697C1120,-367.983 1120,-358.712 1120,-350.112"/>
<polygon fill="black" stroke="black" points="1123.5,-350.104 1120,-340.104 1116.5,-350.104 1123.5,-350.104"/>
</g>
<!-- e3 -->
<g id="node32" class="node"><title>e3</title>
<ellipse fill="white" stroke="white" cx="1120" cy="-250" rx="66.5378" ry="18"/>
<text text-anchor="middle" x="1120" y="-247.5" font-family="Courier,monospace" font-size="10.00">xclExecBuf(CU_1)</text>
</g>
<!-- e2&#45;&gt;e3 -->
<g id="edge28" class="edge"><title>e2&#45;&gt;e3</title>
<path fill="none" stroke="black" d="M1120,-303.697C1120,-295.983 1120,-286.712 1120,-278.112"/>
<polygon fill="black" stroke="black" points="1123.5,-278.104 1120,-268.104 1116.5,-278.104 1123.5,-278.104"/>
</g>
<!-- e4 -->
<g id="node33" class="node"><title>e4</title>
<ellipse fill="white" stroke="white" cx="1120" cy="-178" rx="55.8461" ry="18"/>
<text text-anchor="middle" x="1120" y="-175.5" font-family="Courier,monospace" font-size="10.00">xclExecWait()</text>
</g>
<!-- e3&#45;&gt;e4 -->
<g id="edge29" class="edge"><title>e3&#45;&gt;e4</title>
<path fill="none" stroke="black" d="M1120,-231.697C1120,-223.983 1120,-214.712 1120,-206.112"/>
<polygon fill="black" stroke="black" points="1123.5,-206.104 1120,-196.104 1116.5,-206.104 1123.5,-206.104"/>
</g>
<!-- e5 -->
<g id="node34" class="node"><title>e5</title>
<ellipse fill="white" stroke="white" cx="1120" cy="-106" rx="112.369" ry="18"/>
<text text-anchor="middle" x="1120" y="-103.5" font-family="Courier,monospace" font-size="10.00">xclCloseContext(UUID_X, CU_1)</text>
</g>
<!-- e4&#45;&gt;e5 -->
<g id="edge30" class="edge"><title>e4&#45;&gt;e5</title>
<path fill="none" stroke="black" d="M1120,-159.697C1120,-151.983 1120,-142.712 1120,-134.112"/>
<polygon fill="black" stroke="black" points="1123.5,-134.104 1120,-124.104 1116.5,-134.104 1123.5,-134.104"/>
</g>
<!-- e6 -->
<g id="node35" class="node"><title>e6</title>
<ellipse fill="white" stroke="white" cx="1120" cy="-34" rx="45.1548" ry="18"/>
<text text-anchor="middle" x="1120" y="-31.5" font-family="Courier,monospace" font-size="10.00">xclclose()</text>
</g>
<!-- e5&#45;&gt;e6 -->
<g id="edge31" class="edge"><title>e5&#45;&gt;e6</title>
<path fill="none" stroke="black" d="M1120,-87.6966C1120,-79.9827 1120,-70.7125 1120,-62.1124"/>
<polygon fill="black" stroke="black" points="1123.5,-62.1043 1120,-52.1043 1116.5,-62.1044 1123.5,-62.1043"/>
</g>
<!-- e7&#45;&gt;e1 -->
<g id="edge26" class="edge"><title>e7&#45;&gt;e1</title>
<path fill="none" stroke="black" d="M1120,-447.697C1120,-439.983 1120,-430.712 1120,-422.112"/>
<polygon fill="black" stroke="black" points="1123.5,-422.104 1120,-412.104 1116.5,-422.104 1123.5,-422.104"/>
</g>
<!-- f0 -->
<g id="node37" class="node"><title>f0</title>
<ellipse fill="white" stroke="white" cx="1340" cy="-538" rx="41.5911" ry="18"/>
<text text-anchor="middle" x="1340" y="-535.5" font-family="Courier,monospace" font-size="10.00">xclOpen()</text>
</g>
<!-- f7 -->
<g id="node39" class="node"><title>f7</title>
<ellipse fill="white" stroke="white" cx="1340" cy="-466" rx="27" ry="18"/>
<text text-anchor="middle" x="1340" y="-463.5" font-family="Courier,monospace" font-size="10.00">NOP</text>
</g>
<!-- f0&#45;&gt;f7 -->
<g id="edge32" class="edge"><title>f0&#45;&gt;f7</title>
<path fill="none" stroke="black" d="M1340,-519.697C1340,-511.983 1340,-502.712 1340,-494.112"/>
<polygon fill="black" stroke="black" points="1343.5,-494.104 1340,-484.104 1336.5,-494.104 1343.5,-494.104"/>
</g>
<!-- f1 -->
<g id="node38" class="node"><title>f1</title>
<ellipse fill="white" stroke="white" cx="1340" cy="-394" rx="84.358" ry="18"/>
<text text-anchor="middle" x="1340" y="-391.5" font-family="Courier,monospace" font-size="10.00">xclLoadXclBin(UUID_Y)</text>
</g>
<!-- f3 -->
<g id="node40" class="node"><title>f3</title>
<ellipse fill="white" stroke="white" cx="1340" cy="-322" rx="45.1548" ry="18"/>
<text text-anchor="middle" x="1340" y="-319.5" font-family="Courier,monospace" font-size="10.00">xclclose()</text>
</g>
<!-- f1&#45;&gt;f3 -->
<g id="edge34" class="edge"><title>f1&#45;&gt;f3</title>
<path fill="none" stroke="black" d="M1340,-375.697C1340,-367.983 1340,-358.712 1340,-350.112"/>
<polygon fill="black" stroke="black" points="1343.5,-350.104 1340,-340.104 1336.5,-350.104 1343.5,-350.104"/>
</g>
<!-- f7&#45;&gt;f1 -->
<g id="edge33" class="edge"><title>f7&#45;&gt;f1</title>
<path fill="none" stroke="black" d="M1340,-447.697C1340,-439.983 1340,-430.712 1340,-422.112"/>
<polygon fill="black" stroke="black" points="1343.5,-422.104 1340,-412.104 1336.5,-422.104 1343.5,-422.104"/>
</g>
<!-- g0 -->
<g id="node41" class="node"><title>g0</title>
<ellipse fill="white" stroke="white" cx="1557" cy="-538" rx="41.5911" ry="18"/>
<text text-anchor="middle" x="1557" y="-535.5" font-family="Courier,monospace" font-size="10.00">xclOpen()</text>
</g>
<!-- g7 -->
<g id="node44" class="node"><title>g7</title>
<ellipse fill="white" stroke="white" cx="1557" cy="-466" rx="27" ry="18"/>
<text text-anchor="middle" x="1557" y="-463.5" font-family="Courier,monospace" font-size="10.00">NOP</text>
</g>
<!-- g0&#45;&gt;g7 -->
<g id="edge35" class="edge"><title>g0&#45;&gt;g7</title>
<path fill="none" stroke="black" d="M1557,-519.697C1557,-511.983 1557,-502.712 1557,-494.112"/>
<polygon fill="black" stroke="black" points="1560.5,-494.104 1557,-484.104 1553.5,-494.104 1560.5,-494.104"/>
</g>
<!-- g1 -->
<g id="node42" class="node"><title>g1</title>
<ellipse fill="white" stroke="white" cx="1557" cy="-394" rx="84.358" ry="18"/>
<text text-anchor="middle" x="1557" y="-391.5" font-family="Courier,monospace" font-size="10.00">xclLoadXclBin(UUID_X)</text>
</g>
<!-- g2 -->
<g id="node43" class="node"><title>g2</title>
<ellipse fill="white" stroke="white" cx="1557" cy="-322" rx="108.805" ry="18"/>
<text text-anchor="middle" x="1557" y="-319.5" font-family="Courier,monospace" font-size="10.00">xclOpenContext(UUID_Y, CU_0)</text>
</g>
<!-- g1&#45;&gt;g2 -->
<g id="edge37" class="edge"><title>g1&#45;&gt;g2</title>
<path fill="none" stroke="black" d="M1557,-375.697C1557,-367.983 1557,-358.712 1557,-350.112"/>
<polygon fill="black" stroke="black" points="1560.5,-350.104 1557,-340.104 1553.5,-350.104 1560.5,-350.104"/>
</g>
<!-- g3 -->
<g id="node45" class="node"><title>g3</title>
<ellipse fill="white" stroke="white" cx="1557" cy="-250" rx="45.1548" ry="18"/>
<text text-anchor="middle" x="1557" y="-247.5" font-family="Courier,monospace" font-size="10.00">xclclose()</text>
</g>
<!-- g2&#45;&gt;g3 -->
<g id="edge38" class="edge"><title>g2&#45;&gt;g3</title>
<path fill="none" stroke="black" d="M1557,-303.697C1557,-295.983 1557,-286.712 1557,-278.112"/>
<polygon fill="black" stroke="black" points="1560.5,-278.104 1557,-268.104 1553.5,-278.104 1560.5,-278.104"/>
</g>
<!-- g7&#45;&gt;g1 -->
<g id="edge36" class="edge"><title>g7&#45;&gt;g1</title>
<path fill="none" stroke="black" d="M1557,-447.697C1557,-439.983 1557,-430.712 1557,-422.112"/>
<polygon fill="black" stroke="black" points="1560.5,-422.104 1557,-412.104 1553.5,-422.104 1560.5,-422.104"/>
</g>
</g>
</svg>
