<svg width="1280" height="720" xmlns="http://www.w3.org/2000/svg" xmlns:xlink="http://www.w3.org/1999/xlink" overflow="hidden"><defs><linearGradient x1="317.138" y1="384.043" x2="317.138" y2="406.443" gradientUnits="userSpaceOnUse" spreadMethod="reflect" id="fill0"><stop offset="0" stop-color="#FFFFFF"/><stop offset="1" stop-color="#FFFFFF"/></linearGradient><linearGradient x1="258.557" y1="236.188" x2="258.557" y2="258.588" gradientUnits="userSpaceOnUse" spreadMethod="reflect" id="fill1"><stop offset="0" stop-color="#FFFFFF"/><stop offset="1" stop-color="#FFFFFF"/></linearGradient><linearGradient x1="251.143" y1="318.192" x2="251.143" y2="340.592" gradientUnits="userSpaceOnUse" spreadMethod="reflect" id="fill2"><stop offset="0" stop-color="#FFFFFF"/><stop offset="1" stop-color="#FFFFFF"/></linearGradient><linearGradient x1="134.027" y1="317.519" x2="134.027" y2="339.919" gradientUnits="userSpaceOnUse" spreadMethod="reflect" id="fill3"><stop offset="0" stop-color="#FFFFFF"/><stop offset="1" stop-color="#FFFFFF"/></linearGradient><linearGradient x1="377.973" y1="318.499" x2="377.973" y2="340.899" gradientUnits="userSpaceOnUse" spreadMethod="reflect" id="fill4"><stop offset="0" stop-color="#FFFFFF"/><stop offset="1" stop-color="#FFFFFF"/></linearGradient><linearGradient x1="194.069" y1="455.662" x2="194.069" y2="478.062" gradientUnits="userSpaceOnUse" spreadMethod="reflect" id="fill5"><stop offset="0" stop-color="#FFFFFF"/><stop offset="1" stop-color="#FFFFFF"/></linearGradient><linearGradient x1="194.069" y1="527.28" x2="194.069" y2="549.68" gradientUnits="userSpaceOnUse" spreadMethod="reflect" id="fill6"><stop offset="0" stop-color="#FFFFFF"/><stop offset="1" stop-color="#FFFFFF"/></linearGradient><linearGradient x1="317.137" y1="598.898" x2="317.137" y2="621.298" gradientUnits="userSpaceOnUse" spreadMethod="reflect" id="fill7"><stop offset="0" stop-color="#FFFFFF"/><stop offset="1" stop-color="#FFFFFF"/></linearGradient><linearGradient x1="440.206" y1="454.955" x2="440.206" y2="477.355" gradientUnits="userSpaceOnUse" spreadMethod="reflect" id="fill8"><stop offset="0" stop-color="#FFFFFF"/><stop offset="1" stop-color="#FFFFFF"/></linearGradient><linearGradient x1="440.206" y1="527.606" x2="440.206" y2="550.006" gradientUnits="userSpaceOnUse" spreadMethod="reflect" id="fill9"><stop offset="0" stop-color="#FFFFFF"/><stop offset="1" stop-color="#FFFFFF"/></linearGradient><linearGradient x1="504.562" y1="317.709" x2="504.562" y2="340.109" gradientUnits="userSpaceOnUse" spreadMethod="reflect" id="fill10"><stop offset="0" stop-color="#FFFFFF"/><stop offset="1" stop-color="#FFFFFF"/></linearGradient><linearGradient x1="504.562" y1="317.709" x2="504.562" y2="340.109" gradientUnits="userSpaceOnUse" spreadMethod="reflect" id="fill11"><stop offset="0" stop-color="#FFFFFF"/><stop offset="1" stop-color="#FFFFFF"/></linearGradient><linearGradient x1="504.562" y1="317.709" x2="504.562" y2="340.109" gradientUnits="userSpaceOnUse" spreadMethod="reflect" id="fill12"><stop offset="0" stop-color="#FFFFFF"/><stop offset="1" stop-color="#FFFFFF"/></linearGradient></defs><g><rect x="0" y="0" width="1280" height="720" fill="#000000" fill-opacity="0"/><rect x="74" y="361" width="486" height="68" fill="#0B3041"/><path d="M368.647 396.933C367.371 396.939 366.478 397.059 365.967 397.293 365.457 397.527 365.202 397.905 365.202 398.428 365.202 398.804 365.319 399.084 365.553 399.266 365.787 399.448 366.089 399.54 366.46 399.54 366.915 399.54 367.336 399.421 367.722 399.184 368.108 398.947 368.416 398.677 368.647 398.373ZM302.647 396.933C301.371 396.939 300.478 397.059 299.967 397.293 299.457 397.527 299.202 397.905 299.202 398.428 299.202 398.804 299.319 399.084 299.553 399.266 299.787 399.448 300.089 399.54 300.46 399.54 300.915 399.54 301.336 399.421 301.722 399.184 302.108 398.947 302.416 398.677 302.647 398.373ZM290.9 393.843C290.353 393.843 289.885 393.996 289.496 394.303 289.107 394.61 288.828 394.946 288.657 395.31L288.657 397.935C288.852 398.324 289.124 398.658 289.473 398.938 289.823 399.217 290.234 399.357 290.708 399.357 291.316 399.357 291.781 399.123 292.103 398.655 292.425 398.188 292.586 397.51 292.586 396.623 292.586 395.681 292.435 394.982 292.135 394.527 291.834 394.071 291.422 393.843 290.9 393.843ZM350.808 393.825C350.31 393.825 349.874 393.974 349.5 394.271 349.127 394.569 348.846 394.918 348.657 395.319L348.657 397.926C348.834 398.309 349.096 398.643 349.446 398.929 349.795 399.214 350.216 399.357 350.708 399.357 351.298 399.357 351.758 399.126 352.089 398.665 352.42 398.203 352.586 397.531 352.586 396.65 352.586 395.696 352.429 394.987 352.116 394.522 351.803 394.057 351.367 393.825 350.808 393.825ZM389.189 393.688C388.63 393.688 388.172 393.846 387.817 394.162 387.461 394.478 387.265 394.937 387.229 395.538L391.084 395.538C391.066 394.918 390.882 394.455 390.533 394.148 390.184 393.841 389.736 393.688 389.189 393.688ZM321.189 393.688C320.63 393.688 320.172 393.846 319.817 394.162 319.461 394.478 319.265 394.937 319.229 395.538L323.084 395.538C323.066 394.918 322.882 394.455 322.533 394.148 322.184 393.841 321.736 393.688 321.189 393.688ZM258.189 393.688C257.63 393.688 257.172 393.846 256.817 394.162 256.461 394.478 256.265 394.937 256.229 395.538L260.085 395.538C260.066 394.918 259.882 394.455 259.533 394.148 259.184 393.841 258.736 393.688 258.189 393.688ZM380.242 392.148 382.657 392.148 382.657 401.043 380.242 401.043ZM341.242 392.148 343.657 392.148 343.657 401.043 341.242 401.043ZM379.319 392.029 379.501 392.029 379.501 394.062 379.273 394.062C378.915 394.062 378.571 394.094 378.243 394.157 377.915 394.221 377.617 394.331 377.35 394.486 377.083 394.64 376.852 394.855 376.657 395.128L376.657 401.043 374.242 401.043 374.242 392.148 376.557 392.148 376.603 393.688C376.834 393.153 377.18 392.743 377.642 392.458 378.104 392.172 378.663 392.029 379.319 392.029ZM362.319 392.029 362.501 392.029 362.501 394.062 362.273 394.062C361.915 394.062 361.571 394.094 361.243 394.157 360.915 394.221 360.617 394.331 360.35 394.486 360.083 394.64 359.852 394.855 359.657 395.128L359.657 401.043 357.242 401.043 357.242 392.148 359.557 392.148 359.603 393.688C359.834 393.153 360.18 392.743 360.642 392.458 361.104 392.172 361.663 392.029 362.319 392.029ZM269.319 392.029 269.501 392.029 269.501 394.062 269.273 394.062C268.915 394.062 268.571 394.094 268.243 394.157 267.915 394.221 267.617 394.331 267.35 394.486 267.083 394.64 266.852 394.855 266.657 395.128L266.657 401.043 264.242 401.043 264.242 392.148 266.557 392.148 266.603 393.688C266.834 393.153 267.18 392.743 267.642 392.458 268.104 392.172 268.663 392.029 269.319 392.029ZM389.189 392.011C390.513 392.011 391.56 392.398 392.329 393.173 393.097 393.948 393.482 395.052 393.482 396.486 393.482 396.559 393.479 396.658 393.473 396.782 393.466 396.907 393.457 397.003 393.445 397.069L387.202 397.069C387.214 397.489 387.291 397.881 387.434 398.245 387.577 398.61 387.803 398.903 388.113 399.125 388.423 399.347 388.83 399.458 389.334 399.458 389.857 399.458 390.276 399.344 390.592 399.116 390.908 398.888 391.069 398.549 391.075 398.099L393.454 398.099C393.424 398.792 393.234 399.369 392.885 399.831 392.535 400.293 392.058 400.638 391.454 400.866 390.849 401.094 390.143 401.208 389.334 401.208 388.344 401.208 387.512 401.024 386.837 400.656 386.163 400.288 385.652 399.758 385.306 399.066 384.96 398.373 384.786 397.54 384.786 396.568 384.786 395.626 384.955 394.815 385.292 394.135 385.629 393.454 386.125 392.93 386.778 392.562 387.431 392.195 388.235 392.011 389.189 392.011ZM367.189 392.011C367.754 392.011 368.27 392.058 368.738 392.152 369.206 392.246 369.612 392.409 369.955 392.64 370.298 392.871 370.564 393.185 370.752 393.583 370.941 393.981 371.035 394.478 371.035 395.073L371.035 401.043 368.775 401.043 368.702 399.886C368.325 400.317 367.887 400.644 367.389 400.866 366.891 401.088 366.317 401.198 365.667 401.198 365.162 401.198 364.691 401.101 364.254 400.907 363.816 400.712 363.462 400.419 363.192 400.027 362.922 399.635 362.786 399.145 362.786 398.555 362.786 397.735 363.032 397.117 363.525 396.7 364.017 396.284 364.705 396.002 365.589 395.853 366.473 395.704 367.502 395.617 368.674 395.593L368.674 395.119C368.674 394.542 368.536 394.147 368.26 393.934 367.983 393.721 367.626 393.615 367.189 393.615 366.709 393.615 366.314 393.729 366.004 393.957 365.694 394.185 365.539 394.554 365.539 395.064L363.279 395.064C363.279 394.305 363.444 393.703 363.775 393.26 364.106 392.816 364.565 392.497 365.152 392.303 365.738 392.108 366.417 392.011 367.189 392.011ZM321.189 392.011C322.513 392.011 323.56 392.398 324.329 393.173 325.097 393.948 325.482 395.052 325.482 396.486 325.482 396.559 325.479 396.658 325.473 396.782 325.466 396.907 325.457 397.003 325.445 397.069L319.202 397.069C319.214 397.489 319.291 397.881 319.434 398.245 319.577 398.61 319.803 398.903 320.113 399.125 320.423 399.347 320.83 399.458 321.334 399.458 321.857 399.458 322.276 399.344 322.592 399.116 322.908 398.888 323.069 398.549 323.075 398.099L325.454 398.099C325.424 398.792 325.234 399.369 324.885 399.831 324.535 400.293 324.058 400.638 323.454 400.866 322.849 401.094 322.143 401.208 321.334 401.208 320.344 401.208 319.512 401.024 318.837 400.656 318.163 400.288 317.652 399.758 317.306 399.066 316.96 398.373 316.786 397.54 316.786 396.568 316.786 395.626 316.955 394.815 317.292 394.135 317.629 393.454 318.125 392.93 318.778 392.562 319.431 392.195 320.235 392.011 321.189 392.011ZM311.234 392.011C311.988 392.011 312.668 392.135 313.276 392.385 313.884 392.634 314.367 393.006 314.725 393.501 315.084 393.996 315.266 394.621 315.272 395.374L312.93 395.374C312.917 394.918 312.765 394.555 312.474 394.285 312.182 394.015 311.772 393.879 311.243 393.879 310.545 393.879 310.039 394.119 309.726 394.599 309.413 395.079 309.256 395.757 309.256 396.632 309.256 397.197 309.325 397.679 309.461 398.077 309.598 398.475 309.814 398.778 310.109 398.988 310.403 399.198 310.782 399.303 311.243 399.303 311.784 399.303 312.211 399.155 312.524 398.861 312.837 398.566 312.999 398.148 313.012 397.607L315.354 397.607C315.336 398.379 315.149 399.029 314.793 399.558 314.438 400.086 313.953 400.487 313.34 400.761 312.726 401.034 312.024 401.171 311.234 401.171 310.408 401.171 309.657 401.013 308.983 400.697 308.308 400.381 307.774 399.889 307.379 399.221 306.984 398.552 306.786 397.689 306.786 396.632 306.786 395.575 306.975 394.706 307.351 394.025 307.728 393.345 308.252 392.839 308.924 392.508 309.595 392.176 310.365 392.011 311.234 392.011ZM301.189 392.011C301.754 392.011 302.27 392.058 302.738 392.152 303.206 392.246 303.612 392.409 303.955 392.64 304.298 392.871 304.564 393.185 304.752 393.583 304.941 393.981 305.035 394.478 305.035 395.073L305.035 401.043 302.775 401.043 302.702 399.886C302.325 400.317 301.887 400.644 301.389 400.866 300.891 401.088 300.317 401.198 299.667 401.198 299.162 401.198 298.691 401.101 298.254 400.907 297.816 400.712 297.462 400.419 297.192 400.027 296.922 399.635 296.786 399.145 296.786 398.555 296.786 397.735 297.032 397.117 297.525 396.7 298.017 396.284 298.705 396.002 299.589 395.853 300.473 395.704 301.502 395.617 302.674 395.593L302.674 395.119C302.674 394.542 302.536 394.147 302.26 393.934 301.983 393.721 301.626 393.615 301.189 393.615 300.709 393.615 300.314 393.729 300.004 393.957 299.694 394.185 299.539 394.554 299.539 395.064L297.279 395.064C297.279 394.305 297.444 393.703 297.775 393.26 298.106 392.816 298.565 392.497 299.152 392.303 299.738 392.108 300.417 392.011 301.189 392.011ZM291.483 392.011C292.176 392.011 292.791 392.178 293.329 392.512 293.866 392.846 294.289 393.354 294.596 394.034 294.902 394.715 295.056 395.587 295.056 396.65 295.056 397.677 294.89 398.525 294.559 399.193 294.228 399.862 293.78 400.363 293.215 400.697 292.65 401.031 292.015 401.201 291.31 401.208 290.732 401.214 290.217 401.095 289.765 400.852 289.312 400.609 288.943 400.269 288.657 399.831L288.657 404.306 286.242 404.306 286.242 392.148 288.521 392.148 288.657 393.506C288.986 393.026 289.38 392.657 289.842 392.398 290.304 392.14 290.851 392.011 291.483 392.011ZM258.189 392.011C259.513 392.011 260.56 392.398 261.329 393.173 262.097 393.948 262.482 395.052 262.482 396.486 262.482 396.559 262.479 396.658 262.473 396.782 262.466 396.907 262.457 397.003 262.445 397.069L256.202 397.069C256.214 397.489 256.291 397.881 256.434 398.245 256.577 398.61 256.803 398.903 257.113 399.125 257.423 399.347 257.83 399.458 258.334 399.458 258.857 399.458 259.276 399.344 259.592 399.116 259.908 398.888 260.069 398.549 260.075 398.099L262.454 398.099C262.424 398.792 262.234 399.369 261.885 399.831 261.535 400.293 261.058 400.638 260.454 400.866 259.849 401.094 259.143 401.208 258.334 401.208 257.344 401.208 256.512 401.024 255.837 400.656 255.163 400.288 254.652 399.758 254.306 399.066 253.96 398.373 253.786 397.54 253.786 396.568 253.786 395.626 253.955 394.815 254.292 394.135 254.629 393.454 255.125 392.93 255.778 392.562 256.431 392.195 257.235 392.011 258.189 392.011ZM399.724 392.002C400.18 392.002 400.626 392.047 401.064 392.139 401.501 392.23 401.896 392.383 402.249 392.599 402.601 392.815 402.884 393.105 403.096 393.469 403.309 393.834 403.415 394.29 403.415 394.836L401.173 394.836C401.173 394.381 401.029 394.065 400.74 393.889 400.451 393.712 400.113 393.624 399.724 393.624 399.305 393.624 398.975 393.685 398.735 393.806 398.495 393.928 398.375 394.129 398.375 394.408 398.375 394.572 398.451 394.716 398.603 394.841 398.755 394.966 398.998 395.081 399.332 395.187 399.666 395.294 400.107 395.408 400.653 395.529 401.231 395.663 401.747 395.836 402.203 396.049 402.659 396.261 403.02 396.547 403.288 396.905 403.555 397.264 403.689 397.729 403.689 398.3 403.689 398.835 403.581 399.287 403.365 399.658 403.149 400.029 402.861 400.328 402.499 400.556 402.138 400.784 401.724 400.949 401.26 401.053 400.795 401.156 400.313 401.208 399.815 401.208 399.323 401.208 398.84 401.162 398.366 401.071 397.892 400.98 397.463 400.823 397.081 400.601 396.698 400.38 396.394 400.077 396.169 399.694 395.944 399.312 395.832 398.835 395.832 398.264L398.074 398.264C398.074 398.762 398.249 399.108 398.598 399.303 398.948 399.497 399.356 399.594 399.824 399.594 400.286 399.594 400.644 399.52 400.9 399.371 401.155 399.222 401.282 398.971 401.282 398.619 401.282 398.285 401.132 398.036 400.831 397.872 400.53 397.708 400.003 397.54 399.25 397.37 398.618 397.218 398.054 397.035 397.559 396.819 397.064 396.603 396.677 396.315 396.397 395.953 396.117 395.591 395.978 395.116 395.978 394.527 395.978 394.065 396.084 393.673 396.297 393.351 396.509 393.029 396.793 392.769 397.149 392.571 397.504 392.374 397.905 392.23 398.352 392.139 398.799 392.047 399.256 392.002 399.724 392.002ZM247.724 392.002C248.18 392.002 248.626 392.047 249.064 392.139 249.501 392.23 249.896 392.383 250.249 392.599 250.601 392.815 250.884 393.105 251.096 393.469 251.309 393.834 251.415 394.29 251.415 394.836L249.173 394.836C249.173 394.381 249.029 394.065 248.74 393.889 248.451 393.712 248.113 393.624 247.724 393.624 247.305 393.624 246.975 393.685 246.735 393.806 246.495 393.928 246.375 394.129 246.375 394.408 246.375 394.572 246.451 394.716 246.603 394.841 246.755 394.966 246.998 395.081 247.332 395.187 247.666 395.294 248.107 395.408 248.654 395.529 249.231 395.663 249.747 395.836 250.203 396.049 250.659 396.261 251.02 396.547 251.288 396.905 251.555 397.264 251.689 397.729 251.689 398.3 251.689 398.835 251.581 399.287 251.365 399.658 251.149 400.029 250.861 400.328 250.499 400.556 250.138 400.784 249.724 400.949 249.26 401.053 248.795 401.156 248.313 401.208 247.815 401.208 247.323 401.208 246.84 401.162 246.366 401.071 245.892 400.98 245.463 400.823 245.081 400.601 244.698 400.38 244.394 400.077 244.169 399.694 243.944 399.312 243.832 398.835 243.832 398.264L246.074 398.264C246.074 398.762 246.249 399.108 246.598 399.303 246.948 399.497 247.356 399.594 247.824 399.594 248.286 399.594 248.644 399.52 248.9 399.371 249.155 399.222 249.282 398.971 249.282 398.619 249.282 398.285 249.132 398.036 248.831 397.872 248.53 397.708 248.003 397.54 247.25 397.37 246.618 397.218 246.054 397.035 245.559 396.819 245.064 396.603 244.677 396.315 244.397 395.953 244.117 395.591 243.978 395.116 243.978 394.527 243.978 394.065 244.084 393.673 244.297 393.351 244.509 393.029 244.793 392.769 245.149 392.571 245.504 392.374 245.905 392.23 246.352 392.139 246.799 392.047 247.256 392.002 247.724 392.002ZM346.242 388.775 348.657 388.775 348.657 393.424C348.973 392.992 349.359 392.647 349.815 392.389 350.271 392.131 350.833 392.002 351.501 392.002 352.182 392.002 352.789 392.167 353.324 392.499 353.859 392.83 354.281 393.334 354.591 394.012 354.901 394.689 355.056 395.553 355.056 396.605 355.056 397.65 354.89 398.513 354.559 399.193 354.228 399.874 353.78 400.38 353.215 400.711 352.65 401.042 352.015 401.208 351.31 401.208 350.66 401.208 350.125 401.083 349.706 400.834 349.286 400.585 348.928 400.241 348.63 399.804L348.53 401.043 346.242 401.043ZM331.415 388.775 333.976 388.775 333.976 398.792 339.154 398.792 339.154 401.043 331.415 401.043ZM231.269 388.775 233.894 388.775 233.894 396.103C233.894 397.112 234.101 397.862 234.514 398.355 234.927 398.847 235.578 399.093 236.465 399.093 237.358 399.093 238.004 398.847 238.402 398.355 238.8 397.862 238.999 397.112 238.999 396.103L238.999 388.775 241.633 388.775 241.633 396.167C241.633 397.249 241.453 398.166 241.095 398.92 240.736 399.673 240.176 400.243 239.413 400.629 238.651 401.015 237.662 401.208 236.446 401.208 235.243 401.208 234.259 401.015 233.493 400.629 232.728 400.243 232.166 399.673 231.807 398.92 231.449 398.166 231.269 397.249 231.269 396.167ZM381.454 388.629C381.898 388.629 382.237 388.74 382.471 388.962 382.704 389.184 382.821 389.465 382.821 389.805 382.821 390.139 382.704 390.419 382.471 390.644 382.237 390.869 381.898 390.981 381.454 390.981 381.011 390.981 380.672 390.869 380.438 390.644 380.204 390.419 380.087 390.139 380.087 389.805 380.087 389.465 380.204 389.184 380.438 388.962 380.672 388.74 381.011 388.629 381.454 388.629ZM342.454 388.629C342.898 388.629 343.237 388.74 343.471 388.962 343.704 389.184 343.821 389.465 343.821 389.805 343.821 390.139 343.704 390.419 343.471 390.644 343.237 390.869 342.898 390.981 342.454 390.981 342.011 390.981 341.672 390.869 341.438 390.644 341.204 390.419 341.087 390.139 341.087 389.805 341.087 389.465 341.204 389.184 341.438 388.962 341.672 388.74 342.011 388.629 342.454 388.629ZM279.444 388.62C280.282 388.62 281.053 388.748 281.754 389.003 282.456 389.258 283.017 389.647 283.436 390.17 283.855 390.692 284.065 391.358 284.065 392.166L281.44 392.166C281.446 391.643 281.252 391.253 280.857 390.995 280.462 390.736 279.988 390.607 279.435 390.607 278.888 390.607 278.435 390.709 278.077 390.913 277.718 391.116 277.539 391.431 277.539 391.856 277.539 392.099 277.615 392.313 277.767 392.499 277.919 392.684 278.2 392.865 278.61 393.041 279.02 393.217 279.614 393.418 280.392 393.642 281.321 393.916 282.084 394.203 282.68 394.504 283.275 394.805 283.717 395.193 284.006 395.67 284.294 396.147 284.439 396.775 284.439 397.553 284.439 398.422 284.226 399.123 283.801 399.658 283.375 400.193 282.797 400.585 282.064 400.834 281.332 401.083 280.504 401.208 279.581 401.208 278.651 401.208 277.814 401.075 277.07 400.811 276.325 400.547 275.734 400.126 275.297 399.549 274.859 398.971 274.64 398.218 274.64 397.288L277.265 397.288C277.278 397.762 277.387 398.134 277.594 398.405 277.8 398.675 278.078 398.868 278.428 398.984 278.777 399.099 279.177 399.157 279.626 399.157 280.058 399.157 280.437 399.105 280.765 399.002 281.094 398.898 281.35 398.739 281.536 398.523 281.721 398.308 281.814 398.033 281.814 397.698 281.814 397.376 281.735 397.111 281.577 396.901 281.419 396.691 281.139 396.5 280.738 396.327 280.337 396.153 279.775 395.967 279.052 395.766 278.207 395.523 277.477 395.256 276.86 394.964 276.243 394.672 275.766 394.296 275.429 393.834 275.092 393.372 274.923 392.77 274.923 392.029 274.923 391.233 275.116 390.584 275.502 390.083 275.888 389.582 276.421 389.213 277.101 388.976 277.782 388.739 278.563 388.62 279.444 388.62Z" fill="url(#fill0)" fill-rule="evenodd"/><text fill="#000000" fill-opacity="0" font-family="Arial,Arial_MSFontService,sans-serif" font-size="15.6862" x="231.269" y="402.346">User Space Libraries</text><rect x="74" y="198" width="369" height="99" fill="#7030A0"/><path d="M287.926 249.077C286.65 249.083 285.757 249.203 285.246 249.437 284.736 249.671 284.481 250.05 284.481 250.572 284.481 250.949 284.598 251.228 284.831 251.411 285.065 251.593 285.368 251.684 285.738 251.684 286.194 251.684 286.615 251.566 287.001 251.329 287.387 251.092 287.695 250.821 287.926 250.517ZM307.559 245.997C307.042 245.997 306.637 246.121 306.342 246.37 306.047 246.619 305.839 246.954 305.718 247.373 305.596 247.792 305.535 248.257 305.535 248.767 305.535 249.266 305.596 249.721 305.718 250.135 305.839 250.548 306.047 250.877 306.342 251.124 306.637 251.37 307.042 251.493 307.559 251.493 308.087 251.493 308.502 251.37 308.803 251.124 309.104 250.877 309.316 250.548 309.441 250.135 309.565 249.721 309.628 249.266 309.628 248.767 309.628 248.257 309.565 247.792 309.441 247.373 309.316 246.954 309.104 246.619 308.803 246.37 308.502 246.121 308.087 245.997 307.559 245.997ZM255.178 245.987C254.632 245.987 254.164 246.141 253.775 246.448 253.386 246.755 253.106 247.09 252.936 247.455L252.936 250.08C253.131 250.469 253.403 250.803 253.752 251.083 254.101 251.362 254.513 251.502 254.987 251.502 255.595 251.502 256.06 251.268 256.382 250.8 256.704 250.332 256.865 249.655 256.865 248.767 256.865 247.826 256.714 247.127 256.414 246.671 256.113 246.215 255.701 245.987 255.178 245.987ZM244.178 245.987C243.632 245.987 243.164 246.141 242.775 246.448 242.386 246.755 242.106 247.09 241.936 247.455L241.936 250.08C242.131 250.469 242.403 250.803 242.752 251.083 243.101 251.362 243.513 251.502 243.987 251.502 244.595 251.502 245.06 251.268 245.382 250.8 245.704 250.332 245.865 249.655 245.865 248.767 245.865 247.826 245.714 247.127 245.414 246.671 245.113 246.215 244.701 245.987 244.178 245.987ZM211.468 245.833C210.909 245.833 210.451 245.99 210.096 246.306 209.74 246.622 209.544 247.081 209.508 247.683L213.363 247.683C213.345 247.063 213.161 246.6 212.812 246.293 212.463 245.986 212.014 245.833 211.468 245.833ZM298.521 244.292 300.936 244.292 300.936 253.188 298.521 253.188ZM267.521 244.292 269.936 244.292 269.936 253.188 267.521 253.188ZM222.598 244.174 222.78 244.174 222.78 246.206 222.552 246.206C222.194 246.206 221.85 246.238 221.522 246.302 221.194 246.366 220.896 246.475 220.629 246.63 220.362 246.785 220.131 246.999 219.936 247.273L219.936 253.188 217.521 253.188 217.521 244.292 219.836 244.292 219.882 245.833C220.113 245.298 220.459 244.888 220.921 244.602 221.382 244.316 221.941 244.174 222.598 244.174ZM319.962 244.165C320.868 244.165 321.57 244.439 322.068 244.989 322.566 245.539 322.815 246.343 322.815 247.4L322.815 253.188 320.418 253.188 320.418 247.71C320.418 247.388 320.372 247.106 320.281 246.862 320.19 246.619 320.046 246.431 319.848 246.297 319.651 246.164 319.391 246.097 319.069 246.097 318.589 246.097 318.177 246.209 317.834 246.434 317.491 246.659 317.192 246.932 316.936 247.254L316.936 253.188 314.521 253.188 314.521 244.292 316.845 244.292 316.891 245.623C317.188 245.24 317.58 244.901 318.066 244.607 318.553 244.312 319.185 244.165 319.962 244.165ZM286.468 244.155C287.033 244.155 287.549 244.203 288.017 244.297 288.485 244.391 288.891 244.553 289.234 244.784 289.577 245.015 289.843 245.33 290.031 245.728 290.22 246.126 290.314 246.622 290.314 247.218L290.314 253.188 288.053 253.188 287.981 252.03C287.604 252.462 287.166 252.788 286.668 253.01 286.17 253.232 285.596 253.343 284.945 253.343 284.441 253.343 283.97 253.246 283.533 253.051 283.095 252.857 282.741 252.564 282.471 252.172 282.2 251.78 282.065 251.289 282.065 250.7 282.065 249.879 282.311 249.261 282.803 248.845 283.296 248.429 283.984 248.146 284.868 247.997 285.752 247.848 286.78 247.762 287.953 247.737L287.953 247.264C287.953 246.686 287.815 246.291 287.539 246.079 287.262 245.866 286.905 245.76 286.468 245.76 285.987 245.76 285.593 245.874 285.283 246.101 284.973 246.329 284.818 246.698 284.818 247.209L282.557 247.209C282.557 246.449 282.723 245.848 283.054 245.404 283.385 244.961 283.844 244.642 284.43 244.447 285.017 244.253 285.696 244.155 286.468 244.155ZM276.513 244.155C277.267 244.155 277.947 244.28 278.555 244.529 279.162 244.778 279.646 245.15 280.004 245.646 280.362 246.141 280.545 246.765 280.551 247.519L278.208 247.519C278.196 247.063 278.044 246.7 277.753 246.43 277.461 246.159 277.051 246.024 276.522 246.024 275.823 246.024 275.318 246.264 275.005 246.744 274.692 247.224 274.535 247.902 274.535 248.777 274.535 249.342 274.604 249.823 274.74 250.221 274.877 250.619 275.093 250.923 275.387 251.133 275.682 251.342 276.06 251.447 276.522 251.447 277.063 251.447 277.49 251.3 277.803 251.005 278.116 250.71 278.278 250.293 278.29 249.752L280.633 249.752C280.615 250.523 280.428 251.174 280.072 251.702 279.717 252.231 279.232 252.632 278.619 252.905 278.005 253.179 277.303 253.316 276.513 253.316 275.687 253.316 274.936 253.158 274.262 252.842 273.587 252.526 273.053 252.033 272.658 251.365 272.263 250.697 272.065 249.834 272.065 248.777 272.065 247.719 272.254 246.85 272.63 246.17 273.007 245.489 273.531 244.983 274.203 244.652 274.874 244.321 275.644 244.155 276.513 244.155ZM255.762 244.155C256.455 244.155 257.07 244.323 257.608 244.657 258.145 244.991 258.568 245.498 258.874 246.179 259.181 246.859 259.335 247.731 259.335 248.795 259.335 249.822 259.169 250.669 258.838 251.338 258.507 252.006 258.059 252.507 257.494 252.842 256.928 253.176 256.294 253.346 255.589 253.352 255.011 253.358 254.496 253.24 254.044 252.997 253.591 252.754 253.222 252.413 252.936 251.976L252.936 256.451 250.521 256.451 250.521 244.292 252.8 244.292 252.936 245.65C253.264 245.17 253.659 244.801 254.121 244.543 254.583 244.285 255.13 244.155 255.762 244.155ZM244.762 244.155C245.455 244.155 246.07 244.323 246.608 244.657 247.145 244.991 247.568 245.498 247.874 246.179 248.181 246.859 248.335 247.731 248.335 248.795 248.335 249.822 248.169 250.669 247.838 251.338 247.507 252.006 247.059 252.507 246.494 252.842 245.928 253.176 245.294 253.346 244.589 253.352 244.011 253.358 243.496 253.24 243.044 252.997 242.591 252.754 242.222 252.413 241.936 251.976L241.936 256.451 239.521 256.451 239.521 244.292 241.8 244.292 241.936 245.65C242.264 245.17 242.659 244.801 243.121 244.543 243.583 244.285 244.13 244.155 244.762 244.155ZM211.468 244.155C212.792 244.155 213.839 244.543 214.608 245.318 215.376 246.092 215.761 247.197 215.761 248.631 215.761 248.704 215.757 248.802 215.751 248.927 215.745 249.051 215.736 249.147 215.724 249.214L209.481 249.214C209.493 249.633 209.57 250.025 209.713 250.39 209.856 250.754 210.082 251.048 210.392 251.269 210.702 251.491 211.109 251.602 211.613 251.602 212.136 251.602 212.555 251.488 212.871 251.26 213.187 251.032 213.348 250.694 213.354 250.244L215.733 250.244C215.703 250.937 215.513 251.514 215.164 251.976 214.814 252.438 214.337 252.782 213.733 253.01 213.128 253.238 212.422 253.352 211.613 253.352 210.623 253.352 209.79 253.168 209.116 252.801 208.442 252.433 207.931 251.903 207.585 251.21 207.238 250.517 207.065 249.685 207.065 248.713 207.065 247.771 207.234 246.96 207.571 246.279 207.908 245.599 208.404 245.074 209.057 244.707 209.71 244.339 210.514 244.155 211.468 244.155ZM329.003 244.146C329.458 244.146 329.905 244.192 330.343 244.283 330.78 244.374 331.175 244.528 331.527 244.743 331.88 244.959 332.162 245.249 332.375 245.614 332.588 245.978 332.694 246.434 332.694 246.981L330.452 246.981C330.452 246.525 330.308 246.209 330.019 246.033 329.73 245.857 329.392 245.769 329.003 245.769 328.583 245.769 328.254 245.829 328.014 245.951 327.774 246.073 327.654 246.273 327.654 246.553 327.654 246.717 327.73 246.861 327.882 246.986 328.034 247.11 328.277 247.226 328.611 247.332 328.945 247.438 329.386 247.552 329.932 247.674 330.51 247.807 331.026 247.981 331.482 248.193 331.938 248.406 332.299 248.691 332.567 249.05 332.834 249.408 332.968 249.873 332.968 250.444 332.968 250.979 332.86 251.432 332.644 251.803 332.428 252.173 332.14 252.472 331.778 252.7 331.417 252.928 331.003 253.094 330.539 253.197 330.074 253.3 329.592 253.352 329.094 253.352 328.602 253.352 328.119 253.306 327.645 253.215 327.171 253.124 326.742 252.968 326.359 252.746 325.977 252.524 325.673 252.222 325.448 251.839 325.223 251.456 325.111 250.979 325.111 250.408L327.353 250.408C327.353 250.906 327.528 251.253 327.877 251.447 328.226 251.642 328.635 251.739 329.103 251.739 329.565 251.739 329.923 251.664 330.178 251.515 330.434 251.367 330.561 251.116 330.561 250.764 330.561 250.429 330.411 250.18 330.11 250.016 329.809 249.852 329.282 249.685 328.529 249.515 327.897 249.363 327.333 249.179 326.838 248.963 326.343 248.748 325.955 248.459 325.676 248.097 325.396 247.736 325.257 247.26 325.257 246.671 325.257 246.209 325.363 245.817 325.576 245.495 325.788 245.173 326.072 244.913 326.428 244.716 326.783 244.518 327.184 244.374 327.631 244.283 328.078 244.192 328.535 244.146 329.003 244.146ZM201.003 244.146C201.458 244.146 201.905 244.192 202.343 244.283 202.78 244.374 203.175 244.528 203.527 244.743 203.88 244.959 204.162 245.249 204.375 245.614 204.588 245.978 204.694 246.434 204.694 246.981L202.452 246.981C202.452 246.525 202.308 246.209 202.019 246.033 201.73 245.857 201.392 245.769 201.003 245.769 200.583 245.769 200.254 245.829 200.014 245.951 199.774 246.073 199.654 246.273 199.654 246.553 199.654 246.717 199.73 246.861 199.882 246.986 200.034 247.11 200.277 247.226 200.611 247.332 200.945 247.438 201.386 247.552 201.932 247.674 202.51 247.807 203.026 247.981 203.482 248.193 203.938 248.406 204.299 248.691 204.566 249.05 204.834 249.408 204.968 249.873 204.968 250.444 204.968 250.979 204.86 251.432 204.644 251.803 204.428 252.173 204.14 252.472 203.778 252.7 203.417 252.928 203.003 253.094 202.539 253.197 202.074 253.3 201.592 253.352 201.094 253.352 200.602 253.352 200.119 253.306 199.645 253.215 199.171 253.124 198.742 252.968 198.359 252.746 197.977 252.524 197.673 252.222 197.448 251.839 197.223 251.456 197.111 250.979 197.111 250.408L199.353 250.408C199.353 250.906 199.528 251.253 199.877 251.447 200.226 251.642 200.635 251.739 201.103 251.739 201.565 251.739 201.923 251.664 202.178 251.515 202.434 251.367 202.561 251.116 202.561 250.764 202.561 250.429 202.411 250.18 202.11 250.016 201.809 249.852 201.282 249.685 200.529 249.515 199.897 249.363 199.333 249.179 198.838 248.963 198.343 248.748 197.955 248.459 197.676 248.097 197.396 247.736 197.257 247.26 197.257 246.671 197.257 246.209 197.363 245.817 197.576 245.495 197.788 245.173 198.072 244.913 198.428 244.716 198.783 244.518 199.184 244.374 199.631 244.283 200.078 244.192 200.535 244.146 201.003 244.146ZM307.559 244.137C308.47 244.137 309.265 244.318 309.942 244.68 310.62 245.041 311.147 245.567 311.524 246.256 311.9 246.946 312.089 247.783 312.089 248.767 312.089 249.734 311.9 250.557 311.524 251.237 311.147 251.918 310.62 252.438 309.942 252.796 309.265 253.155 308.47 253.334 307.559 253.334 306.659 253.334 305.871 253.155 305.193 252.796 304.516 252.438 303.992 251.918 303.621 251.237 303.251 250.557 303.065 249.734 303.065 248.767 303.065 247.783 303.251 246.946 303.621 246.256 303.992 245.567 304.516 245.041 305.193 244.68 305.871 244.318 306.659 244.137 307.559 244.137ZM233.005 243.454 231.41 248.366 234.6 248.366ZM292.904 242.196 295.319 242.196 295.319 244.292 297.26 244.292 297.26 246.152 295.319 246.152 295.319 249.943C295.319 250.411 295.384 250.757 295.515 250.982 295.646 251.207 295.942 251.319 296.404 251.319L297.26 251.319 297.26 253.188 296.322 253.188C295.422 253.188 294.725 253.08 294.23 252.864 293.735 252.649 293.39 252.314 293.195 251.862 293.001 251.409 292.904 250.818 292.904 250.089L292.904 246.152 291.427 246.152 291.427 244.292 292.904 244.292ZM261.439 240.92 263.845 240.92 263.845 249.943C263.845 250.411 263.909 250.754 264.037 250.973 264.164 251.192 264.462 251.301 264.93 251.301L265.486 251.301 265.486 253.188 264.857 253.188C263.951 253.188 263.253 253.08 262.76 252.864 262.268 252.649 261.925 252.314 261.731 251.862 261.536 251.409 261.439 250.818 261.439 250.089ZM231.665 240.92 234.354 240.92 238.775 253.188 236.104 253.188 235.229 250.49 230.8 250.49 229.897 253.188 227.254 253.188ZM184.548 240.92 187.173 240.92 187.173 248.248C187.173 249.257 187.38 250.007 187.793 250.499 188.206 250.991 188.856 251.237 189.744 251.237 190.637 251.237 191.282 250.991 191.68 250.499 192.078 250.007 192.277 249.257 192.277 248.248L192.277 240.92 194.912 240.92 194.912 248.312C194.912 249.393 194.732 250.311 194.374 251.064 194.015 251.818 193.455 252.387 192.692 252.773 191.93 253.159 190.941 253.352 189.725 253.352 188.522 253.352 187.538 253.159 186.772 252.773 186.007 252.387 185.445 251.818 185.086 251.064 184.728 250.311 184.548 249.393 184.548 248.312ZM299.733 240.774C300.177 240.774 300.516 240.885 300.749 241.107 300.983 241.328 301.1 241.609 301.1 241.95 301.1 242.284 300.983 242.563 300.749 242.788 300.516 243.013 300.177 243.125 299.733 243.125 299.29 243.125 298.951 243.013 298.717 242.788 298.483 242.563 298.366 242.284 298.366 241.95 298.366 241.609 298.483 241.328 298.717 241.107 298.951 240.885 299.29 240.774 299.733 240.774ZM268.733 240.774C269.177 240.774 269.516 240.885 269.749 241.107 269.983 241.328 270.1 241.609 270.1 241.95 270.1 242.284 269.983 242.563 269.749 242.788 269.516 243.013 269.177 243.125 268.733 243.125 268.29 243.125 267.951 243.013 267.717 242.788 267.483 242.563 267.366 242.284 267.366 241.95 267.366 241.609 267.483 241.328 267.717 241.107 267.951 240.885 268.29 240.774 268.733 240.774Z" fill="url(#fill1)" fill-rule="evenodd"/><text fill="#000000" fill-opacity="0" font-family="Arial,Arial_MSFontService,sans-serif" font-size="15.6771" x="184.548" y="254.491">User Applications</text><rect x="196" y="301" width="111" height="56" fill="#80350E"/><path d="M259.588 325.458 257.993 330.371 261.183 330.371ZM269.838 324.993 269.838 328.767 271.852 328.767C272.448 328.767 272.929 328.609 273.297 328.293 273.665 327.977 273.848 327.509 273.848 326.889 273.848 326.245 273.66 325.768 273.283 325.458 272.907 325.148 272.43 324.993 271.852 324.993ZM242.838 324.993 242.838 328.767 244.852 328.767C245.448 328.767 245.929 328.609 246.297 328.293 246.665 327.977 246.848 327.509 246.848 326.889 246.848 326.245 246.66 325.768 246.283 325.458 245.907 325.148 245.43 324.993 244.852 324.993ZM278.277 322.924 280.838 322.924 280.838 335.192 278.277 335.192ZM267.277 322.924 272.089 322.924C272.897 322.924 273.634 323.067 274.3 323.353 274.965 323.638 275.495 324.073 275.89 324.656 276.285 325.239 276.483 325.984 276.483 326.889 276.483 327.782 276.285 328.521 275.89 329.104 275.495 329.687 274.965 330.12 274.3 330.403 273.634 330.685 272.897 330.827 272.089 330.827L269.838 330.827 269.838 335.192 267.277 335.192ZM258.248 322.924 260.937 322.924 265.358 335.192 262.687 335.192 261.812 332.495 257.382 332.495 256.48 335.192 253.837 335.192ZM240.277 322.924 245.089 322.924C245.897 322.924 246.634 323.067 247.3 323.353 247.965 323.638 248.495 324.073 248.89 324.656 249.285 325.239 249.483 325.984 249.483 326.889 249.483 327.782 249.285 328.521 248.89 329.104 248.495 329.687 247.965 330.12 247.3 330.403 246.634 330.685 245.897 330.827 245.089 330.827L242.838 330.827 242.838 335.192 240.277 335.192ZM235.277 322.924 237.838 322.924 237.838 335.192 235.277 335.192ZM221.277 322.924 223.838 322.924 223.838 327.719 229.398 327.719 229.398 322.924 231.959 322.924 231.959 335.192 229.398 335.192 229.398 329.979 223.838 329.979 223.838 335.192 221.277 335.192Z" fill="url(#fill2)" fill-rule="evenodd"/><text fill="#000000" fill-opacity="0" font-family="Arial,Arial_MSFontService,sans-serif" font-size="12.2682" x="221.277" y="333.659">HIP API</text><rect x="75" y="302" width="118" height="54" fill="#80350E"/><path d="M144.139 324.785 142.544 329.698 145.734 329.698ZM154.389 324.32 154.389 328.094 156.403 328.094C156.999 328.094 157.48 327.936 157.848 327.62 158.216 327.304 158.399 326.836 158.399 326.216 158.399 325.572 158.211 325.095 157.834 324.785 157.458 324.475 156.981 324.32 156.403 324.32ZM128.38 324.156 130.303 324.156 130.303 327.474 133.612 327.474 133.612 329.388 130.303 329.388 130.303 332.715 128.38 332.715 128.38 329.388 125.071 329.388 125.071 327.474 128.38 327.474ZM118.38 324.156 120.303 324.156 120.303 327.474 123.612 327.474 123.612 329.388 120.303 329.388 120.303 332.715 118.38 332.715 118.38 329.388 115.071 329.388 115.071 327.474 118.38 327.474ZM162.828 322.251 165.389 322.251 165.389 334.519 162.828 334.519ZM151.828 322.251 156.64 322.251C157.448 322.251 158.185 322.394 158.851 322.679 159.516 322.965 160.046 323.4 160.441 323.983 160.836 324.566 161.034 325.311 161.034 326.216 161.034 327.109 160.836 327.847 160.441 328.431 160.046 329.014 159.516 329.447 158.851 329.73 158.185 330.012 157.448 330.153 156.64 330.153L154.389 330.153 154.389 334.519 151.828 334.519ZM142.799 322.251 145.488 322.251 149.909 334.519 147.238 334.519 146.363 331.821 141.933 331.821 141.031 334.519 138.388 334.519ZM108.242 322.087C109.202 322.087 110.086 322.253 110.894 322.584 111.702 322.915 112.359 323.404 112.863 324.051 113.367 324.698 113.644 325.496 113.692 326.444L111.067 326.444C111.001 325.946 110.838 325.532 110.58 325.204 110.322 324.876 109.992 324.63 109.591 324.466 109.19 324.302 108.74 324.22 108.242 324.22 107.44 324.22 106.794 324.414 106.305 324.803 105.816 325.192 105.46 325.701 105.239 326.33 105.017 326.959 104.906 327.647 104.906 328.394 104.906 329.136 105.017 329.822 105.239 330.454 105.46 331.086 105.816 331.594 106.305 331.976 106.794 332.359 107.44 332.551 108.242 332.551 109.086 332.551 109.753 332.333 110.243 331.899 110.732 331.464 111.013 330.846 111.086 330.044L113.711 330.044C113.638 331.047 113.373 331.893 112.918 332.582 112.462 333.272 111.839 333.795 111.049 334.15 110.259 334.506 109.323 334.683 108.242 334.683 107.002 334.683 105.936 334.424 105.043 333.904 104.149 333.385 103.463 332.655 102.983 331.717 102.503 330.778 102.263 329.67 102.263 328.394 102.263 327.118 102.503 326.008 102.983 325.063 103.463 324.118 104.149 323.386 105.043 322.866 105.936 322.347 107.002 322.087 108.242 322.087Z" fill="url(#fill3)" fill-rule="evenodd"/><text fill="#000000" fill-opacity="0" font-family="Arial,Arial_MSFontService,sans-serif" font-size="12.5963" x="102.263" y="333.109">C++ API</text><rect x="312" y="303" width="132" height="54" fill="#80350E"/><path d="M375.438 328.307C374.922 328.307 374.516 328.432 374.221 328.681 373.927 328.93 373.719 329.264 373.597 329.683 373.475 330.103 373.415 330.568 373.415 331.078 373.415 331.576 373.475 332.032 373.597 332.445 373.719 332.858 373.927 333.188 374.221 333.434 374.516 333.68 374.922 333.803 375.438 333.803 375.967 333.803 376.381 333.68 376.682 333.434 376.983 333.188 377.196 332.858 377.32 332.445 377.445 332.032 377.507 331.576 377.507 331.078 377.507 330.568 377.445 330.103 377.32 329.683 377.196 329.264 376.983 328.93 376.682 328.681 376.381 328.432 375.967 328.307 375.438 328.307ZM343.106 326.603 345.622 326.603 347.873 333.183 349.878 326.603 352.321 326.603 349.122 335.499 348.794 336.383C348.563 337.009 348.295 337.495 347.991 337.841 347.688 338.187 347.315 338.427 346.875 338.561 346.434 338.695 345.886 338.762 345.23 338.762L344.145 338.762 344.145 336.802 344.947 336.802C345.306 336.802 345.605 336.738 345.845 336.611 346.085 336.483 346.26 336.273 346.369 335.982L346.57 335.499ZM387.842 326.475C388.747 326.475 389.449 326.75 389.947 327.3 390.445 327.85 390.695 328.653 390.695 329.711L390.695 335.499 388.297 335.499 388.297 330.021C388.297 329.699 388.252 329.416 388.161 329.173 388.07 328.93 387.925 328.742 387.728 328.608 387.53 328.474 387.271 328.407 386.949 328.407 386.469 328.407 386.057 328.52 385.714 328.745 385.37 328.969 385.071 329.243 384.816 329.565L384.816 335.499 382.4 335.499 382.4 326.603 384.725 326.603 384.77 327.933C385.068 327.551 385.46 327.212 385.946 326.917 386.432 326.622 387.064 326.475 387.842 326.475ZM375.438 326.448C376.35 326.448 377.144 326.629 377.822 326.99 378.499 327.352 379.026 327.877 379.403 328.567 379.78 329.257 379.968 330.094 379.968 331.078 379.968 332.044 379.78 332.867 379.403 333.548 379.026 334.229 378.499 334.748 377.822 335.107 377.144 335.465 376.35 335.644 375.438 335.644 374.539 335.644 373.75 335.465 373.073 335.107 372.395 334.748 371.871 334.229 371.501 333.548 371.13 332.867 370.945 332.044 370.945 331.078 370.945 330.094 371.13 329.257 371.501 328.567 371.871 327.877 372.395 327.352 373.073 326.99 373.75 326.629 374.539 326.448 375.438 326.448ZM400.885 325.764 399.29 330.677 402.48 330.677ZM411.135 325.299 411.135 329.073 413.149 329.073C413.745 329.073 414.226 328.915 414.594 328.599 414.961 328.283 415.145 327.815 415.145 327.195 415.145 326.551 414.957 326.074 414.58 325.764 414.203 325.454 413.726 325.299 413.149 325.299ZM336.135 325.299 336.135 329.073 338.149 329.073C338.745 329.073 339.226 328.915 339.594 328.599 339.961 328.283 340.145 327.815 340.145 327.195 340.145 326.551 339.957 326.074 339.58 325.764 339.203 325.454 338.726 325.299 338.149 325.299ZM354.783 324.506 357.199 324.506 357.199 326.603 359.14 326.603 359.14 328.462 357.199 328.462 357.199 332.254C357.199 332.722 357.264 333.068 357.395 333.293 357.525 333.518 357.821 333.63 358.283 333.63L359.14 333.63 359.14 335.499 358.201 335.499C357.302 335.499 356.605 335.391 356.109 335.175 355.614 334.959 355.269 334.625 355.075 334.172 354.88 333.72 354.783 333.129 354.783 332.4L354.783 328.462 353.307 328.462 353.307 326.603 354.783 326.603ZM419.574 323.23 422.135 323.23 422.135 335.499 419.574 335.499ZM408.574 323.23 413.386 323.23C414.194 323.23 414.931 323.373 415.596 323.659 416.262 323.944 416.792 324.379 417.187 324.962 417.582 325.545 417.779 326.29 417.779 327.195 417.779 328.088 417.582 328.827 417.187 329.41 416.792 329.993 416.262 330.426 415.596 330.709 414.931 330.991 414.194 331.133 413.386 331.133L411.135 331.133 411.135 335.499 408.574 335.499ZM399.545 323.23 402.234 323.23 406.654 335.499 403.984 335.499 403.109 332.801 398.679 332.801 397.777 335.499 395.133 335.499ZM360.4 323.23 362.77 323.23 362.77 327.933C363.068 327.551 363.46 327.212 363.946 326.917 364.432 326.622 365.058 326.475 365.824 326.475 366.747 326.475 367.457 326.747 367.952 327.291 368.447 327.835 368.695 328.641 368.695 329.711L368.695 335.499 366.279 335.499 366.279 330.012C366.279 329.696 366.235 329.416 366.147 329.173 366.059 328.93 365.918 328.742 365.723 328.608 365.529 328.474 365.271 328.407 364.949 328.407 364.469 328.407 364.057 328.52 363.714 328.745 363.37 328.969 363.071 329.243 362.816 329.565L362.816 335.499 360.4 335.499ZM333.574 323.23 338.386 323.23C339.194 323.23 339.931 323.373 340.596 323.659 341.262 323.944 341.792 324.379 342.187 324.962 342.582 325.545 342.779 326.29 342.779 327.195 342.779 328.088 342.582 328.827 342.187 329.41 341.792 329.993 341.262 330.426 340.596 330.709 339.931 330.991 339.194 331.133 338.386 331.133L336.135 331.133 336.135 335.499 333.574 335.499Z" fill="url(#fill4)" fill-rule="evenodd"/><text fill="#000000" fill-opacity="0" font-family="Arial,Arial_MSFontService,sans-serif" font-size="15.5312" x="333.574" y="336.82">Python API</text><rect x="74" y="433" width="240" height="68" fill="#3B7D23"/><path d="M267.889 465.306C267.33 465.306 266.873 465.464 266.518 465.78 266.162 466.096 265.966 466.555 265.93 467.156L269.785 467.156C269.767 466.537 269.583 466.073 269.234 465.767 268.884 465.46 268.436 465.306 267.889 465.306ZM213.889 465.306C213.33 465.306 212.873 465.464 212.518 465.78 212.162 466.096 211.966 466.555 211.93 467.156L215.785 467.156C215.767 466.537 215.583 466.073 215.234 465.767 214.884 465.46 214.436 465.306 213.889 465.306ZM185.889 465.306C185.33 465.306 184.873 465.464 184.518 465.78 184.162 466.096 183.966 466.555 183.93 467.156L187.785 467.156C187.767 466.537 187.583 466.073 187.234 465.767 186.884 465.46 186.436 465.306 185.889 465.306ZM253.649 463.766 256.164 463.766 258.261 470.41 260.421 463.766 262.863 463.766 259.637 472.662 256.884 472.662ZM249.943 463.766 252.358 463.766 252.358 472.662 249.943 472.662ZM279.02 463.647 279.202 463.647 279.202 465.68 278.974 465.68C278.616 465.68 278.272 465.712 277.944 465.776 277.616 465.839 277.318 465.949 277.051 466.104 276.784 466.259 276.553 466.473 276.358 466.746L276.358 472.662 273.943 472.662 273.943 463.766 276.258 463.766 276.303 465.306C276.534 464.771 276.881 464.361 277.343 464.076 277.804 463.79 278.363 463.647 279.02 463.647ZM248.02 463.647 248.202 463.647 248.202 465.68 247.974 465.68C247.616 465.68 247.272 465.712 246.944 465.776 246.616 465.839 246.318 465.949 246.051 466.104 245.784 466.259 245.553 466.473 245.358 466.746L245.358 472.662 242.943 472.662 242.943 463.766 245.258 463.766 245.303 465.306C245.534 464.771 245.881 464.361 246.343 464.076 246.804 463.79 247.363 463.647 248.02 463.647ZM197.02 463.647 197.202 463.647 197.202 465.68 196.974 465.68C196.616 465.68 196.272 465.712 195.944 465.776 195.616 465.839 195.318 465.949 195.051 466.104 194.784 466.259 194.553 466.473 194.358 466.746L194.358 472.662 191.943 472.662 191.943 463.766 194.258 463.766 194.303 465.306C194.534 464.771 194.881 464.361 195.343 464.076 195.804 463.79 196.363 463.647 197.02 463.647ZM204.384 463.638C205.29 463.638 205.991 463.913 206.49 464.463 206.988 465.013 207.237 465.817 207.237 466.874L207.237 472.662 204.84 472.662 204.84 467.184C204.84 466.862 204.794 466.579 204.703 466.336 204.612 466.093 204.468 465.905 204.27 465.771 204.073 465.637 203.813 465.571 203.491 465.571 203.011 465.571 202.599 465.683 202.256 465.908 201.913 466.133 201.613 466.406 201.358 466.728L201.358 472.662 198.943 472.662 198.943 463.766 201.267 463.766 201.313 465.097C201.61 464.714 202.002 464.375 202.488 464.08 202.975 463.786 203.606 463.638 204.384 463.638ZM267.889 463.629C269.214 463.629 270.261 464.017 271.029 464.791 271.798 465.566 272.182 466.67 272.182 468.104 272.182 468.177 272.179 468.276 272.173 468.401 272.167 468.525 272.158 468.621 272.146 468.688L265.902 468.688C265.915 469.107 265.992 469.499 266.135 469.864 266.278 470.228 266.504 470.521 266.814 470.743 267.124 470.965 267.531 471.076 268.035 471.076 268.558 471.076 268.977 470.962 269.293 470.734 269.609 470.506 269.77 470.167 269.776 469.718L272.155 469.718C272.125 470.41 271.935 470.988 271.585 471.449 271.236 471.911 270.759 472.256 270.154 472.484 269.55 472.712 268.843 472.826 268.035 472.826 267.045 472.826 266.212 472.642 265.538 472.274 264.863 471.907 264.353 471.377 264.007 470.684 263.66 469.991 263.487 469.159 263.487 468.186 263.487 467.245 263.656 466.433 263.993 465.753 264.33 465.072 264.825 464.548 265.479 464.181 266.132 463.813 266.935 463.629 267.889 463.629ZM213.889 463.629C215.214 463.629 216.261 464.017 217.029 464.791 217.798 465.566 218.182 466.67 218.182 468.104 218.182 468.177 218.179 468.276 218.173 468.401 218.167 468.525 218.158 468.621 218.146 468.688L211.902 468.688C211.915 469.107 211.992 469.499 212.135 469.864 212.278 470.228 212.504 470.521 212.814 470.743 213.124 470.965 213.531 471.076 214.035 471.076 214.558 471.076 214.977 470.962 215.293 470.734 215.609 470.506 215.77 470.167 215.776 469.718L218.155 469.718C218.125 470.41 217.935 470.988 217.585 471.449 217.236 471.911 216.759 472.256 216.154 472.484 215.55 472.712 214.843 472.826 214.035 472.826 213.045 472.826 212.212 472.642 211.538 472.274 210.863 471.907 210.353 471.377 210.007 470.684 209.66 469.991 209.487 469.159 209.487 468.186 209.487 467.245 209.656 466.433 209.993 465.753 210.33 465.072 210.825 464.548 211.479 464.181 212.132 463.813 212.935 463.629 213.889 463.629ZM185.889 463.629C187.214 463.629 188.261 464.017 189.029 464.791 189.798 465.566 190.182 466.67 190.182 468.104 190.182 468.177 190.179 468.276 190.173 468.401 190.167 468.525 190.158 468.621 190.146 468.688L183.902 468.688C183.915 469.107 183.992 469.499 184.135 469.864 184.278 470.228 184.504 470.521 184.814 470.743 185.124 470.965 185.531 471.076 186.035 471.076 186.558 471.076 186.977 470.962 187.293 470.734 187.609 470.506 187.77 470.167 187.776 469.718L190.155 469.718C190.125 470.41 189.935 470.988 189.585 471.449 189.236 471.911 188.759 472.256 188.154 472.484 187.55 472.712 186.843 472.826 186.035 472.826 185.045 472.826 184.212 472.642 183.538 472.274 182.863 471.907 182.353 471.377 182.007 470.684 181.66 469.991 181.487 469.159 181.487 468.186 181.487 467.245 181.656 466.433 181.993 465.753 182.33 465.072 182.825 464.548 183.479 464.181 184.132 463.813 184.935 463.629 185.889 463.629ZM232.677 462.526 232.677 470.529 234.409 470.529C235.278 470.529 235.999 470.382 236.574 470.087 237.148 469.792 237.578 469.345 237.863 468.747 238.149 468.148 238.292 467.393 238.292 466.482 238.292 465.613 238.138 464.885 237.831 464.299 237.525 463.713 237.083 463.271 236.505 462.973 235.928 462.675 235.229 462.526 234.409 462.526ZM141.677 462.526 141.677 470.529 143.409 470.529C144.278 470.529 144.999 470.382 145.574 470.087 146.148 469.792 146.578 469.345 146.863 468.747 147.149 468.148 147.292 467.393 147.292 466.482 147.292 465.613 147.138 464.885 146.832 464.299 146.525 463.713 146.083 463.271 145.505 462.973 144.928 462.675 144.229 462.526 143.409 462.526ZM230.116 460.393 234.682 460.393C235.995 460.393 237.118 460.637 238.05 461.123 238.983 461.609 239.695 462.308 240.188 463.219 240.68 464.13 240.926 465.224 240.926 466.5 240.926 467.819 240.677 468.937 240.178 469.854 239.68 470.772 238.965 471.469 238.032 471.946 237.099 472.423 235.983 472.662 234.682 472.662L230.116 472.662ZM219.861 460.393 222.267 460.393 222.267 469.417C222.267 469.885 222.331 470.228 222.458 470.447 222.586 470.666 222.884 470.775 223.352 470.775L223.908 470.775 223.908 472.662 223.279 472.662C222.373 472.662 221.675 472.554 221.182 472.338 220.69 472.122 220.347 471.788 220.152 471.336 219.958 470.883 219.861 470.292 219.861 469.563ZM171.116 460.393 173.677 460.393 173.677 466.245 178.08 460.393 180.914 460.393 176.375 466.145 181.215 472.662 178.253 472.662 173.677 466.382 173.677 472.662 171.116 472.662ZM152.116 460.393 155.06 460.393 158.392 466.063 161.677 460.393 164.512 460.393 164.512 472.662 161.987 472.662 161.987 463.712 159.098 468.742 157.521 468.742 154.568 463.727 154.568 472.662 152.116 472.662ZM139.116 460.393 143.682 460.393C144.995 460.393 146.118 460.637 147.05 461.123 147.983 461.609 148.695 462.308 149.188 463.219 149.68 464.13 149.926 465.224 149.926 466.5 149.926 467.819 149.677 468.937 149.178 469.854 148.68 470.772 147.965 471.469 147.032 471.946 146.099 472.423 144.983 472.662 143.682 472.662L139.116 472.662ZM110.116 460.393 113.06 460.393 116.392 466.063 119.677 460.393 122.512 460.393 122.512 472.662 119.987 472.662 119.987 463.712 117.098 468.742 115.521 468.742 112.568 463.727 112.568 472.662 110.116 472.662ZM251.155 460.248C251.599 460.248 251.937 460.359 252.171 460.58 252.405 460.802 252.522 461.083 252.522 461.423 252.522 461.758 252.405 462.037 252.171 462.262 251.937 462.487 251.599 462.599 251.155 462.599 250.711 462.599 250.373 462.487 250.139 462.262 249.905 462.037 249.788 461.758 249.788 461.423 249.788 461.083 249.905 460.802 250.139 460.58 250.373 460.359 250.711 460.248 251.155 460.248ZM130.53 460.229C131.49 460.229 132.374 460.395 133.182 460.726 133.991 461.057 134.647 461.546 135.151 462.194 135.656 462.841 135.932 463.638 135.981 464.586L133.356 464.586C133.289 464.088 133.126 463.675 132.868 463.347 132.61 463.018 132.28 462.772 131.879 462.608 131.478 462.444 131.028 462.362 130.53 462.362 129.728 462.362 129.082 462.557 128.593 462.946 128.104 463.334 127.749 463.843 127.527 464.472 127.305 465.101 127.194 465.789 127.194 466.537 127.194 467.278 127.305 467.965 127.527 468.597 127.749 469.229 128.104 469.736 128.593 470.119 129.082 470.502 129.728 470.693 130.53 470.693 131.375 470.693 132.042 470.476 132.531 470.041 133.02 469.607 133.301 468.989 133.374 468.186L135.999 468.186C135.926 469.189 135.662 470.035 135.206 470.725 134.75 471.415 134.127 471.937 133.337 472.293 132.547 472.648 131.612 472.826 130.53 472.826 129.29 472.826 128.224 472.566 127.331 472.046 126.438 471.527 125.751 470.798 125.271 469.859 124.791 468.92 124.551 467.813 124.551 466.537 124.551 465.261 124.791 464.15 125.271 463.205 125.751 462.26 126.438 461.528 127.331 461.009 128.224 460.489 129.29 460.229 130.53 460.229Z" fill="url(#fill5)" fill-rule="evenodd"/><text fill="#000000" fill-opacity="0" font-family="Arial,Arial_MSFontService,sans-serif" font-size="12.5963" x="110.116" y="471.251">MCDM Kernel Driver</text><rect x="74" y="504" width="240" height="69" fill="#0070C0"/><path d="M204.151 537.088C203.634 537.088 203.229 537.213 202.934 537.462 202.639 537.711 202.431 538.045 202.309 538.465 202.188 538.884 202.127 539.349 202.127 539.859 202.127 540.358 202.188 540.813 202.309 541.226 202.431 541.64 202.639 541.969 202.934 542.215 203.229 542.461 203.634 542.585 204.151 542.585 204.679 542.585 205.094 542.461 205.395 542.215 205.696 541.969 205.908 541.64 206.033 541.226 206.157 540.813 206.22 540.358 206.22 539.859 206.22 539.349 206.157 538.884 206.033 538.465 205.908 538.045 205.696 537.711 205.395 537.462 205.094 537.213 204.679 537.088 204.151 537.088ZM193.005 537.07C192.409 537.07 191.947 537.301 191.619 537.763 191.291 538.225 191.127 538.893 191.127 539.768 191.127 540.728 191.284 541.439 191.597 541.901 191.91 542.363 192.339 542.594 192.886 542.594 193.397 542.594 193.837 542.451 194.208 542.165 194.579 541.88 194.861 541.545 195.056 541.163L195.056 538.565C194.867 538.164 194.603 537.815 194.263 537.517 193.922 537.219 193.503 537.07 193.005 537.07ZM209.855 535.384 212.307 535.384 214.02 541.664 215.734 535.384 218.268 535.384 220.018 541.655 221.704 535.384 223.992 535.384 221.194 544.28 218.724 544.28 216.928 537.881 215.114 544.28 212.653 544.28ZM174.113 535.384 176.528 535.384 176.528 544.28 174.113 544.28ZM184.554 535.256C185.46 535.256 186.161 535.531 186.66 536.081 187.158 536.631 187.407 537.435 187.407 538.492L187.407 544.28 185.01 544.28 185.01 538.802C185.01 538.48 184.964 538.197 184.873 537.954 184.782 537.711 184.638 537.523 184.44 537.389 184.243 537.256 183.983 537.189 183.661 537.189 183.181 537.189 182.769 537.301 182.426 537.526 182.083 537.751 181.783 538.024 181.528 538.346L181.528 544.28 179.113 544.28 179.113 535.384 181.437 535.384 181.483 536.715C181.78 536.332 182.172 535.993 182.658 535.698 183.145 535.404 183.776 535.256 184.554 535.256ZM228.595 535.238C229.05 535.238 229.497 535.284 229.934 535.375 230.372 535.466 230.767 535.62 231.119 535.835 231.472 536.051 231.754 536.341 231.967 536.706 232.18 537.07 232.286 537.526 232.286 538.073L230.044 538.073C230.044 537.617 229.9 537.301 229.611 537.125 229.322 536.949 228.984 536.861 228.595 536.861 228.175 536.861 227.846 536.921 227.606 537.043 227.366 537.164 227.246 537.365 227.246 537.644 227.246 537.808 227.322 537.953 227.474 538.077 227.625 538.202 227.868 538.317 228.203 538.424 228.537 538.53 228.977 538.644 229.524 538.766 230.102 538.899 230.618 539.072 231.074 539.285 231.53 539.498 231.891 539.783 232.158 540.142 232.426 540.5 232.559 540.965 232.559 541.536 232.559 542.071 232.452 542.524 232.236 542.894 232.02 543.265 231.732 543.564 231.37 543.792 231.008 544.02 230.595 544.186 230.13 544.289 229.666 544.392 229.184 544.444 228.686 544.444 228.194 544.444 227.711 544.398 227.237 544.307 226.763 544.216 226.334 544.06 225.951 543.838 225.569 543.616 225.265 543.314 225.04 542.931 224.815 542.548 224.703 542.071 224.703 541.5L226.945 541.5C226.945 541.998 227.12 542.345 227.469 542.539 227.818 542.733 228.227 542.831 228.695 542.831 229.157 542.831 229.515 542.756 229.77 542.607 230.026 542.458 230.153 542.208 230.153 541.855 230.153 541.521 230.003 541.272 229.702 541.108 229.401 540.944 228.874 540.777 228.121 540.607 227.489 540.455 226.925 540.271 226.43 540.055 225.935 539.84 225.547 539.551 225.268 539.189 224.988 538.828 224.849 538.352 224.849 537.763 224.849 537.301 224.955 536.909 225.168 536.587 225.38 536.265 225.664 536.005 226.02 535.808 226.375 535.61 226.776 535.466 227.223 535.375 227.669 535.284 228.127 535.238 228.595 535.238ZM204.151 535.229C205.062 535.229 205.857 535.41 206.534 535.771 207.212 536.133 207.739 536.659 208.115 537.348 208.492 538.038 208.681 538.875 208.681 539.859 208.681 540.825 208.492 541.649 208.115 542.329 207.739 543.01 207.212 543.529 206.534 543.888 205.857 544.246 205.062 544.426 204.151 544.426 203.251 544.426 202.463 544.246 201.785 543.888 201.108 543.529 200.584 543.01 200.213 542.329 199.842 541.649 199.657 540.825 199.657 539.859 199.657 538.875 199.842 538.038 200.213 537.348 200.584 536.659 201.108 536.133 201.785 535.771 202.463 535.41 203.251 535.229 204.151 535.229ZM195.056 532.012 197.471 532.012 197.471 544.28 195.156 544.28 195.056 543.013C194.74 543.45 194.348 543.797 193.88 544.052 193.412 544.307 192.844 544.435 192.175 544.435 191.507 544.435 190.907 544.268 190.375 543.933 189.844 543.599 189.424 543.087 189.117 542.398 188.811 541.708 188.657 540.831 188.657 539.768 188.657 538.741 188.823 537.894 189.154 537.225 189.485 536.557 189.933 536.058 190.498 535.73 191.063 535.402 191.698 535.238 192.403 535.238 193.023 535.238 193.555 535.366 193.998 535.621 194.442 535.876 194.794 536.21 195.056 536.624ZM154.882 532.012 157.535 532.012 159.868 541.236 162.32 532.012 164.89 532.012 167.36 541.236 169.694 532.012 172.309 532.012 168.645 544.28 165.984 544.28 163.578 535.12 161.199 544.28 158.519 544.28ZM175.325 531.866C175.769 531.866 176.107 531.977 176.341 532.198 176.575 532.42 176.692 532.701 176.692 533.042 176.692 533.376 176.575 533.655 176.341 533.88 176.107 534.105 175.769 534.217 175.325 534.217 174.882 534.217 174.543 534.105 174.309 533.88 174.075 533.655 173.958 533.376 173.958 533.042 173.958 532.701 174.075 532.42 174.309 532.198 174.543 531.977 174.882 531.866 175.325 531.866Z" fill="url(#fill6)" fill-rule="evenodd"/><text fill="#000000" fill-opacity="0" font-family="Arial,Arial_MSFontService,sans-serif" font-size="12.5781" x="154.882" y="542.872">Windows</text><rect x="74" y="576" width="486" height="68" fill="#50164A"/><path d="M304.06 611.787C302.783 611.793 301.89 611.913 301.38 612.147 300.869 612.381 300.614 612.76 300.614 613.282 300.614 613.659 300.731 613.938 300.965 614.121 301.199 614.303 301.501 614.394 301.872 614.394 302.328 614.394 302.749 614.276 303.134 614.039 303.52 613.802 303.829 613.531 304.06 613.227ZM323.547 608.688C322.951 608.688 322.489 608.919 322.161 609.381 321.833 609.843 321.669 610.511 321.669 611.386 321.669 612.346 321.825 613.057 322.138 613.519 322.451 613.981 322.881 614.212 323.428 614.212 323.938 614.212 324.379 614.069 324.75 613.783 325.12 613.498 325.403 613.164 325.597 612.781L325.597 610.183C325.409 609.782 325.145 609.433 324.804 609.135 324.464 608.837 324.045 608.688 323.547 608.688ZM314.096 606.875C315.001 606.875 315.703 607.15 316.201 607.699 316.7 608.249 316.949 609.053 316.949 610.11L316.949 615.898 314.552 615.898 314.552 610.42C314.552 610.098 314.506 609.816 314.415 609.573 314.324 609.329 314.18 609.141 313.982 609.007 313.785 608.874 313.525 608.807 313.203 608.807 312.723 608.807 312.311 608.919 311.968 609.144 311.624 609.369 311.325 609.642 311.07 609.964L311.07 615.898 308.655 615.898 308.655 607.002 310.979 607.002 311.024 608.333C311.322 607.95 311.714 607.611 312.2 607.317 312.686 607.022 313.318 606.875 314.096 606.875ZM302.601 606.865C303.166 606.865 303.683 606.913 304.151 607.007 304.619 607.101 305.024 607.263 305.367 607.494 305.711 607.725 305.977 608.04 306.165 608.438 306.353 608.836 306.448 609.332 306.448 609.928L306.448 615.898 304.187 615.898 304.114 614.74C303.737 615.172 303.3 615.498 302.802 615.72 302.303 615.942 301.729 616.053 301.079 616.053 300.575 616.053 300.104 615.956 299.666 615.761 299.229 615.567 298.875 615.274 298.604 614.882 298.334 614.49 298.199 613.999 298.199 613.41 298.199 612.589 298.445 611.971 298.937 611.555 299.429 611.139 300.117 610.856 301.002 610.707 301.886 610.558 302.914 610.472 304.087 610.448L304.087 609.974C304.087 609.396 303.949 609.001 303.672 608.789 303.396 608.576 303.039 608.47 302.601 608.47 302.121 608.47 301.726 608.584 301.416 608.811 301.106 609.039 300.951 609.408 300.951 609.919L298.691 609.919C298.691 609.159 298.857 608.558 299.188 608.114 299.519 607.671 299.978 607.352 300.564 607.157 301.15 606.963 301.829 606.865 302.601 606.865ZM373.139 606.164 371.544 611.076 374.734 611.076ZM347.389 605.699 347.389 609.472 349.403 609.472C349.999 609.472 350.48 609.314 350.848 608.998 351.216 608.682 351.399 608.214 351.399 607.595 351.399 606.951 351.211 606.474 350.834 606.164 350.458 605.854 349.981 605.699 349.403 605.699ZM273.389 605.699 273.389 609.472 275.403 609.472C275.999 609.472 276.48 609.314 276.848 608.998 277.216 608.682 277.399 608.214 277.399 607.595 277.399 606.951 277.211 606.474 276.834 606.164 276.458 605.854 275.981 605.699 275.403 605.699ZM371.799 603.63 374.488 603.63 378.909 615.898 376.238 615.898 375.363 613.2 370.933 613.2 370.031 615.898 367.388 615.898ZM344.828 603.63 349.64 603.63C350.448 603.63 351.185 603.773 351.851 604.058 352.516 604.344 353.046 604.778 353.441 605.362 353.836 605.945 354.034 606.689 354.034 607.595 354.034 608.488 353.836 609.226 353.441 609.809 353.046 610.393 352.516 610.826 351.851 611.108 351.185 611.391 350.448 611.532 349.64 611.532L347.389 611.532 347.389 615.898 344.828 615.898ZM334.828 603.63 342.849 603.63 342.849 605.753 337.389 605.753 337.389 608.625 342.284 608.625 342.284 610.657 337.389 610.657 337.389 615.898 334.828 615.898ZM325.597 603.63 328.013 603.63 328.013 615.898 325.698 615.898 325.597 614.631C325.281 615.069 324.889 615.415 324.422 615.67 323.954 615.925 323.385 616.053 322.717 616.053 322.049 616.053 321.449 615.886 320.917 615.552 320.385 615.217 319.966 614.706 319.659 614.016 319.352 613.326 319.199 612.45 319.199 611.386 319.199 610.359 319.364 609.512 319.696 608.843 320.027 608.175 320.475 607.677 321.04 607.349 321.605 607.02 322.24 606.856 322.945 606.856 323.565 606.856 324.096 606.984 324.54 607.239 324.984 607.494 325.336 607.829 325.597 608.242ZM281.682 603.63 284.307 603.63 284.307 610.958C284.307 611.967 284.514 612.717 284.927 613.209 285.34 613.701 285.99 613.948 286.877 613.948 287.77 613.948 288.416 613.701 288.814 613.209 289.212 612.717 289.411 611.967 289.411 610.958L289.411 603.63 292.045 603.63 292.045 611.022C292.045 612.103 291.866 613.021 291.507 613.774 291.149 614.528 290.588 615.097 289.826 615.483 289.063 615.869 288.074 616.062 286.859 616.062 285.656 616.062 284.672 615.869 283.906 615.483 283.14 615.097 282.578 614.528 282.22 613.774 281.861 613.021 281.682 612.103 281.682 611.022ZM270.828 603.63 275.64 603.63C276.448 603.63 277.185 603.773 277.851 604.058 278.516 604.344 279.046 604.778 279.441 605.362 279.836 605.945 280.033 606.689 280.033 607.595 280.033 608.488 279.836 609.226 279.441 609.809 279.046 610.393 278.516 610.826 277.851 611.108 277.185 611.391 276.448 611.532 275.64 611.532L273.389 611.532 273.389 615.898 270.828 615.898ZM256.828 603.63 259.334 603.63 264.976 611.897 264.976 603.63 267.392 603.63 267.392 615.898 264.876 615.898 259.225 607.576 259.225 615.898 256.828 615.898ZM361.297 603.466C361.928 603.466 362.548 603.548 363.156 603.712 363.764 603.876 364.32 604.13 364.824 604.473 365.328 604.816 365.744 605.252 366.073 605.781 366.401 606.309 366.598 606.935 366.665 607.658L364.049 607.658C364 607.257 363.861 606.902 363.63 606.592 363.399 606.282 363.083 606.039 362.682 605.863 362.281 605.687 361.801 605.599 361.242 605.599 360.44 605.599 359.793 605.791 359.3 606.177 358.808 606.563 358.45 607.071 358.225 607.699 358 608.328 357.888 609.02 357.888 609.773 357.888 610.52 358.002 611.21 358.229 611.842 358.457 612.474 358.82 612.981 359.319 613.364 359.817 613.747 360.476 613.938 361.297 613.938 361.904 613.938 362.422 613.834 362.851 613.624 363.279 613.414 363.613 613.124 363.853 612.753 364.093 612.383 364.231 611.954 364.268 611.468L361.36 611.468 361.36 609.427 366.838 609.427 366.838 610.675C366.838 611.739 366.624 612.674 366.196 613.483 365.767 614.291 365.141 614.923 364.318 615.378 363.495 615.834 362.487 616.062 361.297 616.062 360.039 616.062 358.96 615.802 358.061 615.283 357.161 614.763 356.47 614.033 355.987 613.091 355.504 612.149 355.263 611.043 355.263 609.773 355.263 608.497 355.504 607.387 355.987 606.442 356.47 605.497 357.161 604.765 358.061 604.245 358.96 603.725 360.039 603.466 361.297 603.466Z" fill="url(#fill7)" fill-rule="evenodd"/><text fill="#000000" fill-opacity="0" font-family="Arial,Arial_MSFontService,sans-serif" font-size="12.5964" x="256.828" y="614.488">NPU and FPGA</text><rect x="320" y="432" width="240" height="68" fill="#3B7D23"/><path d="M508.694 464.6C508.135 464.6 507.677 464.758 507.322 465.074 506.967 465.39 506.771 465.849 506.734 466.45L510.59 466.45C510.571 465.83 510.388 465.367 510.038 465.06 509.689 464.753 509.241 464.6 508.694 464.6ZM455.694 464.6C455.135 464.6 454.677 464.758 454.322 465.074 453.967 465.39 453.771 465.849 453.734 466.45L457.59 466.45C457.571 465.83 457.388 465.367 457.038 465.06 456.689 464.753 456.241 464.6 455.694 464.6ZM427.694 464.6C427.135 464.6 426.677 464.758 426.322 465.074 425.967 465.39 425.771 465.849 425.734 466.45L429.59 466.45C429.571 465.83 429.388 465.367 429.038 465.06 428.689 464.753 428.241 464.6 427.694 464.6ZM396.694 464.6C396.135 464.6 395.677 464.758 395.322 465.074 394.967 465.39 394.771 465.849 394.734 466.45L398.59 466.45C398.571 465.83 398.388 465.367 398.038 465.06 397.689 464.753 397.241 464.6 396.694 464.6ZM494.453 463.06 496.969 463.06 499.065 469.704 501.225 463.06 503.668 463.06 500.441 471.955 497.689 471.955ZM490.747 463.06 493.163 463.06 493.163 471.955 490.747 471.955ZM520.824 462.941 521.006 462.941 521.006 464.974 520.778 464.974C520.42 464.974 520.077 465.006 519.748 465.069 519.42 465.133 519.123 465.243 518.855 465.397 518.588 465.552 518.357 465.767 518.162 466.04L518.162 471.955 515.747 471.955 515.747 463.06 518.062 463.06 518.108 464.6C518.339 464.065 518.685 463.655 519.147 463.369 519.609 463.084 520.168 462.941 520.824 462.941ZM489.824 462.941 490.006 462.941 490.006 464.974 489.778 464.974C489.42 464.974 489.077 465.006 488.748 465.069 488.42 465.133 488.123 465.243 487.855 465.397 487.588 465.552 487.357 465.767 487.163 466.04L487.163 471.955 484.747 471.955 484.747 463.06 487.062 463.06 487.108 464.6C487.339 464.065 487.685 463.655 488.147 463.369 488.609 463.084 489.168 462.941 489.824 462.941ZM438.824 462.941 439.006 462.941 439.006 464.974 438.778 464.974C438.42 464.974 438.077 465.006 437.748 465.069 437.42 465.133 437.123 465.243 436.855 465.397 436.588 465.552 436.357 465.767 436.163 466.04L436.163 471.955 433.747 471.955 433.747 463.06 436.062 463.06 436.108 464.6C436.339 464.065 436.685 463.655 437.147 463.369 437.609 463.084 438.168 462.941 438.824 462.941ZM446.189 462.932C447.094 462.932 447.796 463.207 448.294 463.757 448.792 464.307 449.041 465.11 449.041 466.168L449.041 471.955 446.644 471.955 446.644 466.478C446.644 466.156 446.599 465.873 446.508 465.63 446.416 465.387 446.272 465.198 446.075 465.065 445.877 464.931 445.617 464.864 445.295 464.864 444.815 464.864 444.404 464.977 444.06 465.202 443.717 465.426 443.418 465.7 443.163 466.022L443.163 471.955 440.747 471.955 440.747 463.06 443.071 463.06 443.117 464.39C443.415 464.008 443.807 463.669 444.293 463.374 444.779 463.079 445.411 462.932 446.189 462.932ZM508.694 462.923C510.018 462.923 511.065 463.31 511.834 464.085 512.602 464.86 512.987 465.964 512.987 467.398 512.987 467.471 512.984 467.57 512.978 467.694 512.972 467.819 512.962 467.915 512.95 467.981L506.707 467.981C506.719 468.401 506.796 468.793 506.939 469.157 507.082 469.522 507.308 469.815 507.618 470.037 507.928 470.259 508.335 470.369 508.84 470.369 509.362 470.369 509.781 470.256 510.097 470.028 510.413 469.8 510.574 469.461 510.58 469.011L512.959 469.011C512.929 469.704 512.739 470.281 512.39 470.743 512.04 471.205 511.563 471.55 510.959 471.778 510.354 472.006 509.648 472.119 508.84 472.119 507.849 472.119 507.017 471.936 506.342 471.568 505.668 471.2 505.157 470.67 504.811 469.978 504.465 469.285 504.291 468.452 504.291 467.48 504.291 466.538 504.46 465.727 504.797 465.047 505.135 464.366 505.63 463.842 506.283 463.474 506.936 463.107 507.74 462.923 508.694 462.923ZM455.694 462.923C457.018 462.923 458.065 463.31 458.834 464.085 459.602 464.86 459.987 465.964 459.987 467.398 459.987 467.471 459.984 467.57 459.978 467.694 459.972 467.819 459.962 467.915 459.95 467.981L453.707 467.981C453.719 468.401 453.796 468.793 453.939 469.157 454.082 469.522 454.308 469.815 454.618 470.037 454.928 470.259 455.335 470.369 455.84 470.369 456.362 470.369 456.781 470.256 457.097 470.028 457.413 469.8 457.574 469.461 457.58 469.011L459.959 469.011C459.929 469.704 459.739 470.281 459.39 470.743 459.04 471.205 458.563 471.55 457.959 471.778 457.354 472.006 456.648 472.119 455.84 472.119 454.849 472.119 454.017 471.936 453.342 471.568 452.668 471.2 452.157 470.67 451.811 469.978 451.465 469.285 451.291 468.452 451.291 467.48 451.291 466.538 451.46 465.727 451.797 465.047 452.135 464.366 452.63 463.842 453.283 463.474 453.936 463.107 454.74 462.923 455.694 462.923ZM427.694 462.923C429.018 462.923 430.065 463.31 430.834 464.085 431.602 464.86 431.987 465.964 431.987 467.398 431.987 467.471 431.984 467.57 431.978 467.694 431.972 467.819 431.962 467.915 431.95 467.981L425.707 467.981C425.719 468.401 425.796 468.793 425.939 469.157 426.082 469.522 426.308 469.815 426.618 470.037 426.928 470.259 427.335 470.369 427.84 470.369 428.362 470.369 428.781 470.256 429.097 470.028 429.413 469.8 429.574 469.461 429.58 469.011L431.959 469.011C431.929 469.704 431.739 470.281 431.39 470.743 431.04 471.205 430.563 471.55 429.959 471.778 429.354 472.006 428.648 472.119 427.84 472.119 426.849 472.119 426.017 471.936 425.342 471.568 424.668 471.2 424.157 470.67 423.811 469.978 423.465 469.285 423.291 468.452 423.291 467.48 423.291 466.538 423.46 465.727 423.797 465.047 424.135 464.366 424.63 463.842 425.283 463.474 425.936 463.107 426.74 462.923 427.694 462.923ZM396.694 462.923C398.018 462.923 399.065 463.31 399.834 464.085 400.602 464.86 400.987 465.964 400.987 467.398 400.987 467.471 400.984 467.57 400.978 467.694 400.972 467.819 400.962 467.915 400.95 467.981L394.707 467.981C394.719 468.401 394.796 468.793 394.939 469.157 395.082 469.522 395.308 469.815 395.618 470.037 395.928 470.259 396.335 470.369 396.84 470.369 397.362 470.369 397.781 470.256 398.097 470.028 398.413 469.8 398.574 469.461 398.58 469.011L400.959 469.011C400.929 469.704 400.739 470.281 400.39 470.743 400.04 471.205 399.563 471.55 398.959 471.778 398.354 472.006 397.648 472.119 396.84 472.119 395.849 472.119 395.017 471.936 394.342 471.568 393.668 471.2 393.157 470.67 392.811 469.978 392.465 469.285 392.291 468.452 392.291 467.48 392.291 466.538 392.46 465.727 392.797 465.047 393.135 464.366 393.63 463.842 394.283 463.474 394.936 463.107 395.74 462.923 396.694 462.923ZM386.739 462.923C387.493 462.923 388.173 463.047 388.781 463.297 389.389 463.546 389.872 463.918 390.23 464.413 390.589 464.908 390.771 465.533 390.777 466.286L388.435 466.286C388.422 465.83 388.271 465.467 387.979 465.197 387.687 464.927 387.277 464.791 386.748 464.791 386.05 464.791 385.544 465.031 385.231 465.511 384.918 465.991 384.761 466.669 384.761 467.544 384.761 468.109 384.83 468.591 384.967 468.989 385.103 469.387 385.319 469.69 385.614 469.9 385.908 470.11 386.287 470.215 386.748 470.215 387.289 470.215 387.716 470.067 388.029 469.772 388.342 469.478 388.505 469.06 388.517 468.519L390.859 468.519C390.841 469.291 390.654 469.941 390.299 470.47 389.943 470.998 389.458 471.399 388.845 471.673 388.231 471.946 387.529 472.083 386.739 472.083 385.913 472.083 385.163 471.925 384.488 471.609 383.814 471.293 383.279 470.801 382.884 470.133 382.489 469.464 382.291 468.601 382.291 467.544 382.291 466.487 382.48 465.618 382.857 464.937 383.233 464.257 383.757 463.751 384.429 463.42 385.1 463.088 385.87 462.923 386.739 462.923ZM376.739 462.923C377.493 462.923 378.173 463.047 378.781 463.297 379.389 463.546 379.872 463.918 380.23 464.413 380.589 464.908 380.771 465.533 380.777 466.286L378.435 466.286C378.422 465.83 378.271 465.467 377.979 465.197 377.687 464.927 377.277 464.791 376.748 464.791 376.05 464.791 375.544 465.031 375.231 465.511 374.918 465.991 374.761 466.669 374.761 467.544 374.761 468.109 374.83 468.591 374.967 468.989 375.103 469.387 375.319 469.69 375.614 469.9 375.908 470.11 376.287 470.215 376.748 470.215 377.289 470.215 377.716 470.067 378.029 469.772 378.342 469.478 378.505 469.06 378.517 468.519L380.859 468.519C380.841 469.291 380.654 469.941 380.299 470.47 379.943 470.998 379.459 471.399 378.845 471.673 378.231 471.946 377.529 472.083 376.739 472.083 375.913 472.083 375.163 471.925 374.488 471.609 373.814 471.293 373.279 470.801 372.884 470.133 372.489 469.464 372.291 468.601 372.291 467.544 372.291 466.487 372.48 465.618 372.857 464.937 373.233 464.257 373.757 463.751 374.429 463.42 375.1 463.088 375.87 462.923 376.739 462.923ZM365.232 462.221 363.636 467.134 366.827 467.134ZM473.482 461.82 473.482 469.823 475.213 469.823C476.082 469.823 476.804 469.675 477.378 469.381 477.952 469.086 478.382 468.639 478.668 468.041 478.953 467.442 479.096 466.687 479.096 465.776 479.096 464.907 478.943 464.179 478.636 463.593 478.329 463.006 477.887 462.564 477.31 462.267 476.732 461.969 476.034 461.82 475.213 461.82ZM470.92 459.687 475.487 459.687C476.799 459.687 477.922 459.93 478.855 460.416 479.787 460.902 480.5 461.601 480.992 462.513 481.484 463.424 481.73 464.518 481.73 465.794 481.73 467.113 481.481 468.231 480.983 469.148 480.485 470.066 479.769 470.763 478.836 471.24 477.904 471.717 476.787 471.955 475.487 471.955L470.92 471.955ZM461.665 459.687 464.071 459.687 464.071 468.711C464.071 469.179 464.135 469.522 464.263 469.741 464.39 469.959 464.688 470.069 465.156 470.069L465.712 470.069 465.712 471.955 465.083 471.955C464.178 471.955 463.479 471.848 462.987 471.632 462.495 471.416 462.151 471.082 461.957 470.629 461.762 470.177 461.665 469.586 461.665 468.856ZM412.92 459.687 415.482 459.687 415.482 465.539 419.884 459.687 422.719 459.687 418.179 465.439 423.019 471.955 420.057 471.955 415.482 465.675 415.482 471.955 412.92 471.955ZM402.665 459.687 405.071 459.687 405.071 468.711C405.071 469.179 405.135 469.522 405.263 469.741 405.39 469.959 405.688 470.069 406.156 470.069L406.712 470.069 406.712 471.955 406.083 471.955C405.178 471.955 404.479 471.848 403.987 471.632 403.495 471.416 403.151 471.082 402.957 470.629 402.762 470.177 402.665 469.586 402.665 468.856ZM363.892 459.687 366.58 459.687 371.001 471.955 368.33 471.955 367.455 469.258 363.026 469.258 362.123 471.955 359.48 471.955ZM491.959 459.541C492.403 459.541 492.742 459.652 492.976 459.874 493.21 460.096 493.327 460.377 493.327 460.717 493.327 461.051 493.21 461.331 492.976 461.556 492.742 461.781 492.403 461.893 491.959 461.893 491.516 461.893 491.177 461.781 490.943 461.556 490.709 461.331 490.592 461.051 490.592 460.717 490.592 460.377 490.709 460.096 490.943 459.874 491.177 459.652 491.516 459.541 491.959 459.541Z" fill="url(#fill8)" fill-rule="evenodd"/><text fill="#000000" fill-opacity="0" font-family="Arial,Arial_MSFontService,sans-serif" font-size="12.5781" x="359.48" y="470.547">Accel Kernel Driver</text><rect x="320" y="505" width="240" height="68" fill="#0070C0"/><path d="M453.868 535.71 456.447 535.71 458.185 538.573 459.901 535.71 462.481 535.71 459.631 539.985 462.754 544.606 460.175 544.606 458.152 541.418 456.137 544.606 453.567 544.606 456.7 539.947ZM443.752 535.71 446.167 535.71 446.167 541.224C446.167 541.528 446.211 541.797 446.299 542.031 446.387 542.265 446.533 542.446 446.737 542.573 446.94 542.701 447.209 542.765 447.543 542.765 448.03 542.765 448.444 542.657 448.788 542.441 449.131 542.225 449.43 541.962 449.685 541.653L449.685 535.71 452.101 535.71 452.101 544.606 449.767 544.606 449.731 543.266C449.433 543.643 449.026 543.98 448.51 544.278 447.993 544.575 447.349 544.724 446.577 544.724 445.678 544.724 444.982 544.446 444.49 543.89 443.998 543.334 443.752 542.543 443.752 541.516ZM428.834 535.71 431.249 535.71 431.249 544.606 428.834 544.606ZM439.275 535.582C440.181 535.582 440.882 535.857 441.381 536.407 441.879 536.957 442.128 537.761 442.128 538.818L442.128 544.606 439.731 544.606 439.731 539.128C439.731 538.806 439.685 538.523 439.594 538.28 439.503 538.037 439.359 537.849 439.161 537.715 438.964 537.581 438.704 537.515 438.382 537.515 437.902 537.515 437.49 537.627 437.147 537.852 436.804 538.077 436.504 538.35 436.249 538.672L436.249 544.606 433.834 544.606 433.834 535.71 436.158 535.71 436.204 537.041C436.501 536.658 436.893 536.319 437.379 536.024 437.865 535.73 438.497 535.582 439.275 535.582ZM419.007 532.337 421.568 532.337 421.568 542.354 426.745 542.354 426.745 544.606 419.007 544.606ZM430.046 532.192C430.49 532.192 430.828 532.303 431.062 532.524 431.296 532.746 431.413 533.027 431.413 533.367 431.413 533.702 431.296 533.981 431.062 534.206 430.828 534.431 430.49 534.543 430.046 534.543 429.602 534.543 429.264 534.431 429.03 534.206 428.796 533.981 428.679 533.702 428.679 533.367 428.679 533.027 428.796 532.746 429.03 532.524 429.264 532.303 429.602 532.192 430.046 532.192Z" fill="url(#fill9)" fill-rule="evenodd"/><text fill="#000000" fill-opacity="0" font-family="Arial,Arial_MSFontService,sans-serif" font-size="12.5325" x="419.007" y="543.158">Linux</text><rect x="449" y="302" width="111" height="54" fill="#C00000"/><path d="M474.75 325.814 477.33 325.814 479.068 328.677 480.784 325.814 483.364 325.814 480.513 330.089 483.637 334.709 481.058 334.709 479.035 331.522 477.02 334.709 474.45 334.709 477.583 330.051ZM489.793 325.695 489.976 325.695 489.976 327.728 489.748 327.728C489.389 327.728 489.046 327.759 488.718 327.823 488.39 327.887 488.092 327.996 487.825 328.151 487.557 328.306 487.326 328.521 487.132 328.794L487.132 334.709 484.717 334.709 484.717 325.814 487.032 325.814 487.077 327.354C487.308 326.819 487.655 326.409 488.116 326.123 488.578 325.838 489.137 325.695 489.793 325.695ZM492.099 323.717 494.515 323.717 494.515 325.814 496.456 325.814 496.456 327.673 494.515 327.673 494.515 331.465C494.515 331.932 494.58 332.279 494.711 332.504 494.841 332.728 495.138 332.841 495.599 332.841L496.456 332.841 496.456 334.709 495.517 334.709C494.618 334.709 493.921 334.601 493.426 334.386 492.93 334.17 492.586 333.836 492.391 333.383 492.197 332.93 492.099 332.34 492.099 331.61L492.099 327.673 490.623 327.673 490.623 325.814 492.099 325.814Z" fill="url(#fill10)" fill-rule="evenodd"/><text fill="#000000" fill-opacity="0" font-family="Arial,Arial_MSFontService,sans-serif" font-size="10.9922" x="474.45" y="333.335">xrt</text><path d="M497.692 329.186 502.732 329.186 502.732 331.237 497.692 331.237Z" fill="url(#fill11)" fill-rule="evenodd"/><text fill="#000000" fill-opacity="0" font-family="Arial,Arial_MSFontService,sans-serif" font-size="2.05078" x="497.692" y="330.98">-</text><path d="M530.663 325.814 533.079 325.814 533.079 334.709 530.663 334.709ZM520.141 325.686C521.034 325.686 521.719 325.967 522.196 326.529L522.631 327.354 522.602 327.208C522.985 326.801 523.454 326.445 524.01 326.142 524.566 325.838 525.221 325.686 525.974 325.686 526.862 325.686 527.547 325.967 528.03 326.529 528.513 327.091 528.754 327.889 528.754 328.922L528.754 334.709 526.339 334.709 526.339 329.231C526.339 328.909 526.295 328.627 526.207 328.384 526.119 328.141 525.976 327.952 525.779 327.819 525.581 327.685 525.324 327.618 525.008 327.618 524.54 327.618 524.138 327.721 523.801 327.928 523.463 328.135 523.161 328.393 522.894 328.703L522.863 328.544 522.912 328.922 522.912 334.709 520.497 334.709 520.497 329.231C520.497 328.909 520.453 328.627 520.364 328.384 520.276 328.141 520.134 327.952 519.936 327.819 519.739 327.685 519.482 327.618 519.166 327.618 518.698 327.618 518.297 327.731 517.963 327.955 517.629 328.18 517.334 328.454 517.079 328.776L517.079 334.709 514.663 334.709 514.663 325.814 516.987 325.814 517.033 327.144C517.325 326.761 517.727 326.423 518.241 326.128 518.754 325.833 519.388 325.686 520.141 325.686ZM508.145 325.668C508.601 325.668 509.047 325.713 509.485 325.804 509.922 325.896 510.317 326.049 510.67 326.265 511.022 326.48 511.305 326.771 511.517 327.135 511.73 327.5 511.836 327.955 511.836 328.502L509.594 328.502C509.594 328.047 509.45 327.731 509.161 327.554 508.873 327.378 508.534 327.29 508.145 327.29 507.726 327.29 507.396 327.351 507.156 327.472 506.916 327.594 506.796 327.794 506.796 328.074 506.796 328.238 506.872 328.382 507.024 328.507 507.176 328.631 507.419 328.747 507.753 328.853 508.087 328.96 508.528 329.073 509.075 329.195 509.652 329.329 510.169 329.502 510.624 329.715 511.08 329.927 511.441 330.213 511.709 330.571 511.976 330.93 512.11 331.395 512.11 331.966 512.11 332.501 512.002 332.953 511.786 333.324 511.571 333.695 511.282 333.994 510.92 334.222 510.559 334.45 510.146 334.615 509.681 334.718 509.216 334.822 508.734 334.873 508.236 334.873 507.744 334.873 507.261 334.828 506.787 334.737 506.313 334.646 505.885 334.489 505.502 334.267 505.119 334.046 504.815 333.743 504.59 333.36 504.366 332.978 504.253 332.501 504.253 331.929L506.495 331.929C506.495 332.428 506.67 332.774 507.019 332.968 507.369 333.163 507.777 333.26 508.245 333.26 508.707 333.26 509.066 333.186 509.321 333.037 509.576 332.888 509.704 332.637 509.704 332.285 509.704 331.951 509.553 331.702 509.252 331.537 508.952 331.373 508.425 331.206 507.671 331.036 507.039 330.884 506.476 330.7 505.98 330.485 505.485 330.269 505.098 329.98 504.818 329.619 504.539 329.257 504.399 328.782 504.399 328.192 504.399 327.731 504.505 327.339 504.718 327.017 504.931 326.695 505.215 326.435 505.57 326.237 505.926 326.04 506.327 325.896 506.773 325.804 507.22 325.713 507.677 325.668 508.145 325.668ZM531.876 322.295C532.319 322.295 532.658 322.406 532.892 322.628 533.126 322.85 533.243 323.131 533.243 323.471 533.243 323.805 533.126 324.085 532.892 324.31 532.658 324.534 532.319 324.647 531.876 324.647 531.432 324.647 531.093 324.534 530.859 324.31 530.625 324.085 530.508 323.805 530.508 323.471 530.508 323.131 530.625 322.85 530.859 322.628 531.093 322.406 531.432 322.295 531.876 322.295Z" fill="url(#fill12)" fill-rule="evenodd"/><text fill="#000000" fill-opacity="0" font-family="Arial,Arial_MSFontService,sans-serif" font-size="12.5781" x="504.253" y="333.301">smi</text></g></svg>