<svg width="1280" height="720" xmlns="http://www.w3.org/2000/svg" xmlns:xlink="http://www.w3.org/1999/xlink" overflow="hidden"><defs><linearGradient x1="634.323" y1="309.823" x2="634.323" y2="341.823" gradientUnits="userSpaceOnUse" spreadMethod="reflect" id="fill0"><stop offset="0" stop-color="#FFFFFF"/><stop offset="1" stop-color="#FFFFFF"/></linearGradient><linearGradient x1="495.51" y1="120.746" x2="495.51" y2="152.746" gradientUnits="userSpaceOnUse" spreadMethod="reflect" id="fill1"><stop offset="0" stop-color="#FFFFFF"/><stop offset="1" stop-color="#FFFFFF"/></linearGradient><linearGradient x1="477.942" y1="225.613" x2="477.942" y2="257.613" gradientUnits="userSpaceOnUse" spreadMethod="reflect" id="fill2"><stop offset="0" stop-color="#FFFFFF"/><stop offset="1" stop-color="#FFFFFF"/></linearGradient><linearGradient x1="200.427" y1="224.752" x2="200.427" y2="256.752" gradientUnits="userSpaceOnUse" spreadMethod="reflect" id="fill3"><stop offset="0" stop-color="#FFFFFF"/><stop offset="1" stop-color="#FFFFFF"/></linearGradient><linearGradient x1="778.477" y1="226.004" x2="778.477" y2="258.004" gradientUnits="userSpaceOnUse" spreadMethod="reflect" id="fill4"><stop offset="0" stop-color="#FFFFFF"/><stop offset="1" stop-color="#FFFFFF"/></linearGradient><linearGradient x1="342.704" y1="385.408" x2="342.704" y2="417.408" gradientUnits="userSpaceOnUse" spreadMethod="reflect" id="fill5"><stop offset="0" stop-color="#FFFFFF"/><stop offset="1" stop-color="#FFFFFF"/></linearGradient><linearGradient x1="342.7" y1="417.408" x2="342.7" y2="449.408" gradientUnits="userSpaceOnUse" spreadMethod="reflect" id="fill6"><stop offset="0" stop-color="#FFFFFF"/><stop offset="1" stop-color="#FFFFFF"/></linearGradient><linearGradient x1="342.701" y1="492.993" x2="342.701" y2="524.993" gradientUnits="userSpaceOnUse" spreadMethod="reflect" id="fill7"><stop offset="0" stop-color="#FFFFFF"/><stop offset="1" stop-color="#FFFFFF"/></linearGradient><linearGradient x1="634.321" y1="584.578" x2="634.321" y2="616.578" gradientUnits="userSpaceOnUse" spreadMethod="reflect" id="fill8"><stop offset="0" stop-color="#FFFFFF"/><stop offset="1" stop-color="#FFFFFF"/></linearGradient><linearGradient x1="925.941" y1="384.505" x2="925.941" y2="416.505" gradientUnits="userSpaceOnUse" spreadMethod="reflect" id="fill9"><stop offset="0" stop-color="#FFFFFF"/><stop offset="1" stop-color="#FFFFFF"/></linearGradient><linearGradient x1="925.944" y1="416.505" x2="925.944" y2="448.505" gradientUnits="userSpaceOnUse" spreadMethod="reflect" id="fill10"><stop offset="0" stop-color="#FFFFFF"/><stop offset="1" stop-color="#FFFFFF"/></linearGradient><linearGradient x1="925.944" y1="493.41" x2="925.944" y2="525.41" gradientUnits="userSpaceOnUse" spreadMethod="reflect" id="fill11"><stop offset="0" stop-color="#FFFFFF"/><stop offset="1" stop-color="#FFFFFF"/></linearGradient><linearGradient x1="1078.44" y1="224.995" x2="1078.44" y2="256.995" gradientUnits="userSpaceOnUse" spreadMethod="reflect" id="fill12"><stop offset="0" stop-color="#FFFFFF"/><stop offset="1" stop-color="#FFFFFF"/></linearGradient><linearGradient x1="1078.44" y1="224.995" x2="1078.44" y2="256.995" gradientUnits="userSpaceOnUse" spreadMethod="reflect" id="fill13"><stop offset="0" stop-color="#FFFFFF"/><stop offset="1" stop-color="#FFFFFF"/></linearGradient><linearGradient x1="1078.44" y1="224.995" x2="1078.44" y2="256.995" gradientUnits="userSpaceOnUse" spreadMethod="reflect" id="fill14"><stop offset="0" stop-color="#FFFFFF"/><stop offset="1" stop-color="#FFFFFF"/></linearGradient></defs><g><rect x="0" y="0" width="1280" height="720" fill="#000000" fill-opacity="0"/><rect x="59" y="282" width="1151" height="87" fill="#0B3041"/><path d="M734.39 328.951C732.567 328.959 731.291 329.131 730.562 329.465 729.833 329.799 729.468 330.34 729.468 331.086 729.468 331.624 729.635 332.024 729.97 332.284 730.304 332.544 730.736 332.675 731.265 332.675 731.916 332.675 732.517 332.505 733.069 332.167 733.62 331.828 734.06 331.442 734.39 331.008ZM638.39 328.951C636.567 328.959 635.291 329.131 634.562 329.465 633.833 329.799 633.468 330.34 633.468 331.086 633.468 331.624 633.635 332.024 633.97 332.284 634.304 332.544 634.736 332.675 635.265 332.675 635.916 332.675 636.517 332.505 637.069 332.167 637.62 331.828 638.06 331.442 638.39 331.008ZM622.322 324.537C621.541 324.537 620.873 324.756 620.317 325.194 619.762 325.633 619.362 326.112 619.119 326.633L619.119 330.383C619.397 330.939 619.786 331.416 620.285 331.815 620.784 332.215 621.372 332.414 622.049 332.414 622.917 332.414 623.581 332.08 624.041 331.412 624.501 330.743 624.731 329.775 624.731 328.508 624.731 327.163 624.516 326.164 624.087 325.513 623.657 324.862 623.069 324.537 622.322 324.537ZM708.192 324.511C707.48 324.511 706.858 324.723 706.324 325.149 705.79 325.574 705.388 326.073 705.119 326.646L705.119 330.37C705.371 330.917 705.747 331.394 706.246 331.802 706.745 332.21 707.346 332.414 708.049 332.414 708.891 332.414 709.549 332.084 710.022 331.425 710.495 330.765 710.731 329.806 710.731 328.547 710.731 327.184 710.508 326.171 710.061 325.507 709.614 324.843 708.991 324.511 708.192 324.511ZM763.307 324.315C762.508 324.315 761.855 324.541 761.347 324.992 760.839 325.444 760.559 326.099 760.507 326.959L766.015 326.959C765.989 326.073 765.727 325.411 765.227 324.973 764.728 324.534 764.088 324.315 763.307 324.315ZM666.307 324.315C665.508 324.315 664.855 324.541 664.347 324.992 663.839 325.444 663.559 326.099 663.507 326.959L669.015 326.959C668.989 326.073 668.727 325.411 668.227 324.973 667.728 324.534 667.088 324.315 666.307 324.315ZM575.307 324.315C574.508 324.315 573.855 324.541 573.347 324.992 572.839 325.444 572.559 326.099 572.507 326.959L578.015 326.959C577.989 326.073 577.727 325.411 577.227 324.973 576.728 324.534 576.088 324.315 575.307 324.315ZM750.669 322.115 754.119 322.115 754.119 334.823 750.669 334.823ZM694.669 322.115 698.119 322.115 698.119 334.823 694.669 334.823ZM747.921 321.945 748.182 321.945 748.182 324.849 747.856 324.849C747.344 324.849 746.854 324.895 746.385 324.986 745.916 325.077 745.491 325.233 745.109 325.455 744.727 325.676 744.397 325.982 744.119 326.373L744.119 334.823 740.669 334.823 740.669 322.115 743.976 322.115 744.041 324.315C744.371 323.551 744.866 322.965 745.526 322.557 746.185 322.15 746.984 321.945 747.921 321.945ZM724.921 321.945 725.182 321.945 725.182 324.849 724.856 324.849C724.344 324.849 723.854 324.895 723.385 324.986 722.916 325.077 722.491 325.233 722.109 325.455 721.727 325.676 721.397 325.982 721.119 326.373L721.119 334.823 717.669 334.823 717.669 322.115 720.976 322.115 721.041 324.315C721.371 323.551 721.866 322.965 722.526 322.557 723.185 322.15 723.984 321.945 724.921 321.945ZM590.921 321.945 591.182 321.945 591.182 324.849 590.856 324.849C590.344 324.849 589.854 324.895 589.385 324.986 588.916 325.077 588.491 325.233 588.109 325.455 587.727 325.676 587.397 325.982 587.119 326.373L587.119 334.823 583.669 334.823 583.669 322.115 586.976 322.115 587.041 324.315C587.371 323.551 587.866 322.965 588.526 322.557 589.185 322.15 589.984 321.945 590.921 321.945ZM763.307 321.919C765.199 321.919 766.694 322.473 767.792 323.58 768.891 324.686 769.44 326.264 769.44 328.313 769.44 328.417 769.435 328.558 769.427 328.736 769.418 328.914 769.405 329.051 769.388 329.146L760.468 329.146C760.486 329.745 760.596 330.305 760.8 330.826 761.004 331.347 761.328 331.765 761.77 332.082 762.213 332.399 762.795 332.557 763.515 332.557 764.262 332.557 764.861 332.395 765.312 332.069 765.763 331.744 765.993 331.26 766.002 330.617L769.401 330.617C769.357 331.607 769.086 332.432 768.587 333.091 768.088 333.751 767.406 334.244 766.543 334.569 765.679 334.895 764.67 335.057 763.515 335.057 762.1 335.057 760.911 334.795 759.947 334.27 758.984 333.745 758.255 332.987 757.76 331.998 757.265 331.008 757.018 329.819 757.018 328.43 757.018 327.084 757.259 325.926 757.74 324.953 758.222 323.981 758.93 323.232 759.863 322.707 760.796 322.182 761.944 321.919 763.307 321.919ZM732.307 321.919C733.114 321.919 733.852 321.987 734.52 322.121 735.189 322.256 735.768 322.488 736.259 322.818 736.749 323.148 737.129 323.597 737.398 324.166 737.667 324.734 737.802 325.444 737.802 326.294L737.802 334.823 734.572 334.823 734.468 333.169C733.93 333.786 733.305 334.252 732.593 334.569 731.882 334.886 731.061 335.044 730.132 335.044 729.412 335.044 728.739 334.906 728.114 334.628 727.489 334.35 726.983 333.931 726.597 333.371 726.211 332.811 726.018 332.11 726.018 331.268 726.018 330.097 726.369 329.213 727.072 328.619 727.776 328.024 728.759 327.62 730.022 327.408 731.285 327.195 732.754 327.071 734.429 327.037L734.429 326.36C734.429 325.535 734.232 324.971 733.837 324.667 733.442 324.363 732.932 324.211 732.307 324.211 731.621 324.211 731.057 324.374 730.614 324.699 730.171 325.025 729.95 325.552 729.95 326.281L726.721 326.281C726.721 325.196 726.957 324.337 727.431 323.703 727.904 323.07 728.559 322.614 729.397 322.336 730.234 322.058 731.204 321.919 732.307 321.919ZM666.307 321.919C668.199 321.919 669.694 322.473 670.792 323.58 671.891 324.686 672.44 326.264 672.44 328.313 672.44 328.417 672.435 328.558 672.427 328.736 672.418 328.914 672.405 329.051 672.388 329.146L663.468 329.146C663.486 329.745 663.596 330.305 663.8 330.826 664.004 331.347 664.328 331.765 664.77 332.082 665.213 332.399 665.795 332.557 666.515 332.557 667.262 332.557 667.861 332.395 668.312 332.069 668.763 331.744 668.993 331.26 669.002 330.617L672.401 330.617C672.357 331.607 672.086 332.432 671.587 333.091 671.088 333.751 670.406 334.244 669.543 334.569 668.679 334.895 667.67 335.057 666.515 335.057 665.1 335.057 663.911 334.795 662.947 334.27 661.984 333.745 661.255 332.987 660.76 331.998 660.265 331.008 660.018 329.819 660.018 328.43 660.018 327.084 660.259 325.926 660.74 324.953 661.222 323.981 661.93 323.232 662.863 322.707 663.796 322.182 664.944 321.919 666.307 321.919ZM651.372 321.919C652.448 321.919 653.421 322.097 654.289 322.453 655.157 322.809 655.847 323.341 656.359 324.048 656.871 324.756 657.132 325.648 657.14 326.724L653.794 326.724C653.776 326.073 653.559 325.554 653.143 325.168 652.726 324.782 652.14 324.589 651.385 324.589 650.387 324.589 649.664 324.932 649.217 325.617 648.77 326.303 648.546 327.271 648.546 328.521 648.546 329.328 648.644 330.016 648.839 330.585 649.035 331.153 649.343 331.587 649.764 331.887 650.185 332.186 650.725 332.336 651.385 332.336 652.158 332.336 652.767 332.126 653.214 331.705 653.661 331.284 653.894 330.687 653.911 329.914L657.257 329.914C657.231 331.017 656.964 331.945 656.457 332.701 655.949 333.456 655.256 334.029 654.38 334.419 653.503 334.81 652.5 335.005 651.372 335.005 650.191 335.005 649.119 334.78 648.156 334.328 647.192 333.877 646.428 333.174 645.864 332.219 645.3 331.264 645.018 330.031 645.018 328.521 645.018 327.011 645.287 325.769 645.825 324.797 646.363 323.825 647.112 323.102 648.071 322.629 649.03 322.156 650.131 321.919 651.372 321.919ZM636.307 321.919C637.114 321.919 637.852 321.987 638.52 322.121 639.189 322.256 639.768 322.488 640.259 322.818 640.749 323.148 641.129 323.597 641.398 324.166 641.667 324.734 641.802 325.444 641.802 326.294L641.802 334.823 638.572 334.823 638.468 333.169C637.93 333.786 637.305 334.252 636.593 334.569 635.881 334.886 635.061 335.044 634.132 335.044 633.412 335.044 632.739 334.906 632.114 334.628 631.489 334.35 630.983 333.931 630.597 333.371 630.211 332.811 630.018 332.11 630.018 331.268 630.018 330.097 630.369 329.213 631.072 328.619 631.776 328.024 632.759 327.62 634.022 327.408 635.285 327.195 636.754 327.071 638.429 327.037L638.429 326.36C638.429 325.535 638.232 324.971 637.837 324.667 637.442 324.363 636.932 324.211 636.307 324.211 635.621 324.211 635.057 324.374 634.614 324.699 634.171 325.025 633.95 325.552 633.95 326.281L630.721 326.281C630.721 325.196 630.957 324.337 631.43 323.703 631.904 323.07 632.559 322.614 633.397 322.336 634.234 322.058 635.204 321.919 636.307 321.919ZM623.156 321.919C624.145 321.919 625.024 322.158 625.792 322.636 626.561 323.113 627.164 323.838 627.602 324.81 628.041 325.782 628.26 327.028 628.26 328.547 628.26 330.014 628.023 331.225 627.55 332.18 627.077 333.135 626.437 333.851 625.63 334.328 624.822 334.806 623.915 335.049 622.908 335.057 622.084 335.066 621.348 334.897 620.701 334.55 620.055 334.202 619.527 333.716 619.119 333.091L619.119 339.485 615.669 339.485 615.669 322.115 618.924 322.115 619.119 324.055C619.588 323.369 620.152 322.842 620.812 322.473 621.472 322.104 622.253 321.919 623.156 321.919ZM575.307 321.919C577.199 321.919 578.694 322.473 579.792 323.58 580.891 324.686 581.44 326.264 581.44 328.313 581.44 328.417 581.435 328.558 581.427 328.736 581.418 328.914 581.405 329.051 581.388 329.146L572.468 329.146C572.486 329.745 572.596 330.305 572.8 330.826 573.004 331.347 573.328 331.765 573.77 332.082 574.213 332.399 574.795 332.557 575.515 332.557 576.262 332.557 576.861 332.395 577.312 332.069 577.763 331.744 577.994 331.26 578.002 330.617L581.401 330.617C581.357 331.607 581.086 332.432 580.587 333.091 580.088 333.751 579.406 334.244 578.543 334.569 577.679 334.895 576.67 335.057 575.515 335.057 574.1 335.057 572.911 334.795 571.947 334.27 570.984 333.745 570.255 332.987 569.76 331.998 569.265 331.008 569.018 329.819 569.018 328.43 569.018 327.084 569.259 325.926 569.74 324.953 570.222 323.981 570.93 323.232 571.863 322.707 572.796 322.182 573.944 321.919 575.307 321.919ZM777.643 321.906C778.294 321.906 778.932 321.972 779.557 322.102 780.182 322.232 780.746 322.451 781.25 322.759 781.753 323.067 782.157 323.482 782.46 324.003 782.764 324.524 782.916 325.175 782.916 325.956L779.713 325.956C779.713 325.305 779.507 324.853 779.095 324.602 778.682 324.35 778.198 324.224 777.643 324.224 777.044 324.224 776.573 324.311 776.23 324.485 775.887 324.658 775.716 324.945 775.716 325.344 775.716 325.578 775.824 325.784 776.041 325.962 776.258 326.14 776.605 326.305 777.083 326.457 777.56 326.609 778.19 326.772 778.971 326.945 779.796 327.136 780.533 327.384 781.184 327.688 781.836 327.992 782.352 328.4 782.734 328.912 783.116 329.424 783.307 330.088 783.307 330.904 783.307 331.668 783.153 332.314 782.845 332.844 782.536 333.373 782.124 333.801 781.608 334.126 781.091 334.452 780.501 334.689 779.837 334.836 779.173 334.984 778.485 335.057 777.773 335.057 777.07 335.057 776.38 334.992 775.703 334.862 775.026 334.732 774.414 334.508 773.867 334.192 773.32 333.875 772.886 333.443 772.565 332.896 772.243 332.349 772.083 331.668 772.083 330.852L775.286 330.852C775.286 331.564 775.536 332.058 776.035 332.336 776.534 332.614 777.118 332.753 777.786 332.753 778.446 332.753 778.958 332.646 779.322 332.434 779.687 332.221 779.869 331.863 779.869 331.36 779.869 330.882 779.654 330.526 779.225 330.292 778.795 330.057 778.042 329.819 776.966 329.576 776.063 329.359 775.258 329.096 774.55 328.788 773.843 328.48 773.289 328.067 772.89 327.551 772.491 327.034 772.291 326.355 772.291 325.513 772.291 324.853 772.443 324.294 772.747 323.834 773.051 323.373 773.457 323.002 773.964 322.72 774.472 322.438 775.045 322.232 775.683 322.102 776.321 321.972 776.974 321.906 777.643 321.906ZM560.643 321.906C561.294 321.906 561.932 321.972 562.557 322.102 563.182 322.232 563.746 322.451 564.25 322.759 564.753 323.067 565.157 323.482 565.46 324.003 565.764 324.524 565.916 325.175 565.916 325.956L562.713 325.956C562.713 325.305 562.507 324.853 562.095 324.602 561.682 324.35 561.198 324.224 560.643 324.224 560.044 324.224 559.573 324.311 559.23 324.485 558.887 324.658 558.716 324.945 558.716 325.344 558.716 325.578 558.824 325.784 559.041 325.962 559.258 326.14 559.605 326.305 560.083 326.457 560.56 326.609 561.19 326.772 561.971 326.945 562.796 327.136 563.533 327.384 564.184 327.688 564.836 327.992 565.352 328.4 565.734 328.912 566.116 329.424 566.307 330.088 566.307 330.904 566.307 331.668 566.153 332.314 565.845 332.844 565.536 333.373 565.124 333.801 564.608 334.126 564.091 334.452 563.501 334.689 562.837 334.836 562.173 334.984 561.485 335.057 560.773 335.057 560.07 335.057 559.38 334.992 558.703 334.862 558.026 334.732 557.414 334.508 556.867 334.192 556.32 333.875 555.886 333.443 555.565 332.896 555.243 332.349 555.083 331.668 555.083 330.852L558.286 330.852C558.286 331.564 558.536 332.058 559.035 332.336 559.534 332.614 560.118 332.753 560.786 332.753 561.446 332.753 561.958 332.646 562.322 332.434 562.687 332.221 562.869 331.863 562.869 331.36 562.869 330.882 562.654 330.526 562.225 330.292 561.795 330.057 561.042 329.819 559.966 329.576 559.063 329.359 558.258 329.096 557.55 328.788 556.843 328.48 556.289 328.067 555.89 327.551 555.491 327.034 555.291 326.355 555.291 325.513 555.291 324.853 555.443 324.294 555.747 323.834 556.051 323.373 556.457 323.002 556.964 322.72 557.472 322.438 558.045 322.232 558.683 322.102 559.321 321.972 559.974 321.906 560.643 321.906ZM505.575 320.331 505.575 325.097 508.518 325.097C509.091 325.097 509.583 325.005 509.996 324.823 510.408 324.641 510.727 324.367 510.953 324.003 511.178 323.638 511.291 323.191 511.291 322.662 511.291 321.889 511.057 321.307 510.588 320.917 510.119 320.526 509.499 320.331 508.726 320.331ZM701.669 317.297 705.119 317.297 705.119 323.938C705.571 323.321 706.122 322.829 706.773 322.46 707.424 322.091 708.227 321.906 709.182 321.906 710.154 321.906 711.022 322.143 711.786 322.616 712.55 323.089 713.153 323.81 713.596 324.778 714.039 325.745 714.26 326.98 714.26 328.482 714.26 329.975 714.023 331.208 713.55 332.18 713.077 333.152 712.437 333.875 711.63 334.348 710.822 334.821 709.915 335.057 708.908 335.057 707.98 335.057 707.216 334.88 706.617 334.524 706.018 334.168 705.506 333.677 705.08 333.052L704.937 334.823 701.669 334.823ZM680.916 317.297 684.575 317.297 684.575 331.607 691.971 331.607 691.971 334.823 680.916 334.823ZM536.708 317.297 540.458 317.297 540.458 327.766C540.458 329.207 540.753 330.279 541.343 330.982 541.934 331.685 542.862 332.037 544.13 332.037 545.406 332.037 546.328 331.685 546.897 330.982 547.465 330.279 547.75 329.207 547.75 327.766L547.75 317.297 551.513 317.297 551.513 327.857C551.513 329.402 551.256 330.713 550.744 331.789 550.232 332.866 549.431 333.679 548.342 334.231 547.253 334.782 545.84 335.057 544.104 335.057 542.385 335.057 540.979 334.782 539.885 334.231 538.791 333.679 537.988 332.866 537.476 331.789 536.964 330.713 536.708 329.402 536.708 327.857ZM516.054 317.297 529.062 317.297 529.062 320.344 524.401 320.344 524.401 334.823 520.742 334.823 520.742 320.344 516.054 320.344ZM501.916 317.297 509.13 317.297C510.258 317.297 511.265 317.455 512.151 317.772 513.036 318.089 513.737 318.601 514.253 319.309 514.77 320.016 515.028 320.956 515.028 322.128 515.028 323.239 514.731 324.181 514.136 324.953 513.542 325.726 512.641 326.277 511.434 326.607 512.172 326.72 512.763 326.943 513.205 327.278 513.648 327.612 514.006 328.061 514.279 328.625 514.553 329.189 514.802 329.884 515.028 330.709L516.187 334.823 512.359 334.823 511.539 331.438C511.365 330.674 511.165 330.049 510.94 329.563 510.714 329.077 510.408 328.714 510.022 328.475 509.635 328.237 509.104 328.117 508.427 328.117L505.575 328.117 505.575 334.823 501.916 334.823ZM484.354 317.297 488.585 317.297 491.802 323.026 495.187 317.297 499.25 317.297 493.859 325.682 499.731 334.823 495.369 334.823 491.802 328.638 488 334.823 483.885 334.823 489.783 325.669ZM752.401 317.089C753.034 317.089 753.518 317.247 753.852 317.564 754.187 317.881 754.354 318.282 754.354 318.768 754.354 319.246 754.187 319.645 753.852 319.966 753.518 320.288 753.034 320.448 752.401 320.448 751.767 320.448 751.283 320.288 750.949 319.966 750.615 319.645 750.447 319.246 750.447 318.768 750.447 318.282 750.615 317.881 750.949 317.564 751.283 317.247 751.767 317.089 752.401 317.089ZM696.401 317.089C697.034 317.089 697.518 317.247 697.852 317.564 698.187 317.881 698.354 318.282 698.354 318.768 698.354 319.246 698.187 319.645 697.852 319.966 697.518 320.288 697.034 320.448 696.401 320.448 695.767 320.448 695.283 320.288 694.949 319.966 694.615 319.645 694.447 319.246 694.447 318.768 694.447 318.282 694.615 317.881 694.949 317.564 695.283 317.247 695.767 317.089 696.401 317.089ZM605.671 317.076C606.869 317.076 607.97 317.258 608.972 317.623 609.975 317.987 610.776 318.543 611.375 319.289 611.974 320.036 612.273 320.986 612.273 322.141L608.523 322.141C608.532 321.394 608.254 320.837 607.69 320.468 607.125 320.099 606.448 319.914 605.658 319.914 604.877 319.914 604.23 320.06 603.718 320.35 603.206 320.641 602.95 321.09 602.95 321.698 602.95 322.045 603.059 322.351 603.276 322.616 603.493 322.881 603.894 323.139 604.48 323.391 605.066 323.643 605.914 323.929 607.026 324.25 608.354 324.641 609.443 325.051 610.294 325.481 611.145 325.91 611.776 326.466 612.188 327.147 612.601 327.829 612.807 328.725 612.807 329.836 612.807 331.077 612.503 332.08 611.895 332.844 611.288 333.608 610.461 334.168 609.415 334.524 608.369 334.88 607.186 335.057 605.867 335.057 604.539 335.057 603.343 334.869 602.279 334.491 601.216 334.113 600.372 333.512 599.747 332.688 599.122 331.863 598.809 330.787 598.809 329.459L602.559 329.459C602.577 330.136 602.733 330.667 603.028 331.054 603.323 331.44 603.72 331.715 604.22 331.88 604.719 332.045 605.289 332.128 605.932 332.128 606.548 332.128 607.091 332.054 607.559 331.906 608.028 331.759 608.395 331.531 608.66 331.223 608.924 330.915 609.057 330.522 609.057 330.044 609.057 329.584 608.944 329.205 608.718 328.905 608.493 328.606 608.093 328.332 607.52 328.085 606.947 327.837 606.145 327.57 605.112 327.284 603.905 326.937 602.861 326.555 601.98 326.138 601.099 325.722 600.418 325.183 599.936 324.524 599.454 323.864 599.213 323.005 599.213 321.945 599.213 320.808 599.489 319.882 600.04 319.166 600.591 318.449 601.353 317.922 602.325 317.584 603.297 317.245 604.413 317.076 605.671 317.076Z" fill="url(#fill0)" fill-rule="evenodd"/><text fill="#000000" fill-opacity="0" font-family="Arial,Arial_MSFontService,sans-serif" font-size="22.4088" x="483.885" y="336.683">XRT User Space Libraries</text><rect x="59" y="73" width="873" height="127" fill="#7030A0"/><path d="M537.321 139.874C535.498 139.882 534.222 140.054 533.493 140.388 532.763 140.722 532.399 141.263 532.399 142.009 532.399 142.547 532.566 142.947 532.9 143.207 533.234 143.467 533.666 143.598 534.196 143.598 534.847 143.598 535.448 143.428 535.999 143.09 536.55 142.751 536.991 142.365 537.321 141.931ZM566.368 135.473C565.63 135.473 565.05 135.651 564.629 136.006 564.208 136.362 563.911 136.84 563.737 137.439 563.564 138.038 563.477 138.702 563.477 139.431 563.477 140.143 563.564 140.794 563.737 141.384 563.911 141.974 564.208 142.445 564.629 142.797 565.05 143.148 565.63 143.324 566.368 143.324 567.123 143.324 567.715 143.148 568.145 142.797 568.575 142.445 568.878 141.974 569.056 141.384 569.234 140.794 569.323 140.143 569.323 139.431 569.323 138.702 569.234 138.038 569.056 137.439 568.878 136.84 568.575 136.362 568.145 136.006 567.715 135.651 567.123 135.473 566.368 135.473ZM491.253 135.46C490.472 135.46 489.803 135.679 489.248 136.117 488.692 136.555 488.293 137.035 488.05 137.556L488.05 141.306C488.328 141.861 488.716 142.339 489.215 142.738 489.714 143.138 490.302 143.337 490.98 143.337 491.848 143.337 492.512 143.003 492.972 142.335 493.432 141.666 493.662 140.698 493.662 139.431 493.662 138.085 493.447 137.087 493.017 136.436 492.588 135.785 492 135.46 491.253 135.46ZM475.253 135.46C474.472 135.46 473.803 135.679 473.248 136.117 472.692 136.555 472.293 137.035 472.05 137.556L472.05 141.306C472.328 141.861 472.716 142.339 473.215 142.738 473.714 143.138 474.302 143.337 474.98 143.337 475.848 143.337 476.512 143.003 476.972 142.335 477.432 141.666 477.662 140.698 477.662 139.431 477.662 138.085 477.447 137.087 477.017 136.436 476.588 135.785 476 135.46 475.253 135.46ZM427.237 135.238C426.439 135.238 425.786 135.464 425.278 135.915 424.77 136.367 424.49 137.022 424.438 137.881L429.946 137.881C429.92 136.996 429.657 136.334 429.158 135.896 428.659 135.457 428.019 135.238 427.237 135.238ZM553.599 133.038 557.05 133.038 557.05 145.746 553.599 145.746ZM507.599 133.038 511.05 133.038 511.05 145.746 507.599 145.746ZM443.852 132.868 444.112 132.868 444.112 135.772 443.787 135.772C443.275 135.772 442.784 135.818 442.315 135.909 441.847 136 441.421 136.156 441.039 136.378 440.658 136.599 440.328 136.905 440.05 137.296L440.05 145.746 436.599 145.746 436.599 133.038 439.907 133.038 439.972 135.238C440.302 134.474 440.796 133.888 441.456 133.48 442.116 133.072 442.914 132.868 443.852 132.868ZM583.373 132.855C584.666 132.855 585.669 133.248 586.381 134.034 587.092 134.819 587.448 135.967 587.448 137.478L587.448 145.746 584.024 145.746 584.024 137.921C584.024 137.46 583.959 137.057 583.828 136.71 583.698 136.362 583.492 136.093 583.21 135.902 582.928 135.711 582.557 135.616 582.097 135.616 581.411 135.616 580.823 135.776 580.332 136.098 579.842 136.419 579.414 136.809 579.05 137.269L579.05 145.746 575.599 145.746 575.599 133.038 578.92 133.038 578.985 134.939C579.41 134.392 579.97 133.908 580.664 133.487 581.359 133.066 582.262 132.855 583.373 132.855ZM535.237 132.842C536.045 132.842 536.782 132.91 537.451 133.044 538.119 133.179 538.699 133.411 539.189 133.741 539.68 134.071 540.059 134.52 540.328 135.088 540.598 135.657 540.732 136.367 540.732 137.217L540.732 145.746 537.503 145.746 537.399 144.092C536.861 144.709 536.236 145.175 535.524 145.492 534.812 145.809 533.992 145.967 533.063 145.967 532.342 145.967 531.67 145.828 531.045 145.551 530.42 145.273 529.914 144.854 529.528 144.294 529.141 143.734 528.948 143.033 528.948 142.191 528.948 141.019 529.3 140.136 530.003 139.542 530.706 138.947 531.689 138.543 532.952 138.331 534.215 138.118 535.684 137.994 537.36 137.96L537.36 137.282C537.36 136.458 537.162 135.894 536.767 135.59 536.372 135.286 535.862 135.134 535.237 135.134 534.552 135.134 533.987 135.297 533.545 135.622 533.102 135.948 532.881 136.475 532.881 137.204L529.651 137.204C529.651 136.119 529.888 135.26 530.361 134.626 530.834 133.993 531.49 133.537 532.327 133.259 533.165 132.981 534.135 132.842 535.237 132.842ZM520.302 132.842C521.379 132.842 522.351 133.02 523.219 133.376 524.087 133.732 524.777 134.264 525.289 134.971 525.802 135.679 526.062 136.571 526.071 137.647L522.724 137.647C522.707 136.996 522.49 136.477 522.073 136.091 521.657 135.705 521.071 135.512 520.315 135.512 519.317 135.512 518.595 135.855 518.147 136.54 517.7 137.226 517.477 138.194 517.477 139.444 517.477 140.251 517.575 140.939 517.77 141.508 517.965 142.076 518.273 142.51 518.694 142.81 519.115 143.109 519.656 143.259 520.315 143.259 521.088 143.259 521.698 143.049 522.145 142.628 522.592 142.207 522.824 141.61 522.841 140.837L526.188 140.837C526.162 141.94 525.895 142.868 525.387 143.624 524.879 144.379 524.187 144.952 523.31 145.342 522.434 145.733 521.431 145.928 520.302 145.928 519.122 145.928 518.05 145.703 517.086 145.251 516.123 144.8 515.359 144.097 514.795 143.142 514.23 142.187 513.948 140.954 513.948 139.444 513.948 137.934 514.217 136.692 514.756 135.72 515.294 134.748 516.042 134.025 517.002 133.552 517.961 133.079 519.061 132.842 520.302 132.842ZM492.086 132.842C493.076 132.842 493.955 133.081 494.723 133.559 495.491 134.036 496.095 134.761 496.533 135.733 496.971 136.705 497.19 137.951 497.19 139.47 497.19 140.937 496.954 142.148 496.481 143.103 496.008 144.058 495.368 144.774 494.56 145.251 493.753 145.729 492.846 145.972 491.839 145.98 491.014 145.989 490.279 145.82 489.632 145.473 488.985 145.125 488.458 144.639 488.05 144.014L488.05 150.407 484.599 150.407 484.599 133.038 487.855 133.038 488.05 134.978C488.519 134.292 489.083 133.765 489.743 133.396 490.402 133.027 491.184 132.842 492.086 132.842ZM476.086 132.842C477.076 132.842 477.955 133.081 478.723 133.559 479.491 134.036 480.095 134.761 480.533 135.733 480.971 136.705 481.19 137.951 481.19 139.47 481.19 140.937 480.954 142.148 480.481 143.103 480.008 144.058 479.368 144.774 478.56 145.251 477.753 145.729 476.846 145.972 475.839 145.98 475.014 145.989 474.279 145.82 473.632 145.473 472.985 145.125 472.458 144.639 472.05 144.014L472.05 150.407 468.599 150.407 468.599 133.038 471.855 133.038 472.05 134.978C472.519 134.292 473.083 133.765 473.743 133.396 474.402 133.027 475.184 132.842 476.086 132.842ZM427.237 132.842C429.13 132.842 430.625 133.396 431.723 134.503 432.821 135.609 433.37 137.187 433.37 139.236 433.37 139.34 433.366 139.481 433.357 139.659 433.349 139.837 433.335 139.973 433.318 140.069L424.399 140.069C424.416 140.668 424.527 141.228 424.731 141.749 424.935 142.269 425.258 142.688 425.701 143.005 426.144 143.322 426.725 143.48 427.446 143.48 428.192 143.48 428.791 143.318 429.243 142.992 429.694 142.667 429.924 142.183 429.933 141.54L433.331 141.54C433.288 142.53 433.016 143.355 432.517 144.014 432.018 144.674 431.337 145.167 430.473 145.492 429.609 145.818 428.6 145.98 427.446 145.98 426.031 145.98 424.842 145.718 423.878 145.193 422.914 144.667 422.185 143.91 421.69 142.921 421.196 141.931 420.948 140.742 420.948 139.353 420.948 138.007 421.189 136.848 421.671 135.876 422.153 134.904 422.86 134.155 423.793 133.63 424.727 133.105 425.875 132.842 427.237 132.842ZM596.573 132.829C597.224 132.829 597.862 132.894 598.487 133.025 599.112 133.155 599.677 133.374 600.18 133.682 600.684 133.99 601.087 134.405 601.391 134.926 601.695 135.447 601.847 136.098 601.847 136.879L598.644 136.879C598.644 136.228 598.437 135.776 598.025 135.525 597.613 135.273 597.129 135.147 596.573 135.147 595.974 135.147 595.503 135.234 595.161 135.407 594.818 135.581 594.646 135.868 594.646 136.267 594.646 136.501 594.755 136.707 594.972 136.885 595.189 137.063 595.536 137.228 596.013 137.38 596.491 137.532 597.12 137.695 597.901 137.868 598.726 138.059 599.464 138.307 600.115 138.611 600.766 138.914 601.283 139.322 601.664 139.835 602.046 140.347 602.237 141.011 602.237 141.827 602.237 142.591 602.083 143.237 601.775 143.767 601.467 144.296 601.055 144.724 600.538 145.049 600.022 145.375 599.431 145.611 598.767 145.759 598.103 145.907 597.415 145.98 596.703 145.98 596 145.98 595.31 145.915 594.633 145.785 593.956 145.655 593.344 145.431 592.797 145.115 592.25 144.798 591.816 144.366 591.495 143.819 591.174 143.272 591.013 142.591 591.013 141.775L594.217 141.775C594.217 142.486 594.466 142.981 594.965 143.259 595.464 143.537 596.048 143.676 596.717 143.676 597.376 143.676 597.888 143.569 598.253 143.357 598.618 143.144 598.8 142.786 598.8 142.282 598.8 141.805 598.585 141.449 598.155 141.215 597.726 140.98 596.973 140.742 595.896 140.499 594.993 140.282 594.188 140.019 593.481 139.711 592.773 139.403 592.22 138.99 591.821 138.474 591.421 137.957 591.222 137.278 591.222 136.436 591.222 135.776 591.374 135.217 591.677 134.756 591.981 134.296 592.387 133.925 592.895 133.643 593.403 133.361 593.976 133.155 594.614 133.025 595.252 132.894 595.905 132.829 596.573 132.829ZM412.573 132.829C413.224 132.829 413.862 132.894 414.487 133.025 415.112 133.155 415.677 133.374 416.18 133.682 416.684 133.99 417.087 134.405 417.391 134.926 417.695 135.447 417.847 136.098 417.847 136.879L414.644 136.879C414.644 136.228 414.437 135.776 414.025 135.525 413.613 135.273 413.129 135.147 412.573 135.147 411.974 135.147 411.503 135.234 411.161 135.407 410.818 135.581 410.646 135.868 410.646 136.267 410.646 136.501 410.755 136.707 410.972 136.885 411.189 137.063 411.536 137.228 412.013 137.38 412.491 137.532 413.12 137.695 413.901 137.868 414.726 138.059 415.464 138.307 416.115 138.611 416.766 138.914 417.283 139.322 417.664 139.835 418.046 140.347 418.237 141.011 418.237 141.827 418.237 142.591 418.083 143.237 417.775 143.767 417.467 144.296 417.055 144.724 416.538 145.049 416.022 145.375 415.431 145.611 414.767 145.759 414.103 145.907 413.415 145.98 412.704 145.98 412 145.98 411.31 145.915 410.633 145.785 409.956 145.655 409.344 145.431 408.797 145.115 408.25 144.798 407.816 144.366 407.495 143.819 407.174 143.272 407.013 142.591 407.013 141.775L410.217 141.775C410.217 142.486 410.466 142.981 410.965 143.259 411.464 143.537 412.048 143.676 412.717 143.676 413.376 143.676 413.888 143.569 414.253 143.357 414.618 143.144 414.8 142.786 414.8 142.282 414.8 141.805 414.585 141.449 414.155 141.215 413.726 140.98 412.973 140.742 411.896 140.499 410.993 140.282 410.188 140.019 409.481 139.711 408.773 139.403 408.22 138.99 407.821 138.474 407.421 137.957 407.222 137.278 407.222 136.436 407.222 135.776 407.374 135.217 407.677 134.756 407.981 134.296 408.387 133.925 408.895 133.643 409.403 133.361 409.976 133.155 410.614 133.025 411.252 132.894 411.905 132.829 412.573 132.829ZM566.368 132.816C567.67 132.816 568.805 133.075 569.773 133.591 570.74 134.108 571.493 134.858 572.032 135.844 572.57 136.829 572.839 138.025 572.839 139.431 572.839 140.811 572.57 141.987 572.032 142.96 571.493 143.932 570.74 144.674 569.773 145.186 568.805 145.698 567.67 145.954 566.368 145.954 565.083 145.954 563.957 145.698 562.989 145.186 562.021 144.674 561.272 143.932 560.743 142.96 560.213 141.987 559.948 140.811 559.948 139.431 559.948 138.025 560.213 136.829 560.743 135.844 561.272 134.858 562.021 134.108 562.989 133.591 563.957 133.075 565.083 132.816 566.368 132.816ZM458.006 131.84 455.727 138.858 460.284 138.858ZM544.146 130.043 547.597 130.043 547.597 133.038 550.37 133.038 550.37 135.694 547.597 135.694 547.597 141.111C547.597 141.779 547.69 142.274 547.877 142.595 548.063 142.916 548.487 143.077 549.146 143.077L550.37 143.077 550.37 145.746 549.029 145.746C547.744 145.746 546.748 145.592 546.041 145.284 545.333 144.976 544.841 144.498 544.563 143.852 544.285 143.205 544.146 142.361 544.146 141.319L544.146 135.694 542.037 135.694 542.037 133.038 544.146 133.038ZM499.482 128.22 502.92 128.22 502.92 141.111C502.92 141.779 503.011 142.269 503.193 142.582 503.375 142.894 503.801 143.051 504.469 143.051L505.263 143.051 505.263 145.746 504.365 145.746C503.072 145.746 502.073 145.592 501.37 145.284 500.667 144.976 500.177 144.498 499.899 143.852 499.621 143.205 499.482 142.361 499.482 141.319ZM456.092 128.22 459.933 128.22 466.248 145.746 462.433 145.746 461.183 141.892 454.855 141.892 453.565 145.746 449.789 145.746ZM389.638 128.22 393.388 128.22 393.388 138.689C393.388 140.13 393.684 141.202 394.274 141.905 394.864 142.608 395.793 142.96 397.06 142.96 398.336 142.96 399.259 142.608 399.827 141.905 400.396 141.202 400.68 140.13 400.68 138.689L400.68 128.22 404.443 128.22 404.443 138.78C404.443 140.325 404.187 141.636 403.675 142.712 403.163 143.789 402.362 144.602 401.273 145.154 400.183 145.705 398.77 145.98 397.034 145.98 395.316 145.98 393.909 145.705 392.816 145.154 391.722 144.602 390.919 143.789 390.407 142.712 389.895 141.636 389.638 140.325 389.638 138.78ZM555.331 128.012C555.965 128.012 556.449 128.17 556.783 128.487 557.117 128.804 557.284 129.205 557.284 129.691 557.284 130.169 557.117 130.568 556.783 130.889 556.449 131.21 555.965 131.371 555.331 131.371 554.697 131.371 554.213 131.21 553.879 130.889 553.545 130.568 553.378 130.169 553.378 129.691 553.378 129.205 553.545 128.804 553.879 128.487 554.213 128.17 554.697 128.012 555.331 128.012ZM509.331 128.012C509.965 128.012 510.449 128.17 510.783 128.487 511.117 128.804 511.284 129.205 511.284 129.691 511.284 130.169 511.117 130.568 510.783 130.889 510.449 131.21 509.965 131.371 509.331 131.371 508.697 131.371 508.213 131.21 507.879 130.889 507.545 130.568 507.378 130.169 507.378 129.691 507.378 129.205 507.545 128.804 507.879 128.487 508.213 128.17 508.697 128.012 509.331 128.012Z" fill="url(#fill1)" fill-rule="evenodd"/><text fill="#000000" fill-opacity="0" font-family="Arial,Arial_MSFontService,sans-serif" font-size="22.3958" x="389.638" y="147.608">User Applications</text><rect x="347" y="206" width="262" height="71" fill="#80350E"/><path d="M490.448 236.707 488.169 243.725 492.726 243.725ZM504.948 236.043 504.948 241.433 507.825 241.433C508.676 241.433 509.364 241.208 509.889 240.756 510.414 240.305 510.677 239.637 510.677 238.751 510.677 237.831 510.408 237.15 509.869 236.707 509.331 236.264 508.65 236.043 507.825 236.043ZM465.948 236.043 465.948 241.433 468.825 241.433C469.676 241.433 470.364 241.208 470.889 240.756 471.414 240.305 471.677 239.637 471.677 238.751 471.677 237.831 471.408 237.15 470.869 236.707 470.331 236.264 469.65 236.043 468.825 236.043ZM517.289 233.087 520.948 233.087 520.948 250.613 517.289 250.613ZM501.289 233.087 508.164 233.087C509.318 233.087 510.371 233.291 511.321 233.699 512.272 234.107 513.029 234.728 513.593 235.561 514.158 236.394 514.44 237.458 514.44 238.751 514.44 240.027 514.158 241.082 513.593 241.915 513.029 242.749 512.272 243.367 511.321 243.771 510.371 244.174 509.318 244.376 508.164 244.376L504.948 244.376 504.948 250.613 501.289 250.613ZM488.534 233.087 492.375 233.087 498.69 250.613 494.875 250.613 493.625 246.759 487.297 246.759 486.008 250.613 482.231 250.613ZM462.289 233.087 469.164 233.087C470.318 233.087 471.371 233.291 472.321 233.699 473.272 234.107 474.029 234.728 474.593 235.561 475.158 236.394 475.44 237.458 475.44 238.751 475.44 240.027 475.158 241.082 474.593 241.915 474.029 242.749 473.272 243.367 472.321 243.771 471.371 244.174 470.318 244.376 469.164 244.376L465.948 244.376 465.948 250.613 462.289 250.613ZM455.289 233.087 458.948 233.087 458.948 250.613 455.289 250.613ZM435.289 233.087 438.948 233.087 438.948 239.936 446.89 239.936 446.89 233.087 450.549 233.087 450.549 250.613 446.89 250.613 446.89 243.165 438.948 243.165 438.948 250.613 435.289 250.613Z" fill="url(#fill2)" fill-rule="evenodd"/><text fill="#000000" fill-opacity="0" font-family="Arial,Arial_MSFontService,sans-serif" font-size="17.526" x="435.289" y="248.422">HIP API</text><rect x="60" y="206" width="281" height="69" fill="#80350E"/><path d="M215.099 235.846 212.82 242.864 217.378 242.864ZM228.599 235.182 228.599 240.573 231.477 240.573C232.327 240.573 233.015 240.347 233.54 239.896 234.066 239.444 234.328 238.776 234.328 237.89 234.328 236.97 234.059 236.289 233.521 235.846 232.983 235.403 232.301 235.182 231.477 235.182ZM192.586 234.948 195.333 234.948 195.333 239.687 200.06 239.687 200.06 242.422 195.333 242.422 195.333 247.174 192.586 247.174 192.586 242.422 187.859 242.422 187.859 239.687 192.586 239.687ZM178.586 234.948 181.333 234.948 181.333 239.687 186.06 239.687 186.06 242.422 181.333 242.422 181.333 247.174 178.586 247.174 178.586 242.422 173.859 242.422 173.859 239.687 178.586 239.687ZM240.94 232.226 244.599 232.226 244.599 249.752 240.94 249.752ZM224.94 232.226 231.815 232.226C232.97 232.226 234.022 232.43 234.973 232.838 235.923 233.246 236.681 233.867 237.245 234.7 237.809 235.534 238.091 236.597 238.091 237.89 238.091 239.166 237.809 240.221 237.245 241.054 236.681 241.888 235.923 242.506 234.973 242.91 234.022 243.313 232.97 243.515 231.815 243.515L228.599 243.515 228.599 249.752 224.94 249.752ZM213.185 232.226 217.026 232.226 223.341 249.752 219.526 249.752 218.276 245.898 211.948 245.898 210.659 249.752 206.883 249.752ZM163.674 231.992C165.046 231.992 166.309 232.228 167.464 232.702 168.618 233.175 169.556 233.873 170.276 234.798 170.997 235.722 171.391 236.862 171.461 238.216L167.711 238.216C167.615 237.504 167.383 236.914 167.014 236.445 166.645 235.976 166.174 235.625 165.602 235.39 165.029 235.156 164.386 235.039 163.674 235.039 162.529 235.039 161.606 235.317 160.908 235.872 160.209 236.428 159.701 237.155 159.384 238.053 159.067 238.952 158.909 239.935 158.909 241.002 158.909 242.061 159.067 243.042 159.384 243.945 159.701 244.848 160.209 245.573 160.908 246.119 161.606 246.666 162.529 246.94 163.674 246.94 164.881 246.94 165.834 246.629 166.533 246.009 167.231 245.388 167.633 244.505 167.737 243.359L171.487 243.359C171.383 244.791 171.005 246 170.354 246.985 169.703 247.971 168.813 248.717 167.685 249.225 166.556 249.733 165.22 249.987 163.674 249.987 161.904 249.987 160.38 249.616 159.104 248.873 157.828 248.131 156.847 247.09 156.161 245.748 155.476 244.407 155.133 242.825 155.133 241.002 155.133 239.179 155.476 237.593 156.161 236.243 156.847 234.893 157.828 233.847 159.104 233.105 160.38 232.363 161.904 231.992 163.674 231.992Z" fill="url(#fill3)" fill-rule="evenodd"/><text fill="#000000" fill-opacity="0" font-family="Arial,Arial_MSFontService,sans-serif" font-size="17.9948" x="155.133" y="247.737">C++ API</text><rect x="622" y="207" width="313" height="70" fill="#80350E"/><path d="M774.464 240.731C773.726 240.731 773.147 240.909 772.726 241.265 772.305 241.621 772.007 242.098 771.834 242.697 771.66 243.296 771.573 243.96 771.573 244.689 771.573 245.401 771.66 246.052 771.834 246.642 772.007 247.233 772.305 247.704 772.726 248.055 773.147 248.407 773.726 248.583 774.464 248.583 775.219 248.583 775.812 248.407 776.241 248.055 776.671 247.704 776.975 247.233 777.153 246.642 777.331 246.052 777.42 245.401 777.42 244.689 777.42 243.96 777.331 243.296 777.153 242.697 776.975 242.098 776.671 241.621 776.241 241.265 775.812 240.909 775.219 240.731 774.464 240.731ZM728.847 238.296 732.44 238.296 735.657 247.697 738.521 238.296 742.011 238.296 737.44 251.004 736.972 252.267C736.642 253.162 736.26 253.856 735.826 254.351 735.392 254.846 734.86 255.188 734.231 255.379 733.601 255.57 732.818 255.666 731.881 255.666L730.331 255.666 730.331 252.866 731.477 252.866C731.989 252.866 732.417 252.775 732.759 252.593 733.102 252.411 733.352 252.111 733.508 251.695L733.795 251.004ZM792.469 238.114C793.762 238.114 794.765 238.507 795.477 239.292 796.189 240.078 796.545 241.226 796.545 242.736L796.545 251.004 793.12 251.004 793.12 243.179C793.12 242.719 793.055 242.315 792.925 241.968 792.795 241.621 792.588 241.352 792.306 241.161 792.024 240.97 791.653 240.874 791.193 240.874 790.507 240.874 789.919 241.035 789.429 241.356 788.938 241.677 788.511 242.068 788.146 242.528L788.146 251.004 784.696 251.004 784.696 238.296 788.016 238.296 788.081 240.197C788.506 239.65 789.066 239.166 789.761 238.745 790.455 238.324 791.358 238.114 792.469 238.114ZM774.464 238.075C775.766 238.075 776.901 238.333 777.869 238.85 778.837 239.366 779.59 240.117 780.128 241.102 780.666 242.087 780.935 243.283 780.935 244.689 780.935 246.07 780.666 247.246 780.128 248.218 779.59 249.19 778.837 249.932 777.869 250.445 776.901 250.957 775.766 251.213 774.464 251.213 773.179 251.213 772.053 250.957 771.085 250.445 770.117 249.932 769.368 249.19 768.839 248.218 768.309 247.246 768.045 246.07 768.045 244.689 768.045 243.283 768.309 242.087 768.839 241.102 769.368 240.117 770.117 239.366 771.085 238.85 772.053 238.333 773.179 238.075 774.464 238.075ZM812.102 237.098 809.823 244.116 814.381 244.116ZM825.602 236.434 825.602 241.825 828.479 241.825C829.33 241.825 830.018 241.599 830.543 241.148 831.068 240.696 831.331 240.028 831.331 239.142 831.331 238.222 831.062 237.541 830.524 237.098 829.986 236.656 829.304 236.434 828.479 236.434ZM718.602 236.434 718.602 241.825 721.479 241.825C722.33 241.825 723.018 241.599 723.543 241.148 724.068 240.696 724.331 240.028 724.331 239.142 724.331 238.222 724.062 237.541 723.524 237.098 722.986 236.656 722.304 236.434 721.479 236.434ZM744.243 235.301 747.693 235.301 747.693 238.296 750.466 238.296 750.466 240.952 747.693 240.952 747.693 246.369C747.693 247.037 747.786 247.532 747.973 247.853 748.16 248.175 748.583 248.335 749.243 248.335L750.466 248.335 750.466 251.004 749.125 251.004C747.841 251.004 746.845 250.85 746.137 250.542 745.43 250.234 744.937 249.757 744.659 249.11 744.381 248.463 744.243 247.619 744.243 246.577L744.243 240.952 742.133 240.952 742.133 238.296 744.243 238.296ZM837.943 233.478 841.602 233.478 841.602 251.004 837.943 251.004ZM821.943 233.478 828.818 233.478C829.973 233.478 831.025 233.682 831.976 234.09 832.926 234.498 833.683 235.119 834.248 235.952 834.812 236.786 835.094 237.849 835.094 239.142 835.094 240.419 834.812 241.473 834.248 242.307 833.683 243.14 832.926 243.758 831.976 244.162 831.025 244.566 829.973 244.767 828.818 244.767L825.602 244.767 825.602 251.004 821.943 251.004ZM810.188 233.478 814.029 233.478 820.344 251.004 816.529 251.004 815.279 247.15 808.951 247.15 807.662 251.004 803.886 251.004ZM753.696 233.478 757.081 233.478 757.081 240.197C757.506 239.65 758.066 239.166 758.761 238.745 759.455 238.324 760.349 238.114 761.443 238.114 762.763 238.114 763.776 238.502 764.483 239.279 765.191 240.056 765.545 241.208 765.545 242.736L765.545 251.004 762.094 251.004 762.094 243.166C762.094 242.715 762.031 242.315 761.905 241.968 761.779 241.621 761.578 241.352 761.3 241.161 761.022 240.97 760.653 240.874 760.193 240.874 759.507 240.874 758.919 241.035 758.429 241.356 757.938 241.677 757.511 242.068 757.146 242.528L757.146 251.004 753.696 251.004ZM714.943 233.478 721.818 233.478C722.973 233.478 724.025 233.682 724.976 234.09 725.926 234.498 726.683 235.119 727.248 235.952 727.812 236.786 728.094 237.849 728.094 239.142 728.094 240.419 727.812 241.473 727.248 242.307 726.683 243.14 725.926 243.758 724.976 244.162 724.025 244.566 722.973 244.767 721.818 244.767L718.602 244.767 718.602 251.004 714.943 251.004Z" fill="url(#fill4)" fill-rule="evenodd"/><text fill="#000000" fill-opacity="0" font-family="Arial,Arial_MSFontService,sans-serif" font-size="22.1875" x="714.943" y="252.892">Python API</text><rect x="59" y="374" width="568" height="87" fill="#3B7D23"/><path d="M357.144 400.135C356.406 400.135 355.827 400.313 355.406 400.669 354.985 401.025 354.688 401.502 354.514 402.101 354.34 402.7 354.254 403.364 354.254 404.093 354.254 404.805 354.34 405.456 354.514 406.046 354.688 406.637 354.985 407.108 355.406 407.459 355.827 407.811 356.406 407.986 357.144 407.986 357.899 407.986 358.492 407.811 358.922 407.459 359.351 407.108 359.655 406.637 359.833 406.046 360.011 405.456 360.1 404.805 360.1 404.093 360.1 403.364 360.011 402.7 359.833 402.101 359.655 401.502 359.351 401.025 358.922 400.669 358.492 400.313 357.899 400.135 357.144 400.135ZM341.936 400.109C341.085 400.109 340.426 400.439 339.957 401.098 339.488 401.758 339.254 402.713 339.254 403.963 339.254 405.335 339.477 406.35 339.924 407.01 340.371 407.67 340.985 408 341.767 408 342.496 408 343.125 407.796 343.655 407.388 344.184 406.98 344.588 406.502 344.866 405.955L344.866 402.244C344.597 401.671 344.219 401.172 343.733 400.747 343.247 400.322 342.648 400.109 341.936 400.109ZM364.579 397.7 368.082 397.7 370.53 406.671 372.978 397.7 376.597 397.7 379.097 406.658 381.506 397.7 384.774 397.7 380.777 410.408 377.248 410.408 374.683 401.268 372.092 410.408 368.577 410.408ZM313.376 397.7 316.827 397.7 316.827 410.408 313.376 410.408ZM328.149 397.518C329.443 397.518 330.445 397.911 331.157 398.696 331.869 399.482 332.225 400.63 332.225 402.14L332.225 410.408 328.801 410.408 328.801 402.583C328.801 402.123 328.735 401.719 328.605 401.372 328.475 401.025 328.269 400.756 327.987 400.565 327.705 400.374 327.333 400.278 326.873 400.278 326.188 400.278 325.6 400.439 325.109 400.76 324.619 401.081 324.191 401.472 323.827 401.932L323.827 410.408 320.376 410.408 320.376 397.7 323.696 397.7 323.761 399.601C324.187 399.054 324.747 398.57 325.441 398.149 326.136 397.728 327.038 397.518 328.149 397.518ZM392.35 397.492C393.001 397.492 393.639 397.557 394.264 397.687 394.889 397.817 395.453 398.036 395.957 398.345 396.46 398.653 396.864 399.067 397.168 399.588 397.471 400.109 397.623 400.76 397.623 401.541L394.42 401.541C394.42 400.89 394.214 400.439 393.802 400.187 393.389 399.935 392.906 399.809 392.35 399.809 391.751 399.809 391.28 399.896 390.937 400.07 390.594 400.243 390.423 400.53 390.423 400.929 390.423 401.164 390.531 401.37 390.748 401.548 390.965 401.726 391.313 401.891 391.79 402.042 392.268 402.194 392.897 402.357 393.678 402.531 394.503 402.722 395.241 402.969 395.892 403.273 396.543 403.577 397.059 403.985 397.441 404.497 397.823 405.009 398.014 405.673 398.014 406.489 398.014 407.253 397.86 407.9 397.552 408.429 397.244 408.959 396.831 409.386 396.315 409.712 395.798 410.037 395.208 410.274 394.544 410.421 393.88 410.569 393.192 410.643 392.48 410.643 391.777 410.643 391.087 410.578 390.41 410.447 389.733 410.317 389.121 410.094 388.574 409.777 388.027 409.46 387.593 409.028 387.272 408.481 386.951 407.934 386.79 407.253 386.79 406.437L389.993 406.437C389.993 407.149 390.243 407.644 390.742 407.921 391.241 408.199 391.825 408.338 392.493 408.338 393.153 408.338 393.665 408.232 394.03 408.019 394.394 407.806 394.577 407.448 394.577 406.945 394.577 406.467 394.362 406.111 393.932 405.877 393.502 405.643 392.749 405.404 391.673 405.161 390.77 404.944 389.965 404.681 389.258 404.373 388.55 404.065 387.997 403.653 387.597 403.136 387.198 402.62 386.998 401.94 386.998 401.098 386.998 400.439 387.15 399.879 387.454 399.419 387.758 398.959 388.164 398.588 388.672 398.305 389.179 398.023 389.752 397.817 390.39 397.687 391.028 397.557 391.682 397.492 392.35 397.492ZM357.144 397.479C358.446 397.479 359.581 397.737 360.549 398.253 361.517 398.77 362.27 399.521 362.808 400.506 363.347 401.491 363.616 402.687 363.616 404.093 363.616 405.473 363.347 406.65 362.808 407.622 362.27 408.594 361.517 409.336 360.549 409.848 359.581 410.361 358.446 410.617 357.144 410.617 355.86 410.617 354.733 410.361 353.765 409.848 352.797 409.336 352.049 408.594 351.519 407.622 350.99 406.65 350.725 405.473 350.725 404.093 350.725 402.687 350.99 401.491 351.519 400.506 352.049 399.521 352.797 398.77 353.765 398.253 354.733 397.737 355.86 397.479 357.144 397.479ZM344.866 392.882 348.316 392.882 348.316 410.408 345.009 410.408 344.866 408.598C344.414 409.223 343.854 409.718 343.186 410.083 342.518 410.447 341.706 410.63 340.751 410.63 339.796 410.63 338.939 410.391 338.179 409.914 337.42 409.436 336.821 408.705 336.383 407.72 335.944 406.734 335.725 405.482 335.725 403.963 335.725 402.496 335.962 401.285 336.435 400.33 336.908 399.375 337.548 398.664 338.355 398.195 339.163 397.726 340.07 397.492 341.077 397.492 341.962 397.492 342.722 397.674 343.355 398.039 343.989 398.403 344.492 398.881 344.866 399.471ZM286.618 392.882 290.407 392.882 293.741 406.059 297.243 392.882 300.915 392.882 304.444 406.059 307.777 392.882 311.514 392.882 306.28 410.408 302.478 410.408 299.04 397.322 295.642 410.408 291.814 410.408ZM315.108 392.674C315.741 392.674 316.225 392.832 316.56 393.149 316.894 393.466 317.061 393.868 317.061 394.354 317.061 394.831 316.894 395.23 316.56 395.552 316.225 395.873 315.741 396.033 315.108 396.033 314.474 396.033 313.99 395.873 313.656 395.552 313.322 395.23 313.155 394.831 313.155 394.354 313.155 393.868 313.322 393.466 313.656 393.149 313.99 392.832 314.474 392.674 315.108 392.674Z" fill="url(#fill5)" fill-rule="evenodd"/><text fill="#000000" fill-opacity="0" font-family="Arial,Arial_MSFontService,sans-serif" font-size="17.9688" x="286.618" y="408.397">Windows</text><path d="M447.914 431.901C447.115 431.901 446.462 432.126 445.954 432.578 445.447 433.029 445.167 433.684 445.115 434.544L450.622 434.544C450.596 433.658 450.334 432.996 449.835 432.558 449.335 432.12 448.695 431.901 447.914 431.901ZM370.914 431.901C370.115 431.901 369.462 432.126 368.954 432.578 368.447 433.029 368.167 433.684 368.115 434.544L373.622 434.544C373.596 433.658 373.334 432.996 372.835 432.558 372.336 432.12 371.695 431.901 370.914 431.901ZM330.914 431.901C330.115 431.901 329.462 432.126 328.954 432.578 328.447 433.029 328.167 433.684 328.115 434.544L333.622 434.544C333.596 433.658 333.334 432.996 332.835 432.558 332.336 432.12 331.695 431.901 330.914 431.901ZM427.427 429.7 431.021 429.7 434.016 439.192 437.102 429.7 440.591 429.7 435.982 442.408 432.049 442.408ZM422.276 429.7 425.727 429.7 425.727 442.408 422.276 442.408ZM464.529 429.531 464.789 429.531 464.789 432.434 464.464 432.434C463.951 432.434 463.461 432.48 462.992 432.571 462.523 432.662 462.098 432.819 461.716 433.04 461.334 433.261 461.004 433.567 460.727 433.958L460.727 442.408 457.276 442.408 457.276 429.7 460.583 429.7 460.648 431.901C460.978 431.137 461.473 430.551 462.133 430.143 462.793 429.735 463.591 429.531 464.529 429.531ZM419.529 429.531 419.789 429.531 419.789 432.434 419.464 432.434C418.951 432.434 418.461 432.48 417.992 432.571 417.523 432.662 417.098 432.819 416.716 433.04 416.334 433.261 416.004 433.567 415.727 433.958L415.727 442.408 412.276 442.408 412.276 429.7 415.583 429.7 415.648 431.901C415.978 431.137 416.473 430.551 417.133 430.143 417.793 429.735 418.591 429.531 419.529 429.531ZM347.529 429.531 347.789 429.531 347.789 432.434 347.464 432.434C346.951 432.434 346.461 432.48 345.992 432.571 345.523 432.662 345.098 432.819 344.716 433.04 344.334 433.261 344.004 433.567 343.727 433.958L343.727 442.408 340.276 442.408 340.276 429.7 343.583 429.7 343.648 431.901C343.978 431.137 344.473 430.551 345.133 430.143 345.793 429.735 346.591 429.531 347.529 429.531ZM357.049 429.518C358.343 429.518 359.345 429.911 360.057 430.696 360.769 431.482 361.125 432.63 361.125 434.14L361.125 442.408 357.701 442.408 357.701 434.583C357.701 434.123 357.635 433.719 357.505 433.372 357.375 433.025 357.169 432.756 356.887 432.565 356.605 432.374 356.234 432.278 355.773 432.278 355.088 432.278 354.5 432.439 354.009 432.76 353.519 433.081 353.091 433.472 352.727 433.932L352.727 442.408 349.276 442.408 349.276 429.7 352.596 429.7 352.661 431.601C353.087 431.054 353.647 430.57 354.341 430.149 355.036 429.728 355.938 429.518 357.049 429.518ZM447.914 429.505C449.806 429.505 451.302 430.058 452.4 431.165 453.498 432.272 454.047 433.849 454.047 435.898 454.047 436.002 454.043 436.143 454.034 436.321 454.025 436.499 454.012 436.636 453.995 436.731L445.076 436.731C445.093 437.33 445.204 437.89 445.408 438.411 445.612 438.932 445.935 439.351 446.378 439.667 446.82 439.984 447.402 440.143 448.122 440.143 448.869 440.143 449.468 439.98 449.919 439.654 450.371 439.329 450.601 438.845 450.609 438.203L454.008 438.203C453.964 439.192 453.693 440.017 453.194 440.677 452.695 441.336 452.013 441.829 451.15 442.154 450.286 442.48 449.277 442.643 448.122 442.643 446.707 442.643 445.518 442.38 444.555 441.855 443.591 441.33 442.862 440.572 442.367 439.583 441.872 438.593 441.625 437.404 441.625 436.015 441.625 434.67 441.866 433.511 442.348 432.539 442.829 431.566 443.537 430.818 444.47 430.292 445.403 429.767 446.551 429.505 447.914 429.505ZM370.914 429.505C372.806 429.505 374.302 430.058 375.4 431.165 376.498 432.272 377.047 433.849 377.047 435.898 377.047 436.002 377.043 436.143 377.034 436.321 377.025 436.499 377.012 436.636 376.995 436.731L368.076 436.731C368.093 437.33 368.204 437.89 368.408 438.411 368.612 438.932 368.935 439.351 369.378 439.667 369.82 439.984 370.402 440.143 371.122 440.143 371.869 440.143 372.468 439.98 372.919 439.654 373.371 439.329 373.601 438.845 373.609 438.203L377.008 438.203C376.964 439.192 376.693 440.017 376.194 440.677 375.695 441.336 375.013 441.829 374.15 442.154 373.286 442.48 372.277 442.643 371.122 442.643 369.707 442.643 368.518 442.38 367.555 441.855 366.591 441.33 365.862 440.572 365.367 439.583 364.872 438.593 364.625 437.404 364.625 436.015 364.625 434.67 364.866 433.511 365.348 432.539 365.829 431.566 366.537 430.818 367.47 430.292 368.403 429.767 369.551 429.505 370.914 429.505ZM330.914 429.505C332.806 429.505 334.302 430.058 335.4 431.165 336.498 432.272 337.047 433.849 337.047 435.898 337.047 436.002 337.043 436.143 337.034 436.321 337.025 436.499 337.012 436.636 336.995 436.731L328.076 436.731C328.093 437.33 328.204 437.89 328.408 438.411 328.612 438.932 328.935 439.351 329.378 439.667 329.82 439.984 330.402 440.143 331.122 440.143 331.869 440.143 332.468 439.98 332.919 439.654 333.371 439.329 333.601 438.845 333.609 438.203L337.008 438.203C336.964 439.192 336.693 440.017 336.194 440.677 335.695 441.336 335.013 441.829 334.15 442.154 333.286 442.48 332.277 442.643 331.122 442.643 329.707 442.643 328.518 442.38 327.555 441.855 326.591 441.33 325.862 440.572 325.367 439.583 324.872 438.593 324.625 437.404 324.625 436.015 324.625 434.67 324.866 433.511 325.348 432.539 325.829 431.566 326.537 430.818 327.47 430.292 328.403 429.767 329.551 429.505 330.914 429.505ZM397.182 427.929 397.182 439.361 399.656 439.361C400.898 439.361 401.928 439.151 402.749 438.73 403.569 438.309 404.183 437.671 404.591 436.816 404.999 435.961 405.203 434.882 405.203 433.58 405.203 432.339 404.984 431.299 404.546 430.462 404.107 429.624 403.476 428.993 402.651 428.567 401.826 428.142 400.828 427.929 399.656 427.929ZM267.182 427.929 267.182 439.361 269.656 439.361C270.898 439.361 271.928 439.151 272.749 438.73 273.569 438.309 274.183 437.671 274.591 436.816 274.999 435.961 275.203 434.882 275.203 433.58 275.203 432.339 274.984 431.299 274.546 430.462 274.107 429.624 273.476 428.993 272.651 428.567 271.826 428.142 270.828 427.929 269.656 427.929ZM393.523 424.882 400.047 424.882C401.922 424.882 403.526 425.23 404.858 425.924 406.191 426.618 407.208 427.617 407.911 428.919 408.615 430.221 408.966 431.783 408.966 433.606 408.966 435.49 408.61 437.087 407.898 438.398 407.187 439.709 406.164 440.705 404.832 441.386 403.5 442.068 401.905 442.408 400.047 442.408L393.523 442.408ZM380.159 424.882 383.596 424.882 383.596 437.773C383.596 438.441 383.688 438.932 383.87 439.244 384.052 439.557 384.477 439.713 385.146 439.713L385.94 439.713 385.94 442.408 385.042 442.408C383.748 442.408 382.75 442.254 382.047 441.946 381.344 441.638 380.853 441.161 380.576 440.514 380.298 439.867 380.159 439.023 380.159 437.981ZM309.523 424.882 313.182 424.882 313.182 433.242 319.471 424.882 323.521 424.882 317.036 433.098 323.951 442.408 319.719 442.408 313.182 433.437 313.182 442.408 309.523 442.408ZM282.523 424.882 286.729 424.882 291.49 432.982 296.182 424.882 300.232 424.882 300.232 442.408 296.625 442.408 296.625 429.624 292.497 436.809 290.245 436.809 286.026 429.644 286.026 442.408 282.523 442.408ZM263.523 424.882 270.047 424.882C271.922 424.882 273.526 425.23 274.858 425.924 276.191 426.618 277.208 427.617 277.911 428.919 278.615 430.221 278.966 431.783 278.966 433.606 278.966 435.49 278.61 437.087 277.898 438.398 277.187 439.709 276.164 440.705 274.832 441.386 273.5 442.068 271.905 442.408 270.047 442.408L263.523 442.408ZM222.523 424.882 226.729 424.882 231.49 432.982 236.182 424.882 240.232 424.882 240.232 442.408 236.625 442.408 236.625 429.624 232.497 436.809 230.245 436.809 226.026 429.644 226.026 442.408 222.523 442.408ZM424.008 424.674C424.641 424.674 425.125 424.832 425.46 425.149 425.794 425.466 425.961 425.868 425.961 426.354 425.961 426.831 425.794 427.23 425.46 427.552 425.125 427.873 424.641 428.033 424.008 428.033 423.374 428.033 422.89 427.873 422.556 427.552 422.222 427.23 422.055 426.831 422.055 426.354 422.055 425.868 422.222 425.466 422.556 425.149 422.89 424.832 423.374 424.674 424.008 424.674ZM252.258 424.648C253.629 424.648 254.892 424.884 256.047 425.358 257.201 425.831 258.139 426.529 258.859 427.454 259.58 428.378 259.975 429.518 260.044 430.872L256.294 430.872C256.199 430.16 255.967 429.57 255.598 429.101 255.229 428.632 254.758 428.281 254.185 428.046 253.612 427.812 252.97 427.695 252.258 427.695 251.112 427.695 250.19 427.973 249.491 428.528 248.792 429.084 248.284 429.811 247.967 430.709 247.651 431.608 247.492 432.591 247.492 433.658 247.492 434.717 247.651 435.698 247.967 436.601 248.284 437.504 248.792 438.229 249.491 438.776 250.19 439.322 251.112 439.596 252.258 439.596 253.464 439.596 254.417 439.286 255.116 438.665 255.815 438.044 256.216 437.161 256.32 436.015L260.07 436.015C259.966 437.447 259.589 438.656 258.938 439.641 258.286 440.627 257.397 441.373 256.268 441.881 255.14 442.389 253.803 442.643 252.258 442.643 250.487 442.643 248.964 442.272 247.688 441.529 246.411 440.787 245.431 439.746 244.745 438.404 244.059 437.063 243.716 435.481 243.716 433.658 243.716 431.835 244.059 430.249 244.745 428.899 245.431 427.549 246.411 426.503 247.688 425.761 248.964 425.019 250.487 424.648 252.258 424.648Z" fill="url(#fill6)" fill-rule="evenodd"/><text fill="#000000" fill-opacity="0" font-family="Arial,Arial_MSFontService,sans-serif" font-size="17.9948" x="222.523" y="440.393">MCDM Kernel Driver</text><rect x="59" y="465" width="568" height="88" fill="#0070C0"/><path d="M357.141 507.72C356.403 507.72 355.824 507.898 355.403 508.254 354.982 508.61 354.684 509.087 354.511 509.686 354.337 510.285 354.25 510.949 354.25 511.678 354.25 512.39 354.337 513.041 354.511 513.631 354.684 514.222 354.982 514.693 355.403 515.044 355.824 515.396 356.403 515.571 357.141 515.571 357.896 515.571 358.489 515.396 358.918 515.044 359.348 514.693 359.652 514.222 359.83 513.631 360.008 513.041 360.097 512.39 360.097 511.678 360.097 510.949 360.008 510.285 359.83 509.686 359.652 509.087 359.348 508.61 358.918 508.254 358.489 507.898 357.896 507.72 357.141 507.72ZM341.933 507.694C341.082 507.694 340.422 508.024 339.953 508.683 339.485 509.343 339.25 510.298 339.25 511.548 339.25 512.92 339.474 513.935 339.921 514.595 340.368 515.255 340.982 515.584 341.763 515.584 342.493 515.584 343.122 515.38 343.651 514.973 344.181 514.565 344.585 514.087 344.862 513.54L344.862 509.829C344.593 509.256 344.216 508.757 343.73 508.332 343.243 507.907 342.644 507.694 341.933 507.694ZM364.576 505.285 368.079 505.285 370.526 514.256 372.974 505.285 376.594 505.285 379.094 514.243 381.503 505.285 384.771 505.285 380.774 517.993 377.245 517.993 374.68 508.853 372.089 517.993 368.573 517.993ZM313.373 505.285 316.823 505.285 316.823 517.993 313.373 517.993ZM328.146 505.103C329.44 505.103 330.442 505.496 331.154 506.281 331.866 507.067 332.222 508.215 332.222 509.725L332.222 517.993 328.797 517.993 328.797 510.168C328.797 509.708 328.732 509.304 328.602 508.957 328.472 508.61 328.266 508.341 327.983 508.15 327.701 507.959 327.33 507.863 326.87 507.863 326.184 507.863 325.596 508.024 325.106 508.345 324.615 508.666 324.188 509.057 323.823 509.517L323.823 517.993 320.373 517.993 320.373 505.285 323.693 505.285 323.758 507.186C324.184 506.639 324.743 506.155 325.438 505.734 326.132 505.313 327.035 505.103 328.146 505.103ZM392.347 505.077C392.998 505.077 393.636 505.142 394.261 505.272 394.886 505.402 395.45 505.621 395.953 505.93 396.457 506.238 396.861 506.652 397.164 507.173 397.468 507.694 397.62 508.345 397.62 509.126L394.417 509.126C394.417 508.475 394.211 508.024 393.799 507.772 393.386 507.52 392.902 507.394 392.347 507.394 391.748 507.394 391.277 507.481 390.934 507.655 390.591 507.828 390.42 508.115 390.42 508.514 390.42 508.749 390.528 508.955 390.745 509.133 390.962 509.311 391.309 509.476 391.787 509.627 392.264 509.779 392.894 509.942 393.675 510.116 394.5 510.307 395.237 510.554 395.888 510.858 396.539 511.162 397.056 511.57 397.438 512.082 397.82 512.594 398.011 513.258 398.011 514.074 398.011 514.838 397.857 515.485 397.549 516.014 397.24 516.544 396.828 516.971 396.312 517.297 395.795 517.622 395.205 517.859 394.541 518.006 393.877 518.154 393.189 518.228 392.477 518.228 391.774 518.228 391.084 518.163 390.407 518.032 389.73 517.902 389.118 517.679 388.571 517.362 388.024 517.045 387.59 516.613 387.269 516.066 386.947 515.519 386.787 514.838 386.787 514.022L389.99 514.022C389.99 514.734 390.24 515.229 390.739 515.506 391.238 515.784 391.822 515.923 392.49 515.923 393.15 515.923 393.662 515.817 394.026 515.604 394.391 515.391 394.573 515.033 394.573 514.53 394.573 514.052 394.358 513.696 393.929 513.462 393.499 513.228 392.746 512.989 391.67 512.746 390.767 512.529 389.962 512.266 389.254 511.958 388.547 511.65 387.993 511.238 387.594 510.721 387.195 510.205 386.995 509.525 386.995 508.683 386.995 508.024 387.147 507.464 387.451 507.004 387.755 506.544 388.161 506.173 388.668 505.89 389.176 505.608 389.749 505.402 390.387 505.272 391.025 505.142 391.678 505.077 392.347 505.077ZM357.141 505.064C358.443 505.064 359.578 505.322 360.546 505.838 361.514 506.355 362.267 507.106 362.805 508.091 363.343 509.076 363.612 510.272 363.612 511.678 363.612 513.058 363.343 514.235 362.805 515.207 362.267 516.179 361.514 516.921 360.546 517.433 359.578 517.946 358.443 518.202 357.141 518.202 355.856 518.202 354.73 517.946 353.762 517.433 352.794 516.921 352.046 516.179 351.516 515.207 350.987 514.235 350.722 513.058 350.722 511.678 350.722 510.272 350.987 509.076 351.516 508.091 352.046 507.106 352.794 506.355 353.762 505.838 354.73 505.322 355.856 505.064 357.141 505.064ZM344.862 500.467 348.313 500.467 348.313 517.993 345.006 517.993 344.862 516.183C344.411 516.808 343.851 517.303 343.183 517.668 342.514 518.032 341.703 518.215 340.748 518.215 339.793 518.215 338.936 517.976 338.176 517.499 337.417 517.021 336.818 516.29 336.379 515.305 335.941 514.319 335.722 513.067 335.722 511.548 335.722 510.081 335.958 508.87 336.431 507.915 336.904 506.96 337.545 506.249 338.352 505.78 339.159 505.311 340.066 505.077 341.073 505.077 341.959 505.077 342.718 505.259 343.352 505.624 343.986 505.988 344.489 506.466 344.862 507.056ZM286.615 500.467 290.404 500.467 293.737 513.644 297.24 500.467 300.912 500.467 304.44 513.644 307.774 500.467 311.511 500.467 306.276 517.993 302.474 517.993 299.037 504.907 295.638 517.993 291.81 517.993ZM315.105 500.259C315.738 500.259 316.222 500.417 316.556 500.734 316.891 501.051 317.058 501.453 317.058 501.939 317.058 502.416 316.891 502.815 316.556 503.137 316.222 503.458 315.738 503.618 315.105 503.618 314.471 503.618 313.987 503.458 313.653 503.137 313.319 502.815 313.151 502.416 313.151 501.939 313.151 501.453 313.319 501.051 313.653 500.734 313.987 500.417 314.471 500.259 315.105 500.259Z" fill="url(#fill7)" fill-rule="evenodd"/><text fill="#000000" fill-opacity="0" font-family="Arial,Arial_MSFontService,sans-serif" font-size="17.9688" x="286.615" y="515.982">Windows</text><rect x="59" y="557" width="1151" height="87" fill="#50164A"/><path d="M615.595 603.706C613.772 603.715 612.496 603.886 611.767 604.22 611.038 604.555 610.673 605.095 610.673 605.841 610.673 606.38 610.84 606.779 611.174 607.039 611.509 607.3 611.94 607.43 612.47 607.43 613.121 607.43 613.722 607.261 614.273 606.922 614.825 606.584 615.265 606.197 615.595 605.763ZM643.433 599.279C642.583 599.279 641.923 599.609 641.454 600.268 640.986 600.928 640.751 601.883 640.751 603.133 640.751 604.505 640.975 605.52 641.422 606.18 641.869 606.84 642.483 607.17 643.264 607.17 643.993 607.17 644.623 606.966 645.152 606.558 645.682 606.15 646.085 605.672 646.363 605.125L646.363 601.414C646.094 600.841 645.716 600.342 645.23 599.917 644.744 599.492 644.145 599.279 643.433 599.279ZM629.647 596.688C630.94 596.688 631.943 597.081 632.655 597.866 633.367 598.652 633.723 599.8 633.723 601.31L633.723 609.578 630.298 609.578 630.298 601.753C630.298 601.293 630.233 600.889 630.103 600.542 629.973 600.195 629.766 599.926 629.484 599.735 629.202 599.544 628.831 599.448 628.371 599.448 627.685 599.448 627.097 599.609 626.607 599.93 626.116 600.251 625.689 600.642 625.324 601.102L625.324 609.578 621.874 609.578 621.874 596.87 625.194 596.87 625.259 598.771C625.684 598.224 626.244 597.74 626.939 597.319 627.633 596.898 628.536 596.688 629.647 596.688ZM613.512 596.675C614.319 596.675 615.057 596.742 615.725 596.877 616.394 597.011 616.973 597.243 617.463 597.573 617.954 597.903 618.334 598.352 618.603 598.921 618.872 599.489 619.006 600.199 619.006 601.05L619.006 609.578 615.777 609.578 615.673 607.925C615.135 608.541 614.51 609.008 613.798 609.324 613.086 609.641 612.266 609.8 611.337 609.8 610.617 609.8 609.944 609.661 609.319 609.383 608.694 609.105 608.188 608.686 607.802 608.127 607.416 607.567 607.223 606.866 607.223 606.024 607.223 604.852 607.574 603.969 608.277 603.374 608.98 602.779 609.963 602.376 611.226 602.163 612.489 601.95 613.959 601.827 615.634 601.792L615.634 601.115C615.634 600.29 615.437 599.726 615.042 599.422 614.647 599.118 614.137 598.966 613.512 598.966 612.826 598.966 612.262 599.129 611.819 599.455 611.376 599.78 611.155 600.308 611.155 601.037L607.926 601.037C607.926 599.952 608.162 599.092 608.635 598.459 609.108 597.825 609.764 597.369 610.601 597.091 611.439 596.814 612.409 596.675 613.512 596.675ZM714.28 595.672 712.001 602.69 716.558 602.69ZM676.78 595.008 676.78 600.399 679.657 600.399C680.508 600.399 681.196 600.173 681.721 599.722 682.246 599.27 682.509 598.602 682.509 597.716 682.509 596.796 682.24 596.115 681.702 595.672 681.164 595.229 680.482 595.008 679.657 595.008ZM570.78 595.008 570.78 600.399 573.657 600.399C574.508 600.399 575.196 600.173 575.721 599.722 576.246 599.27 576.509 598.602 576.509 597.716 576.509 596.796 576.24 596.115 575.702 595.672 575.164 595.229 574.482 595.008 573.657 595.008ZM712.366 592.052 716.207 592.052 722.522 609.578 718.707 609.578 717.457 605.724 711.129 605.724 709.84 609.578 706.064 609.578ZM673.121 592.052 679.996 592.052C681.151 592.052 682.203 592.256 683.154 592.664 684.104 593.072 684.861 593.693 685.426 594.526 685.99 595.36 686.272 596.423 686.272 597.716 686.272 598.992 685.99 600.047 685.426 600.88 684.861 601.714 684.104 602.332 683.154 602.736 682.203 603.14 681.151 603.341 679.996 603.341L676.78 603.341 676.78 609.578 673.121 609.578ZM659.121 592.052 670.579 592.052 670.579 595.086 662.78 595.086 662.78 599.188 669.772 599.188 669.772 602.091 662.78 602.091 662.78 609.578 659.121 609.578ZM646.363 592.052 649.814 592.052 649.814 609.578 646.506 609.578 646.363 607.768C645.912 608.393 645.352 608.888 644.683 609.253 644.015 609.617 643.203 609.8 642.249 609.8 641.294 609.8 640.437 609.561 639.677 609.084 638.917 608.606 638.318 607.875 637.88 606.89 637.442 605.904 637.223 604.652 637.223 603.133 637.223 601.666 637.459 600.455 637.932 599.5 638.405 598.545 639.045 597.834 639.853 597.365 640.66 596.896 641.567 596.662 642.574 596.662 643.46 596.662 644.219 596.844 644.853 597.209 645.486 597.573 645.99 598.051 646.363 598.641ZM583.913 592.052 587.663 592.052 587.663 602.521C587.663 603.962 587.958 605.034 588.548 605.737 589.138 606.44 590.067 606.792 591.335 606.792 592.611 606.792 593.533 606.44 594.101 605.737 594.67 605.034 594.954 603.962 594.954 602.521L594.954 592.052 598.717 592.052 598.717 602.612C598.717 604.157 598.461 605.468 597.949 606.545 597.437 607.621 596.636 608.435 595.547 608.986 594.457 609.537 593.045 609.813 591.308 609.813 589.59 609.813 588.183 609.537 587.09 608.986 585.996 608.435 585.193 607.621 584.681 606.545 584.169 605.468 583.913 604.157 583.913 602.612ZM567.121 592.052 573.996 592.052C575.151 592.052 576.203 592.256 577.154 592.664 578.104 593.072 578.861 593.693 579.426 594.526 579.99 595.36 580.272 596.423 580.272 597.716 580.272 598.992 579.99 600.047 579.426 600.88 578.861 601.714 578.104 602.332 577.154 602.736 576.203 603.14 575.151 603.341 573.996 603.341L570.78 603.341 570.78 609.578 567.121 609.578ZM548.121 592.052 551.702 592.052 559.762 603.862 559.762 592.052 563.212 592.052 563.212 609.578 559.618 609.578 551.545 597.69 551.545 609.578 548.121 609.578ZM696.933 591.818C697.836 591.818 698.722 591.935 699.59 592.17 700.458 592.404 701.252 592.766 701.973 593.257 702.693 593.747 703.288 594.37 703.756 595.125 704.225 595.88 704.507 596.775 704.603 597.808L700.866 597.808C700.796 597.235 700.597 596.727 700.267 596.284 699.937 595.841 699.486 595.494 698.913 595.242 698.34 594.991 697.654 594.865 696.855 594.865 695.709 594.865 694.785 595.14 694.082 595.692 693.379 596.243 692.867 596.968 692.545 597.866 692.224 598.765 692.064 599.752 692.064 600.828 692.064 601.896 692.226 602.881 692.552 603.784 692.877 604.687 693.396 605.412 694.108 605.959 694.82 606.505 695.762 606.779 696.933 606.779 697.802 606.779 698.542 606.629 699.154 606.33 699.766 606.03 700.243 605.616 700.586 605.086 700.929 604.557 701.126 603.945 701.178 603.25L697.025 603.25 697.025 600.334 704.85 600.334 704.85 602.117C704.85 603.637 704.544 604.973 703.932 606.128 703.32 607.282 702.426 608.185 701.25 608.836 700.074 609.487 698.635 609.813 696.933 609.813 695.137 609.813 693.596 609.442 692.311 608.699 691.026 607.957 690.039 606.913 689.349 605.568 688.659 604.222 688.314 602.643 688.314 600.828 688.314 599.005 688.659 597.419 689.349 596.069 690.039 594.719 691.026 593.673 692.311 592.931 693.596 592.189 695.137 591.818 696.933 591.818Z" fill="url(#fill8)" fill-rule="evenodd"/><text fill="#000000" fill-opacity="0" font-family="Arial,Arial_MSFontService,sans-serif" font-size="17.9948" x="548.121" y="607.563">NPU and FPGA</text><rect x="642" y="373" width="568" height="87" fill="#3B7D23"/><path d="M945.909 396.797 949.594 396.797 952.077 400.888 954.529 396.797 958.214 396.797 954.142 402.905 958.605 409.505 954.92 409.505 952.03 404.952 949.152 409.505 945.48 409.505 949.956 402.85ZM931.172 396.797 934.623 396.797 934.623 404.674C934.623 405.108 934.686 405.493 934.812 405.827 934.938 406.161 935.146 406.419 935.437 406.602 935.728 406.784 936.112 406.875 936.589 406.875 937.284 406.875 937.876 406.721 938.366 406.413 938.857 406.105 939.284 405.729 939.649 405.286L939.649 396.797 943.099 396.797 943.099 409.505 939.766 409.505 939.714 407.591C939.289 408.129 938.707 408.611 937.969 409.036 937.231 409.462 936.311 409.674 935.209 409.674 933.924 409.674 932.93 409.277 932.227 408.483 931.524 407.689 931.172 406.558 931.172 405.091ZM909.29 396.797 912.74 396.797 912.74 409.505 909.29 409.505ZM924.063 396.615C925.356 396.615 926.359 397.007 927.071 397.793 927.783 398.578 928.139 399.727 928.139 401.237L928.139 409.505 924.714 409.505 924.714 401.68C924.714 401.22 924.649 400.816 924.519 400.469 924.389 400.121 924.182 399.852 923.9 399.661 923.618 399.47 923.247 399.375 922.787 399.375 922.101 399.375 921.513 399.536 921.023 399.857 920.532 400.178 920.105 400.569 919.74 401.029L919.74 409.505 916.29 409.505 916.29 396.797 919.61 396.797 919.675 398.698C920.1 398.151 920.66 397.667 921.355 397.246 922.049 396.825 922.952 396.615 924.063 396.615ZM895.537 391.979 899.196 391.979 899.196 406.289 906.592 406.289 906.592 409.505 895.537 409.505ZM911.021 391.771C911.655 391.771 912.139 391.929 912.473 392.246 912.807 392.563 912.974 392.964 912.974 393.45 912.974 393.928 912.807 394.327 912.473 394.648 912.139 394.97 911.655 395.13 911.021 395.13 910.388 395.13 909.904 394.97 909.57 394.648 909.235 394.327 909.068 393.928 909.068 393.45 909.068 392.964 909.235 392.563 909.57 392.246 909.904 391.929 910.388 391.771 911.021 391.771Z" fill="url(#fill9)" fill-rule="evenodd"/><text fill="#000000" fill-opacity="0" font-family="Arial,Arial_MSFontService,sans-serif" font-size="17.9037" x="895.537" y="407.436">Linux</text><path d="M1024.57 430.997C1023.78 430.997 1023.12 431.223 1022.61 431.674 1022.11 432.126 1021.83 432.781 1021.77 433.641L1027.28 433.641C1027.26 432.755 1026.99 432.093 1026.49 431.655 1026 431.217 1025.36 430.997 1024.57 430.997ZM947.574 430.997C946.776 430.997 946.122 431.223 945.615 431.674 945.107 432.126 944.827 432.781 944.775 433.641L950.283 433.641C950.257 432.755 949.994 432.093 949.495 431.655 948.996 431.217 948.355 430.997 947.574 430.997ZM907.574 430.997C906.776 430.997 906.122 431.223 905.615 431.674 905.107 432.126 904.827 432.781 904.775 433.641L910.283 433.641C910.257 432.755 909.994 432.093 909.495 431.655 908.996 431.217 908.356 430.997 907.574 430.997ZM863.574 430.997C862.776 430.997 862.122 431.223 861.615 431.674 861.107 432.126 860.827 432.781 860.775 433.641L866.283 433.641C866.257 432.755 865.994 432.093 865.495 431.655 864.996 431.217 864.356 430.997 863.574 430.997ZM1004.09 428.797 1007.68 428.797 1010.68 438.289 1013.76 428.797 1017.25 428.797 1012.64 441.505 1008.71 441.505ZM998.936 428.797 1002.39 428.797 1002.39 441.505 998.936 441.505ZM1041.19 428.628 1041.45 428.628 1041.45 431.531 1041.12 431.531C1040.61 431.531 1040.12 431.577 1039.65 431.668 1039.18 431.759 1038.76 431.915 1038.38 432.137 1037.99 432.358 1037.66 432.664 1037.39 433.055L1037.39 441.505 1033.94 441.505 1033.94 428.797 1037.24 428.797 1037.31 430.997C1037.64 430.233 1038.13 429.648 1038.79 429.24 1039.45 428.832 1040.25 428.628 1041.19 428.628ZM996.189 428.628 996.449 428.628 996.449 431.531 996.124 431.531C995.612 431.531 995.121 431.577 994.652 431.668 994.184 431.759 993.758 431.915 993.376 432.137 992.994 432.358 992.665 432.664 992.387 433.055L992.387 441.505 988.936 441.505 988.936 428.797 992.244 428.797 992.309 430.997C992.638 430.233 993.133 429.648 993.793 429.24 994.453 428.832 995.251 428.628 996.189 428.628ZM924.189 428.628 924.449 428.628 924.449 431.531 924.124 431.531C923.612 431.531 923.121 431.577 922.652 431.668 922.184 431.759 921.758 431.915 921.376 432.137 920.994 432.358 920.665 432.664 920.387 433.055L920.387 441.505 916.936 441.505 916.936 428.797 920.244 428.797 920.309 430.997C920.638 430.233 921.133 429.648 921.793 429.24 922.453 428.832 923.251 428.628 924.189 428.628ZM934.71 428.615C936.003 428.615 937.006 429.007 937.718 429.793 938.429 430.578 938.785 431.727 938.785 433.237L938.785 441.505 935.361 441.505 935.361 433.68C935.361 433.22 935.296 432.816 935.165 432.469 935.035 432.121 934.829 431.852 934.547 431.661 934.265 431.47 933.894 431.375 933.434 431.375 932.748 431.375 932.16 431.536 931.669 431.857 931.179 432.178 930.751 432.569 930.387 433.029L930.387 441.505 926.936 441.505 926.936 428.797 930.257 428.797 930.322 430.698C930.747 430.151 931.307 429.667 932.001 429.246 932.696 428.825 933.599 428.615 934.71 428.615ZM1024.57 428.602C1026.47 428.602 1027.96 429.155 1029.06 430.262 1030.16 431.368 1030.71 432.946 1030.71 434.995 1030.71 435.099 1030.7 435.24 1030.69 435.418 1030.69 435.596 1030.67 435.733 1030.66 435.828L1021.74 435.828C1021.75 436.427 1021.86 436.987 1022.07 437.508 1022.27 438.029 1022.6 438.447 1023.04 438.764 1023.48 439.081 1024.06 439.24 1024.78 439.24 1025.53 439.24 1026.13 439.077 1026.58 438.751 1027.03 438.426 1027.26 437.942 1027.27 437.299L1030.67 437.299C1030.62 438.289 1030.35 439.114 1029.85 439.773 1029.36 440.433 1028.67 440.926 1027.81 441.251 1026.95 441.577 1025.94 441.74 1024.78 441.74 1023.37 441.74 1022.18 441.477 1021.21 440.952 1020.25 440.427 1019.52 439.669 1019.03 438.68 1018.53 437.69 1018.29 436.501 1018.29 435.112 1018.29 433.766 1018.53 432.608 1019.01 431.635 1019.49 430.663 1020.2 429.914 1021.13 429.389 1022.06 428.864 1023.21 428.602 1024.57 428.602ZM947.574 428.602C949.467 428.602 950.962 429.155 952.06 430.262 953.158 431.368 953.707 432.946 953.707 434.995 953.707 435.099 953.703 435.24 953.694 435.418 953.685 435.596 953.672 435.733 953.655 435.828L944.736 435.828C944.753 436.427 944.864 436.987 945.068 437.508 945.272 438.029 945.595 438.447 946.038 438.764 946.48 439.081 947.062 439.24 947.783 439.24 948.529 439.24 949.128 439.077 949.579 438.751 950.031 438.426 950.261 437.942 950.27 437.299L953.668 437.299C953.625 438.289 953.353 439.114 952.854 439.773 952.355 440.433 951.674 440.926 950.81 441.251 949.946 441.577 948.937 441.74 947.783 441.74 946.368 441.74 945.178 441.477 944.215 440.952 943.251 440.427 942.522 439.669 942.027 438.68 941.533 437.69 941.285 436.501 941.285 435.112 941.285 433.766 941.526 432.608 942.008 431.635 942.49 430.663 943.197 429.914 944.13 429.389 945.063 428.864 946.211 428.602 947.574 428.602ZM907.574 428.602C909.467 428.602 910.962 429.155 912.06 430.262 913.158 431.368 913.707 432.946 913.707 434.995 913.707 435.099 913.703 435.24 913.694 435.418 913.685 435.596 913.672 435.733 913.655 435.828L904.736 435.828C904.753 436.427 904.864 436.987 905.068 437.508 905.272 438.029 905.595 438.447 906.038 438.764 906.48 439.081 907.062 439.24 907.783 439.24 908.529 439.24 909.128 439.077 909.579 438.751 910.031 438.426 910.261 437.942 910.27 437.299L913.668 437.299C913.625 438.289 913.353 439.114 912.854 439.773 912.355 440.433 911.674 440.926 910.81 441.251 909.946 441.577 908.937 441.74 907.783 441.74 906.368 441.74 905.178 441.477 904.215 440.952 903.251 440.427 902.522 439.669 902.027 438.68 901.533 437.69 901.285 436.501 901.285 435.112 901.285 433.766 901.526 432.608 902.008 431.635 902.49 430.663 903.197 429.914 904.13 429.389 905.063 428.864 906.211 428.602 907.574 428.602ZM863.574 428.602C865.467 428.602 866.962 429.155 868.06 430.262 869.158 431.368 869.707 432.946 869.707 434.995 869.707 435.099 869.703 435.24 869.694 435.418 869.685 435.596 869.672 435.733 869.655 435.828L860.736 435.828C860.753 436.427 860.864 436.987 861.068 437.508 861.272 438.029 861.595 438.447 862.038 438.764 862.481 439.081 863.062 439.24 863.783 439.24 864.529 439.24 865.128 439.077 865.579 438.751 866.031 438.426 866.261 437.942 866.27 437.299L869.668 437.299C869.625 438.289 869.353 439.114 868.854 439.773 868.355 440.433 867.674 440.926 866.81 441.251 865.946 441.577 864.937 441.74 863.783 441.74 862.368 441.74 861.178 441.477 860.215 440.952 859.251 440.427 858.522 439.669 858.027 438.68 857.533 437.69 857.285 436.501 857.285 435.112 857.285 433.766 857.526 432.608 858.008 431.635 858.49 430.663 859.197 429.914 860.13 429.389 861.063 428.864 862.211 428.602 863.574 428.602ZM848.639 428.602C849.716 428.602 850.688 428.779 851.556 429.135 852.424 429.491 853.114 430.023 853.626 430.73 854.138 431.438 854.399 432.33 854.408 433.406L851.061 433.406C851.044 432.755 850.827 432.236 850.41 431.85 849.994 431.464 849.408 431.271 848.652 431.271 847.654 431.271 846.931 431.614 846.484 432.299 846.037 432.985 845.814 433.953 845.814 435.203 845.814 436.01 845.911 436.698 846.107 437.267 846.302 437.835 846.61 438.269 847.031 438.569 847.452 438.868 847.993 439.018 848.652 439.018 849.425 439.018 850.035 438.808 850.482 438.387 850.929 437.966 851.161 437.369 851.178 436.596L854.525 436.596C854.499 437.699 854.232 438.628 853.724 439.383 853.216 440.138 852.524 440.711 851.647 441.102 850.77 441.492 849.768 441.687 848.639 441.687 847.459 441.687 846.387 441.462 845.423 441.01 844.46 440.559 843.696 439.856 843.132 438.901 842.567 437.946 842.285 436.714 842.285 435.203 842.285 433.693 842.554 432.451 843.092 431.479 843.631 430.507 844.379 429.784 845.339 429.311 846.298 428.838 847.398 428.602 848.639 428.602ZM834.639 428.602C835.716 428.602 836.688 428.779 837.556 429.135 838.424 429.491 839.114 430.023 839.626 430.73 840.138 431.438 840.399 432.33 840.408 433.406L837.061 433.406C837.044 432.755 836.827 432.236 836.41 431.85 835.994 431.464 835.408 431.271 834.652 431.271 833.654 431.271 832.931 431.614 832.484 432.299 832.037 432.985 831.814 433.953 831.814 435.203 831.814 436.01 831.911 436.698 832.107 437.267 832.302 437.835 832.61 438.269 833.031 438.569 833.452 438.868 833.993 439.018 834.652 439.018 835.425 439.018 836.035 438.808 836.482 438.387 836.929 437.966 837.161 437.369 837.178 436.596L840.525 436.596C840.499 437.699 840.232 438.628 839.724 439.383 839.216 440.138 838.524 440.711 837.647 441.102 836.77 441.492 835.768 441.687 834.639 441.687 833.459 441.687 832.387 441.462 831.423 441.01 830.46 440.559 829.696 439.856 829.132 438.901 828.567 437.946 828.285 436.714 828.285 435.203 828.285 433.693 828.554 432.451 829.092 431.479 829.631 430.507 830.379 429.784 831.339 429.311 832.298 428.838 833.398 428.602 834.639 428.602ZM818.342 427.599 816.064 434.617 820.621 434.617ZM973.842 427.026 973.842 438.458 976.316 438.458C977.558 438.458 978.589 438.248 979.409 437.827 980.229 437.406 980.843 436.768 981.251 435.913 981.659 435.058 981.863 433.979 981.863 432.677 981.863 431.436 981.644 430.396 981.206 429.559 980.767 428.721 980.136 428.089 979.311 427.664 978.487 427.239 977.488 427.026 976.316 427.026ZM970.184 423.979 976.707 423.979C978.582 423.979 980.186 424.326 981.518 425.021 982.851 425.715 983.869 426.714 984.572 428.016 985.275 429.318 985.626 430.88 985.626 432.703 985.626 434.587 985.27 436.184 984.559 437.495 983.847 438.805 982.825 439.802 981.492 440.483 980.16 441.164 978.565 441.505 976.707 441.505L970.184 441.505ZM956.819 423.979 960.257 423.979 960.257 436.87C960.257 437.538 960.348 438.029 960.53 438.341 960.712 438.654 961.138 438.81 961.806 438.81L962.6 438.81 962.6 441.505 961.702 441.505C960.408 441.505 959.41 441.351 958.707 441.043 958.004 440.735 957.513 440.257 957.236 439.611 956.958 438.964 956.819 438.12 956.819 437.078ZM886.184 423.979 889.843 423.979 889.843 432.339 896.132 423.979 900.181 423.979 893.697 432.195 900.611 441.505 896.379 441.505 889.843 432.534 889.843 441.505 886.184 441.505ZM872.819 423.979 876.257 423.979 876.257 436.87C876.257 437.538 876.348 438.029 876.53 438.341 876.712 438.654 877.138 438.81 877.806 438.81L878.6 438.81 878.6 441.505 877.702 441.505C876.408 441.505 875.41 441.351 874.707 441.043 874.004 440.735 873.513 440.257 873.236 439.611 872.958 438.964 872.819 438.12 872.819 437.078ZM816.428 423.979 820.27 423.979 826.585 441.505 822.77 441.505 821.52 437.651 815.191 437.651 813.902 441.505 810.126 441.505ZM1000.67 423.771C1001.3 423.771 1001.79 423.929 1002.12 424.246 1002.45 424.563 1002.62 424.964 1002.62 425.45 1002.62 425.928 1002.45 426.327 1002.12 426.648 1001.79 426.97 1001.3 427.13 1000.67 427.13 1000.03 427.13 999.55 426.97 999.216 426.648 998.882 426.327 998.715 425.928 998.715 425.45 998.715 424.964 998.882 424.563 999.216 424.246 999.55 423.929 1000.03 423.771 1000.67 423.771Z" fill="url(#fill10)" fill-rule="evenodd"/><text fill="#000000" fill-opacity="0" font-family="Arial,Arial_MSFontService,sans-serif" font-size="17.9688" x="810.126" y="439.493">Accel Kernel Driver</text><rect x="642" y="466" width="568" height="87" fill="#0070C0"/><path d="M945.913 505.702 949.598 505.702 952.081 509.793 954.533 505.702 958.218 505.702 954.146 511.81 958.608 518.41 954.923 518.41 952.033 513.857 949.155 518.41 945.483 518.41 949.96 511.755ZM931.176 505.702 934.626 505.702 934.626 513.579C934.626 514.013 934.689 514.398 934.815 514.732 934.941 515.066 935.149 515.324 935.44 515.506 935.731 515.689 936.115 515.78 936.593 515.78 937.287 515.78 937.879 515.626 938.37 515.318 938.86 515.01 939.288 514.634 939.652 514.191L939.652 505.702 943.103 505.702 943.103 518.41 939.77 518.41 939.718 516.496C939.292 517.034 938.711 517.516 937.973 517.941 937.235 518.367 936.315 518.579 935.212 518.579 933.928 518.579 932.934 518.182 932.231 517.388 931.527 516.594 931.176 515.463 931.176 513.996ZM909.293 505.702 912.744 505.702 912.744 518.41 909.293 518.41ZM924.067 505.52C925.36 505.52 926.362 505.912 927.074 506.698 927.786 507.483 928.142 508.631 928.142 510.142L928.142 518.41 924.718 518.41 924.718 510.585C924.718 510.125 924.652 509.721 924.522 509.374 924.392 509.026 924.186 508.757 923.904 508.566 923.622 508.375 923.25 508.28 922.79 508.28 922.105 508.28 921.517 508.44 921.026 508.762 920.536 509.083 920.108 509.473 919.744 509.934L919.744 518.41 916.293 518.41 916.293 505.702 919.613 505.702 919.678 507.603C920.104 507.056 920.664 506.572 921.358 506.151 922.053 505.73 922.955 505.52 924.067 505.52ZM895.54 500.884 899.199 500.884 899.199 515.194 906.595 515.194 906.595 518.41 895.54 518.41ZM911.025 500.676C911.658 500.676 912.142 500.834 912.477 501.151 912.811 501.468 912.978 501.869 912.978 502.355 912.978 502.833 912.811 503.232 912.477 503.553 912.142 503.875 911.658 504.035 911.025 504.035 910.391 504.035 909.907 503.875 909.573 503.553 909.239 503.232 909.072 502.833 909.072 502.355 909.072 501.869 909.239 501.468 909.573 501.151 909.907 500.834 910.391 500.676 911.025 500.676Z" fill="url(#fill11)" fill-rule="evenodd"/><text fill="#000000" fill-opacity="0" font-family="Arial,Arial_MSFontService,sans-serif" font-size="17.9037" x="895.54" y="516.341">Linux</text><rect x="947" y="206" width="263" height="70" fill="#C00000"/><path d="M1035.87 237.287 1039.55 237.287 1042.03 241.378 1044.49 237.287 1048.17 237.287 1044.1 243.395 1048.56 249.995 1044.88 249.995 1041.99 245.442 1039.11 249.995 1035.44 249.995 1039.91 243.34ZM1057.5 237.118 1057.76 237.118 1057.76 240.021 1057.43 240.021C1056.92 240.021 1056.43 240.067 1055.96 240.158 1055.49 240.249 1055.07 240.405 1054.69 240.627 1054.31 240.848 1053.98 241.154 1053.7 241.545L1053.7 249.995 1050.25 249.995 1050.25 237.287 1053.55 237.287 1053.62 239.488C1053.95 238.724 1054.44 238.138 1055.1 237.73 1055.76 237.322 1056.56 237.118 1057.5 237.118ZM1060.79 234.292 1064.24 234.292 1064.24 237.287 1067.02 237.287 1067.02 239.943 1064.24 239.943 1064.24 245.36C1064.24 246.028 1064.34 246.523 1064.52 246.844 1064.71 247.165 1065.13 247.326 1065.79 247.326L1067.02 247.326 1067.02 249.995 1065.68 249.995C1064.39 249.995 1063.4 249.841 1062.69 249.533 1061.98 249.225 1061.49 248.747 1061.21 248.101 1060.93 247.454 1060.79 246.61 1060.79 245.568L1060.79 239.943 1058.68 239.943 1058.68 237.287 1060.79 237.287Z" fill="url(#fill12)" fill-rule="evenodd"/><text fill="#000000" fill-opacity="0" font-family="Arial,Arial_MSFontService,sans-serif" font-size="15.7031" x="1035.44" y="248.032">xrt</text><path d="M1068.76 242.105 1075.96 242.105 1075.96 245.034 1068.76 245.034Z" fill="url(#fill13)" fill-rule="evenodd"/><text fill="#000000" fill-opacity="0" font-family="Arial,Arial_MSFontService,sans-serif" font-size="2.92969" x="1068.76" y="244.668">-</text><path d="M1116.67 237.287 1120.12 237.287 1120.12 249.995 1116.67 249.995ZM1100.49 237.105C1101.77 237.105 1102.75 237.506 1103.43 238.309L1104.05 239.487 1104.01 239.279C1104.55 238.698 1105.23 238.19 1106.02 237.756 1106.81 237.322 1107.75 237.105 1108.83 237.105 1110.09 237.105 1111.07 237.506 1111.76 238.309 1112.45 239.112 1112.8 240.251 1112.8 241.727L1112.8 249.995 1109.35 249.995 1109.35 242.17C1109.35 241.71 1109.28 241.306 1109.16 240.959 1109.03 240.612 1108.83 240.343 1108.55 240.152 1108.26 239.961 1107.9 239.865 1107.45 239.865 1106.78 239.865 1106.2 240.013 1105.72 240.308 1105.24 240.603 1104.81 240.972 1104.42 241.415L1104.38 241.188 1104.45 241.727 1104.45 249.995 1101 249.995 1101 242.17C1101 241.71 1100.94 241.306 1100.81 240.959 1100.69 240.612 1100.48 240.343 1100.2 240.152 1099.92 239.961 1099.55 239.865 1099.1 239.865 1098.43 239.865 1097.86 240.026 1097.38 240.347 1096.9 240.668 1096.48 241.059 1096.12 241.519L1096.12 249.995 1092.67 249.995 1092.67 237.287 1095.99 237.287 1096.05 239.188C1096.47 238.641 1097.04 238.157 1097.78 237.736 1098.51 237.315 1099.42 237.105 1100.49 237.105ZM1083.64 237.079C1084.29 237.079 1084.93 237.144 1085.55 237.274 1086.18 237.404 1086.74 237.623 1087.25 237.932 1087.75 238.24 1088.15 238.654 1088.46 239.175 1088.76 239.696 1088.91 240.347 1088.91 241.128L1085.71 241.128C1085.71 240.477 1085.51 240.026 1085.09 239.774 1084.68 239.522 1084.2 239.396 1083.64 239.396 1083.04 239.396 1082.57 239.483 1082.23 239.657 1081.89 239.83 1081.71 240.117 1081.71 240.516 1081.71 240.751 1081.82 240.957 1082.04 241.135 1082.26 241.313 1082.6 241.478 1083.08 241.629 1083.56 241.781 1084.19 241.944 1084.97 242.118 1085.79 242.309 1086.53 242.556 1087.18 242.86 1087.83 243.164 1088.35 243.572 1088.73 244.084 1089.11 244.596 1089.3 245.26 1089.3 246.076 1089.3 246.84 1089.15 247.487 1088.84 248.016 1088.53 248.546 1088.12 248.973 1087.61 249.299 1087.09 249.624 1086.5 249.861 1085.83 250.008 1085.17 250.156 1084.48 250.23 1083.77 250.23 1083.07 250.23 1082.38 250.165 1081.7 250.034 1081.02 249.904 1080.41 249.681 1079.86 249.364 1079.32 249.047 1078.88 248.615 1078.56 248.068 1078.24 247.521 1078.08 246.84 1078.08 246.024L1081.28 246.024C1081.28 246.736 1081.53 247.231 1082.03 247.508 1082.53 247.786 1083.12 247.925 1083.78 247.925 1084.44 247.925 1084.96 247.819 1085.32 247.606 1085.69 247.393 1085.87 247.035 1085.87 246.532 1085.87 246.054 1085.65 245.698 1085.22 245.464 1084.79 245.23 1084.04 244.991 1082.96 244.748 1082.06 244.531 1081.26 244.268 1080.55 243.96 1079.84 243.652 1079.29 243.24 1078.89 242.723 1078.49 242.207 1078.29 241.527 1078.29 240.685 1078.29 240.026 1078.44 239.466 1078.74 239.006 1079.05 238.546 1079.45 238.175 1079.96 237.892 1080.47 237.61 1081.04 237.404 1081.68 237.274 1082.32 237.144 1082.97 237.079 1083.64 237.079ZM1118.4 232.261C1119.03 232.261 1119.52 232.419 1119.85 232.736 1120.18 233.053 1120.35 233.455 1120.35 233.941 1120.35 234.418 1120.18 234.817 1119.85 235.139 1119.52 235.46 1119.03 235.62 1118.4 235.62 1117.77 235.62 1117.28 235.46 1116.95 235.139 1116.61 234.817 1116.45 234.418 1116.45 233.941 1116.45 233.455 1116.61 233.053 1116.95 232.736 1117.28 232.419 1117.77 232.261 1118.4 232.261Z" fill="url(#fill14)" fill-rule="evenodd"/><text fill="#000000" fill-opacity="0" font-family="Arial,Arial_MSFontService,sans-serif" font-size="17.9688" x="1078.08" y="247.984">smi</text></g></svg>